<svg id="e9908b6c-f82b-4e21-8cf8-ee8d398dca2e" data-name="Layer 1" xmlns="http://www.w3.org/2000/svg" viewBox="0 0 170.08 71.16"><path d="M48,67.46a1.89,1.89,0,0,0-.47-.24L47,67.06l-.43-.13a2.18,2.18,0,0,1-.34-.14.79.79,0,0,1-.22-.18.39.39,0,0,1-.06-.23.48.48,0,0,1,.2-.41,1.35,1.35,0,0,1,1.21-.07,2.39,2.39,0,0,1,.58.28.12.12,0,0,0,.1,0,.1.1,0,0,0,.08-.06l.21-.33a.13.13,0,0,0,0-.17,2.92,2.92,0,0,0-.73-.36,2.37,2.37,0,0,0-1.39,0,1.45,1.45,0,0,0-.47.27,1.11,1.11,0,0,0-.31.4,1.08,1.08,0,0,0-.12.52.9.9,0,0,0,.15.53,1.13,1.13,0,0,0,.37.35,2.12,2.12,0,0,0,.48.22l.51.15.4.13a1.35,1.35,0,0,1,.32.15.53.53,0,0,1,.2.19.36.36,0,0,1,.07.24.56.56,0,0,1-.23.47,1.51,1.51,0,0,1-1.35,0,3.08,3.08,0,0,1-.68-.38.1.1,0,0,0-.09,0,.11.11,0,0,0-.09,0l-.23.31a.14.14,0,0,0,0,.18,3.24,3.24,0,0,0,.82.46,2.84,2.84,0,0,0,.95.17,1.87,1.87,0,0,0,.59-.09,1.53,1.53,0,0,0,.49-.26,1.24,1.24,0,0,0,.34-.42,1.29,1.29,0,0,0,.12-.57,1,1,0,0,0-.13-.53A1.17,1.17,0,0,0,48,67.46Z" fill="#b4b7c9"/><path d="M55.49,65.65a1.6,1.6,0,0,0-.54-.38,2,2,0,0,0-1.27,0,1.63,1.63,0,0,0-.44.21,1.73,1.73,0,0,0-.35.31l-.12.16-.12-.16a1.34,1.34,0,0,0-.32-.31,1.56,1.56,0,0,0-.43-.21,1.79,1.79,0,0,0-1,0,1.22,1.22,0,0,0-.41.21,1.63,1.63,0,0,0-.31.27v-.33a.13.13,0,0,0-.13-.13h-.39a.13.13,0,0,0-.13.13v4.11a.13.13,0,0,0,.13.13H50a.13.13,0,0,0,.13-.13V67.1a1.53,1.53,0,0,1,.35-1,1.17,1.17,0,0,1,.38-.28,1,1,0,0,1,.46-.1,1,1,0,0,1,.78.32,1.38,1.38,0,0,1,.29.93v2.46a.13.13,0,0,0,.13.13h.39a.13.13,0,0,0,.13-.13V67.08a1.45,1.45,0,0,1,.1-.57,1.29,1.29,0,0,1,.25-.41,1,1,0,0,1,.37-.25,1.13,1.13,0,0,1,.45-.09,1,1,0,0,1,.8.32,1.42,1.42,0,0,1,.29,1v2.44a.13.13,0,0,0,.13.13h.39a.13.13,0,0,0,.13-.13V67a2.17,2.17,0,0,0-.12-.74A1.5,1.5,0,0,0,55.49,65.65Z" fill="#b4b7c9"/><path d="M58.76,65.17a2.9,2.9,0,0,0-.81.1,4.09,4.09,0,0,0-.7.28.13.13,0,0,0-.07.16l.15.35a.12.12,0,0,0,.07.07.14.14,0,0,0,.11,0,3.57,3.57,0,0,1,.57-.23,2.71,2.71,0,0,1,.66-.08,1.34,1.34,0,0,1,.91.28,1,1,0,0,1,.31.84h0a3.73,3.73,0,0,0-.46-.09,4.45,4.45,0,0,0-.77,0,3.07,3.07,0,0,0-.77.09,1.75,1.75,0,0,0-.6.28,1.29,1.29,0,0,0-.41.46,1.36,1.36,0,0,0-.15.65,1.28,1.28,0,0,0,.16.63,1.41,1.41,0,0,0,.4.44,1.64,1.64,0,0,0,.55.26,2.1,2.1,0,0,0,.61.09,2.12,2.12,0,0,0,.57-.08,2.19,2.19,0,0,0,.47-.18,2,2,0,0,0,.36-.27l0,0v.34a.13.13,0,0,0,.13.13h.39a.13.13,0,0,0,.13-.13V66.91a1.7,1.7,0,0,0-.46-1.25A1.87,1.87,0,0,0,58.76,65.17ZM60,67.93a.94.94,0,0,1-.11.45,1.31,1.31,0,0,1-.3.36,1.42,1.42,0,0,1-.46.23,1.69,1.69,0,0,1-1,0,1.07,1.07,0,0,1-.34-.16.82.82,0,0,1-.23-.26.74.74,0,0,1,.22-.93,1.51,1.51,0,0,1,.92-.24,4.38,4.38,0,0,1,.77.06l.5.1Z" fill="#b4b7c9"/><path d="M64.11,65.17a1.86,1.86,0,0,0-.62.08,1.76,1.76,0,0,0-.55.27,2.24,2.24,0,0,0-.45.42.86.86,0,0,1-.07.1v-.68a.13.13,0,0,0-.13-.13h-.4a.13.13,0,0,0-.13.13v4.11a.13.13,0,0,0,.13.13h.4a.13.13,0,0,0,.13-.13V67.79a2.39,2.39,0,0,1,.13-.84,1.79,1.79,0,0,1,.37-.6,1.43,1.43,0,0,1,.52-.36,1.69,1.69,0,0,1,.63-.13h0a.13.13,0,0,0,.13-.13V65.3A.13.13,0,0,0,64.11,65.17Z" fill="#b4b7c9"/><path d="M67.17,65.23H65.86V64.05a.13.13,0,0,0-.13-.13h-.4a.13.13,0,0,0-.13.13v1.18h-.46a.13.13,0,0,0-.13.13v.37a.13.13,0,0,0,.13.13h.46v2.56a1.54,1.54,0,0,0,.1.55,1.15,1.15,0,0,0,.28.4,1,1,0,0,0,.42.23,1.53,1.53,0,0,0,.49.07,1.45,1.45,0,0,0,.37,0,1.57,1.57,0,0,0,.35-.11.14.14,0,0,0,.07-.12V69a.14.14,0,0,0,0-.11.15.15,0,0,0-.13,0,1.68,1.68,0,0,1-.29.1,1.09,1.09,0,0,1-.26,0,.81.81,0,0,1-.51-.15.63.63,0,0,1-.18-.52V65.86h1.31a.13.13,0,0,0,.13-.13v-.37A.13.13,0,0,0,67.17,65.23Z" fill="#b4b7c9"/><path d="M74.05,68.41a.14.14,0,0,0-.19,0,2.26,2.26,0,0,1-.56.46,1.55,1.55,0,0,1-1.33.06,1.69,1.69,0,0,1-.49-.35,1.93,1.93,0,0,1-.34-.53A1.73,1.73,0,0,1,71,67.4a1.69,1.69,0,0,1,.12-.64,1.65,1.65,0,0,1,.33-.52A1.39,1.39,0,0,1,72,65.9a1.46,1.46,0,0,1,.6-.12,1.31,1.31,0,0,1,.71.18,2.76,2.76,0,0,1,.57.45.13.13,0,0,0,.18,0l.28-.29a.14.14,0,0,0,0-.18l-.33-.3a2.81,2.81,0,0,0-.38-.26,3.27,3.27,0,0,0-.47-.18,2.47,2.47,0,0,0-.56-.06,2.16,2.16,0,0,0-.88.18,2.08,2.08,0,0,0-.7.5,2.34,2.34,0,0,0-.47.73,2.34,2.34,0,0,0,0,1.75A2.09,2.09,0,0,0,71,69a2.16,2.16,0,0,0,.7.49,2,2,0,0,0,.88.19,2.09,2.09,0,0,0,1-.25,3.34,3.34,0,0,0,.74-.62.1.1,0,0,0,0-.09.1.1,0,0,0,0-.09Z" fill="#b4b7c9"/><path d="M78.79,65.81a2.45,2.45,0,0,0-.7-.49,2.34,2.34,0,0,0-1.8,0,2.23,2.23,0,0,0-.71.5,2.34,2.34,0,0,0-.47.73,2.34,2.34,0,0,0,0,1.75,2.09,2.09,0,0,0,.47.72,2.06,2.06,0,0,0,.7.49,2.2,2.2,0,0,0,1.79,0,2.39,2.39,0,0,0,.72-.5,2.3,2.3,0,0,0,.47-.72,2.35,2.35,0,0,0,.16-.89,2.21,2.21,0,0,0-.63-1.59Zm-.16,2.26a1.64,1.64,0,0,1-.32.51,1.46,1.46,0,0,1-.5.35,1.61,1.61,0,0,1-1.24,0,2,2,0,0,1-.5-.35,1.69,1.69,0,0,1-.33-.53,1.73,1.73,0,0,1-.12-.66,1.68,1.68,0,0,1,.12-.63,1.46,1.46,0,0,1,.32-.52,1.75,1.75,0,0,1,.49-.35,1.66,1.66,0,0,1,1.24,0,1.46,1.46,0,0,1,.5.35,1.65,1.65,0,0,1,.33.52,1.76,1.76,0,0,1,.12.66A1.69,1.69,0,0,1,78.63,68.07Z" fill="#b4b7c9"/><path d="M83.69,65.65a1.59,1.59,0,0,0-.56-.38,2,2,0,0,0-.74-.13,1.73,1.73,0,0,0-1,.27,2.74,2.74,0,0,0-.36.32v-.37a.13.13,0,0,0-.13-.13h-.39a.13.13,0,0,0-.13.13v4.11a.13.13,0,0,0,.13.13h.39a.13.13,0,0,0,.13-.13V67.1a1.63,1.63,0,0,1,.1-.55,1.34,1.34,0,0,1,.28-.42,1.17,1.17,0,0,1,.41-.27,1.19,1.19,0,0,1,.51-.1,1.09,1.09,0,0,1,.87.34,1.37,1.37,0,0,1,.31.93v2.44a.13.13,0,0,0,.13.13H84a.13.13,0,0,0,.13-.13V67a2.05,2.05,0,0,0-.12-.72A1.47,1.47,0,0,0,83.69,65.65Z" fill="#b4b7c9"/><path d="M87.84,67.46a1.73,1.73,0,0,0-.47-.24l-.49-.16-.43-.13a2.18,2.18,0,0,1-.34-.14.63.63,0,0,1-.21-.18.33.33,0,0,1-.07-.23A.48.48,0,0,1,86,66a1.36,1.36,0,0,1,1.22-.07,2.32,2.32,0,0,1,.57.28.12.12,0,0,0,.1,0,.15.15,0,0,0,.09-.06l.2-.33a.12.12,0,0,0,0-.17,2.76,2.76,0,0,0-.73-.36,2.37,2.37,0,0,0-1.39,0,1.45,1.45,0,0,0-.47.27,1.11,1.11,0,0,0-.31.4,1.08,1.08,0,0,0-.12.52.9.9,0,0,0,.15.53,1.24,1.24,0,0,0,.37.35,2.12,2.12,0,0,0,.48.22l.51.15.4.13a1.35,1.35,0,0,1,.32.15.65.65,0,0,1,.21.19.43.43,0,0,1,.06.24.53.53,0,0,1-.23.47,1.51,1.51,0,0,1-1.35,0,3.08,3.08,0,0,1-.68-.38.1.1,0,0,0-.09,0,.11.11,0,0,0-.09,0l-.23.31a.14.14,0,0,0,0,.18,3.24,3.24,0,0,0,.82.46,2.84,2.84,0,0,0,1,.17,1.87,1.87,0,0,0,.59-.09,1.53,1.53,0,0,0,.49-.26,1.24,1.24,0,0,0,.34-.42,1.29,1.29,0,0,0,.12-.57,1,1,0,0,0-.13-.53A1.17,1.17,0,0,0,87.84,67.46Z" fill="#b4b7c9"/><path d="M91.5,65.23H90.19V64.05a.13.13,0,0,0-.13-.13h-.39a.13.13,0,0,0-.13.13v1.18h-.47a.13.13,0,0,0-.13.13v.37a.13.13,0,0,0,.13.13h.47v2.56a1.35,1.35,0,0,0,.1.55,1,1,0,0,0,.28.4.88.88,0,0,0,.41.23,1.57,1.57,0,0,0,.49.07,1.53,1.53,0,0,0,.38,0,1.5,1.5,0,0,0,.34-.11.13.13,0,0,0,.08-.12V69a.13.13,0,0,0-.06-.11.13.13,0,0,0-.12,0,1.68,1.68,0,0,1-.29.1,1.18,1.18,0,0,1-.27,0,.81.81,0,0,1-.51-.15.63.63,0,0,1-.18-.52V65.86H91.5a.13.13,0,0,0,.13-.13v-.37A.13.13,0,0,0,91.5,65.23Z" fill="#b4b7c9"/><path d="M94.89,65.17a2.11,2.11,0,0,0-.62.08,1.76,1.76,0,0,0-.55.27,2.24,2.24,0,0,0-.45.42.86.86,0,0,1-.07.1v-.68a.13.13,0,0,0-.13-.13h-.4a.13.13,0,0,0-.13.13v4.11a.13.13,0,0,0,.13.13h.4a.13.13,0,0,0,.13-.13V67.79a2.39,2.39,0,0,1,.13-.84,1.79,1.79,0,0,1,.37-.6,1.43,1.43,0,0,1,.52-.36,1.69,1.69,0,0,1,.63-.13h0a.13.13,0,0,0,.13-.13V65.3A.13.13,0,0,0,94.89,65.17Z" fill="#b4b7c9"/><path d="M99.33,65.23h-.39a.13.13,0,0,0-.13.13v2.38a1.33,1.33,0,0,1-.1.54,1.27,1.27,0,0,1-.27.42A1.34,1.34,0,0,1,98,69a1.36,1.36,0,0,1-.51.1,1.1,1.1,0,0,1-.87-.34,1.4,1.4,0,0,1-.3-.94V65.36a.13.13,0,0,0-.13-.13h-.4a.13.13,0,0,0-.13.13v2.52a2.09,2.09,0,0,0,.12.72,1.7,1.7,0,0,0,.35.58,1.59,1.59,0,0,0,.57.38,1.88,1.88,0,0,0,.74.14,1.63,1.63,0,0,0,1-.28,2.17,2.17,0,0,0,.36-.32v.37a.13.13,0,0,0,.13.13h.39a.13.13,0,0,0,.13-.13V65.36A.13.13,0,0,0,99.33,65.23Z" fill="#b4b7c9"/><path d="M104.12,68.41a.13.13,0,0,0-.18,0,2.14,2.14,0,0,1-.57.46,1.52,1.52,0,0,1-1.32.06,1.69,1.69,0,0,1-.49-.35,1.68,1.68,0,0,1-.46-1.19,1.69,1.69,0,0,1,.12-.64,1.82,1.82,0,0,1,.32-.52,1.54,1.54,0,0,1,.49-.34,1.46,1.46,0,0,1,.6-.12,1.31,1.31,0,0,1,.71.18,2.76,2.76,0,0,1,.57.45.1.1,0,0,0,.09,0,.11.11,0,0,0,.09,0l.28-.29a.13.13,0,0,0,0-.18c-.1-.1-.2-.2-.32-.3a2.4,2.4,0,0,0-.39-.26,2.75,2.75,0,0,0-.46-.18,2.47,2.47,0,0,0-.56-.06,2.13,2.13,0,0,0-.88.18,2.23,2.23,0,0,0-.71.5,2.51,2.51,0,0,0-.46.73,2.34,2.34,0,0,0,0,1.75,2.17,2.17,0,0,0,1.17,1.21,2,2,0,0,0,.88.19,2.05,2.05,0,0,0,1-.25,3,3,0,0,0,.75-.62.14.14,0,0,0,0-.09.13.13,0,0,0,0-.09Z" fill="#b4b7c9"/><path d="M107.49,65.23h-1.32V64.05a.13.13,0,0,0-.13-.13h-.39a.13.13,0,0,0-.13.13v1.18h-.47a.13.13,0,0,0-.13.13v.37a.13.13,0,0,0,.13.13h.47v2.56a1.35,1.35,0,0,0,.1.55,1,1,0,0,0,.28.4.93.93,0,0,0,.41.23,1.57,1.57,0,0,0,.49.07,1.48,1.48,0,0,0,.38,0,1.5,1.5,0,0,0,.34-.11.13.13,0,0,0,.08-.12V69a.13.13,0,0,0-.06-.11.13.13,0,0,0-.12,0,1.68,1.68,0,0,1-.29.1,1.09,1.09,0,0,1-.26,0,.84.84,0,0,1-.52-.15.63.63,0,0,1-.18-.52V65.86h1.32a.13.13,0,0,0,.13-.13v-.37A.13.13,0,0,0,107.49,65.23Z" fill="#b4b7c9"/><rect x="108.53" y="63.62" width="0.75" height="0.8" rx="0.13" fill="#b4b7c9"/><rect x="108.58" y="65.23" width="0.65" height="4.37" rx="0.13" fill="#b4b7c9"/><path d="M114.1,65.81a2.37,2.37,0,0,0-.71-.49,2.32,2.32,0,0,0-1.79,0,2.39,2.39,0,0,0-.72.5,2.54,2.54,0,0,0-.47.73,2.47,2.47,0,0,0,0,1.75,2.25,2.25,0,0,0,.47.72,2.2,2.2,0,0,0,.71.49,2,2,0,0,0,.89.19,2.08,2.08,0,0,0,.9-.19,2.23,2.23,0,0,0,.71-.5,2.3,2.3,0,0,0,.47-.72,2.35,2.35,0,0,0,.17-.89,2.32,2.32,0,0,0-.17-.87A2.27,2.27,0,0,0,114.1,65.81Zm-.17,2.26a1.42,1.42,0,0,1-.32.51,1.33,1.33,0,0,1-.49.35,1.62,1.62,0,0,1-1.24,0,1.8,1.8,0,0,1-.5-.35,1.69,1.69,0,0,1-.33-.53,1.73,1.73,0,0,1-.12-.66,1.85,1.85,0,0,1,.11-.63,1.82,1.82,0,0,1,.32-.52,1.8,1.8,0,0,1,.5-.35,1.66,1.66,0,0,1,1.24,0,1.46,1.46,0,0,1,.5.35,1.65,1.65,0,0,1,.33.52,1.76,1.76,0,0,1,.12.66A1.69,1.69,0,0,1,113.93,68.07Z" fill="#b4b7c9"/><path d="M119,65.65a1.73,1.73,0,0,0-.57-.38,2,2,0,0,0-.74-.13,1.7,1.7,0,0,0-1,.27,2.22,2.22,0,0,0-.36.32v-.37a.13.13,0,0,0-.13-.13h-.39a.13.13,0,0,0-.13.13v4.11a.13.13,0,0,0,.13.13h.39a.13.13,0,0,0,.13-.13V67.1a1.42,1.42,0,0,1,.1-.55,1.32,1.32,0,0,1,.27-.42,1.39,1.39,0,0,1,.41-.27,1.27,1.27,0,0,1,.52-.1,1.1,1.1,0,0,1,.87.34,1.37,1.37,0,0,1,.3.93v2.44a.13.13,0,0,0,.13.13h.4a.12.12,0,0,0,.12-.13V67a2.09,2.09,0,0,0-.11-.72A1.74,1.74,0,0,0,119,65.65Z" fill="#b4b7c9"/><path d="M125.56,67.46a1.67,1.67,0,0,0-.46-.24l-.5-.16-.42-.13a2.32,2.32,0,0,1-.35-.14.63.63,0,0,1-.21-.18.33.33,0,0,1-.07-.23.51.51,0,0,1,.2-.41A1.37,1.37,0,0,1,125,65.9a2.58,2.58,0,0,1,.58.28.12.12,0,0,0,.1,0,.16.16,0,0,0,.08-.06l.21-.33a.13.13,0,0,0,0-.17,2.76,2.76,0,0,0-.73-.36,2.37,2.37,0,0,0-1.39,0,1.45,1.45,0,0,0-.47.27,1.23,1.23,0,0,0-.31.4,1.21,1.21,0,0,0-.11.52A1,1,0,0,0,123,67a1.24,1.24,0,0,0,.37.35,2.12,2.12,0,0,0,.48.22l.51.15.41.13a1.48,1.48,0,0,1,.31.15.65.65,0,0,1,.21.19.43.43,0,0,1,.06.24.53.53,0,0,1-.23.47,1.51,1.51,0,0,1-1.35,0,2.81,2.81,0,0,1-.67-.38.12.12,0,0,0-.1,0,.14.14,0,0,0-.09,0l-.23.31a.14.14,0,0,0,0,.18,3.24,3.24,0,0,0,.82.46,2.84,2.84,0,0,0,1,.17,1.87,1.87,0,0,0,.59-.09,1.58,1.58,0,0,0,.5-.26,1.34,1.34,0,0,0,.33-.42,1.29,1.29,0,0,0,.13-.57,1,1,0,0,0-.14-.53A1.06,1.06,0,0,0,125.56,67.46Z" fill="#b4b7c9"/><path d="M130.61,65.81a2.37,2.37,0,0,0-.71-.49,2.32,2.32,0,0,0-1.79,0,2.23,2.23,0,0,0-.71.5,2.34,2.34,0,0,0-.47.73,2.34,2.34,0,0,0,0,1.75,2.17,2.17,0,0,0,1.17,1.21,2.2,2.2,0,0,0,1.79,0,2.39,2.39,0,0,0,.72-.5,2.27,2.27,0,0,0,.46-.72,2.17,2.17,0,0,0,.17-.89,2.14,2.14,0,0,0-.17-.87A2.27,2.27,0,0,0,130.61,65.81Zm-.16,2.26a1.77,1.77,0,0,1-.32.51,1.46,1.46,0,0,1-.5.35,1.61,1.61,0,0,1-1.24,0,1.8,1.8,0,0,1-.5-.35,1.69,1.69,0,0,1-.33-.53,1.73,1.73,0,0,1-.12-.66,1.64,1.64,0,0,1,.12-.63,1.46,1.46,0,0,1,.32-.52,1.61,1.61,0,0,1,.49-.35,1.66,1.66,0,0,1,1.24,0,1.46,1.46,0,0,1,.5.35,1.65,1.65,0,0,1,.33.52,1.76,1.76,0,0,1,.12.66A1.91,1.91,0,0,1,130.45,68.07Z" fill="#b4b7c9"/><path d="M134.45,63.54l-.3-.08-.36,0a1.29,1.29,0,0,0-.95.36,1.6,1.6,0,0,0-.4,1.16v.27H132a.13.13,0,0,0-.13.13v.37a.13.13,0,0,0,.13.13h.47v3.61a.13.13,0,0,0,.13.13H133a.13.13,0,0,0,.13-.13V65.86h1.31a.13.13,0,0,0,.13-.13v-.37a.13.13,0,0,0-.13-.13h-1.31V65c0-.82.4-.91.7-.91l.28,0,.3.08a.14.14,0,0,0,.11,0,.13.13,0,0,0,.06-.11v-.37A.14.14,0,0,0,134.45,63.54Z" fill="#b4b7c9"/><path d="M137.3,65.23H136V64.05a.13.13,0,0,0-.13-.13h-.4a.13.13,0,0,0-.13.13v1.18h-.46a.13.13,0,0,0-.13.13v.37a.13.13,0,0,0,.13.13h.46v2.56a1.54,1.54,0,0,0,.1.55,1.15,1.15,0,0,0,.28.4,1,1,0,0,0,.41.23,1.57,1.57,0,0,0,.49.07,1.48,1.48,0,0,0,.38,0,1.75,1.75,0,0,0,.35-.11.14.14,0,0,0,.07-.12V69a.13.13,0,0,0-.18-.12,1.68,1.68,0,0,1-.29.1,1.09,1.09,0,0,1-.26,0,.79.79,0,0,1-.51-.15.63.63,0,0,1-.18-.52V65.86h1.31a.13.13,0,0,0,.13-.13v-.37A.13.13,0,0,0,137.3,65.23Z" fill="#b4b7c9"/><path d="M144.26,65.23h-.43a.14.14,0,0,0-.12.09l-1.12,3.25-1.12-3.26a.12.12,0,0,0-.12-.09H141a.13.13,0,0,0-.13.09l-1.11,3.26-1.12-3.25a.14.14,0,0,0-.12-.09h-.45a.11.11,0,0,0-.1.06.13.13,0,0,0,0,.12l1.51,4.14a.12.12,0,0,0,.12.08H140a.13.13,0,0,0,.12-.08l1.11-3.17,1.1,3.17a.13.13,0,0,0,.12.08h.34a.11.11,0,0,0,.12-.08l1.51-4.14a.13.13,0,0,0,0-.12A.11.11,0,0,0,144.26,65.23Z" fill="#b4b7c9"/><path d="M146.89,65.17a3,3,0,0,0-.81.1,4.09,4.09,0,0,0-.7.28.14.14,0,0,0-.07.16l.15.35a.12.12,0,0,0,.07.07.14.14,0,0,0,.11,0,3.57,3.57,0,0,1,.57-.23,2.71,2.71,0,0,1,.66-.08,1.34,1.34,0,0,1,.91.28,1,1,0,0,1,.31.84h0a3.4,3.4,0,0,0-.46-.09,4.45,4.45,0,0,0-.77,0,3.07,3.07,0,0,0-.77.09,1.75,1.75,0,0,0-.6.28,1.39,1.39,0,0,0-.41.46,1.36,1.36,0,0,0-.15.65,1.28,1.28,0,0,0,.16.63,1.56,1.56,0,0,0,.41.44,1.5,1.5,0,0,0,.54.26,2.15,2.15,0,0,0,.61.09,2.07,2.07,0,0,0,.57-.08,2.19,2.19,0,0,0,.47-.18,2.07,2.07,0,0,0,.37-.27l0,0v.34a.13.13,0,0,0,.13.13h.39a.13.13,0,0,0,.13-.13V66.91a1.7,1.7,0,0,0-.46-1.25A1.86,1.86,0,0,0,146.89,65.17Zm1.21,2.76a1,1,0,0,1-.11.45,1.16,1.16,0,0,1-.3.36,1.42,1.42,0,0,1-.46.23,1.68,1.68,0,0,1-1,0,1.07,1.07,0,0,1-.34-.16.9.9,0,0,1-.23-.25.75.75,0,0,1-.08-.35.7.7,0,0,1,.3-.59,1.52,1.52,0,0,1,.93-.24,4.34,4.34,0,0,1,.76.06l.5.1Z" fill="#b4b7c9"/><path d="M152.24,65.17a2.15,2.15,0,0,0-.62.08,1.88,1.88,0,0,0-.55.27,3,3,0,0,0-.45.42.86.86,0,0,1-.07.1v-.68a.13.13,0,0,0-.13-.13H150a.13.13,0,0,0-.13.13v4.11a.13.13,0,0,0,.13.13h.39a.13.13,0,0,0,.13-.13V67.79a2.38,2.38,0,0,1,.14-.84,1.78,1.78,0,0,1,.36-.6,1.52,1.52,0,0,1,.52-.36,1.69,1.69,0,0,1,.63-.13h0a.13.13,0,0,0,.13-.13V65.3A.13.13,0,0,0,152.24,65.17Z" fill="#b4b7c9"/><path d="M156.79,66.53a2.24,2.24,0,0,0-.4-.73,1.89,1.89,0,0,0-.64-.48,2,2,0,0,0-1.66,0,1.9,1.9,0,0,0-.66.49,2.28,2.28,0,0,0-.44.72,2.57,2.57,0,0,0-.15.9,2.29,2.29,0,0,0,.17.92,2.09,2.09,0,0,0,.47.72,2,2,0,0,0,.68.47,2.3,2.3,0,0,0,.82.16,2.16,2.16,0,0,0,1.06-.24,3.16,3.16,0,0,0,.74-.58.13.13,0,0,0,0-.1.16.16,0,0,0,0-.09l-.27-.24a.13.13,0,0,0-.18,0,2.38,2.38,0,0,1-.56.43,1.61,1.61,0,0,1-.76.17,1.4,1.4,0,0,1-.54-.1,1.2,1.2,0,0,1-.45-.29,1.5,1.5,0,0,1-.34-.47,1.47,1.47,0,0,1-.14-.49h3.26a.13.13,0,0,0,.13-.11.38.38,0,0,0,0-.1v-.08A2.81,2.81,0,0,0,156.79,66.53Zm-3.26.57a1.51,1.51,0,0,1,.13-.46,1.72,1.72,0,0,1,.3-.47,1.25,1.25,0,0,1,.42-.3,1.33,1.33,0,0,1,1.09,0,1.26,1.26,0,0,1,.4.32,1.43,1.43,0,0,1,.26.47,1.94,1.94,0,0,1,.11.43Z" fill="#b4b7c9"/><path d="M19.87,34.88a3.47,3.47,0,1,0-4.46,2,3.47,3.47,0,0,0,4.46-2ZM15.75,36h0a2.5,2.5,0,0,1-1.41-1.3,2.52,2.52,0,0,1,1-3.23l.19-.1A2.51,2.51,0,0,1,19,34.55,2.55,2.55,0,0,1,17.66,36,2.48,2.48,0,0,1,15.75,36Z" fill="#b4b7c9"/><path d="M80.89,59.77a11.79,11.79,0,0,0,8.81-3.94,29.12,29.12,0,0,0,13.51,3.31,29.81,29.81,0,0,0,5.54-.53h0l.36-.08h0a29.29,29.29,0,0,0,21.36-39.83l0-.05-.23-.53c-.09-.22-.2-.44-.3-.67a2.56,2.56,0,0,1-.11-.24A29.37,29.37,0,0,0,97.74,1h-.09A29.21,29.21,0,0,0,83.81,7.87Q83.23,8.4,82.67,9l-.18.17h0l-.14.16a29.16,29.16,0,0,0-8.25,18h.07l-.06.79h0a3.28,3.28,0,1,0,6.55.38h0A22.77,22.77,0,0,1,97.32,7.87a23.12,23.12,0,0,1,8.15-.66,4.2,4.2,0,0,1-1.27,8.26,14.18,14.18,0,0,0-3.7.26q-.39.07-.78.18h0a14.36,14.36,0,1,0,16,21h0A2,2,0,0,0,116,36a1.94,1.94,0,0,0-1.76-2h-1.66a4.2,4.2,0,0,1,0-8.39h9.23a3.28,3.28,0,0,1,.47,0h0l.33,0a4.17,4.17,0,0,1,3.4,4.09h0c0,.13,0,.25,0,.38a22.75,22.75,0,0,1-33.4,19.74,11.82,11.82,0,1,0-11.66,9.84Zm0-17.56a5.74,5.74,0,1,1-5.56,5.73A5.65,5.65,0,0,1,80.89,42.21Z" fill="#b4b7c9"/><path d="M42.53,51.32V39.63a2.8,2.8,0,0,0-2.81-2.8h-.25a2.8,2.8,0,0,0-2.7,2.08,11.83,11.83,0,1,0,0,19.17,7,7,0,0,1-1,3.45,6.79,6.79,0,0,1-9.26,2.54A6.44,6.44,0,0,1,24,61.36l0,0,0-.1a2.87,2.87,0,1,0-5,2.81,12.56,12.56,0,0,0,23.58-6.9ZM30.26,54.13a5.65,5.65,0,1,1,5.59-5.64A5.62,5.62,0,0,1,30.26,54.13Z" fill="#b4b7c9"/><path d="M67.63,46.33a11.82,11.82,0,1,0-3.74,11l0,0,.19-.17h0a1.71,1.71,0,0,0,.2-.18,2.78,2.78,0,0,0,0-3.94A2.68,2.68,0,0,0,61,52.69l0,0-.16.12h0l-.15.11h0l0,0-.39.34a6.08,6.08,0,0,1-3,1.53,6.34,6.34,0,0,1-7.12-4.31h14.7c3-.25,2.94-3.23,2.86-4.11C67.64,46.41,67.64,46.37,67.63,46.33Zm-17.38-.46a6.19,6.19,0,0,1,4.59-3.74,6.32,6.32,0,0,1,6.9,3.74Z" fill="#b4b7c9"/></svg>