<svg id="a468e719-f3b2-4044-8def-5fde2fd7d114" data-name="Layer 1" xmlns="http://www.w3.org/2000/svg" viewBox="0 0 170.08 71.16"><path d="M13.27,16.56c7-1.84,13.84-1.08,20.56,1.28,3.84,1.35,7.6,2.93,11.49,4.1a17.89,17.89,0,0,0,9.71.48c1.15-.3,1.61-1,1.3-1.88A30,30,0,0,0,41.44,6.87a1.28,1.28,0,0,0-.64.5A6.74,6.74,0,0,1,34.36,10c-2.55-.33-5.08-.83-7.61-1.35a29.68,29.68,0,0,0-9-.9c-.56.06-1.14.13-1.73.22a30,30,0,0,0-12.22,12,11.68,11.68,0,0,0,1.68-.37A76.94,76.94,0,0,1,13.27,16.56Z" fill="#b4b7c9"/><path d="M59.19,28.65c-.51.61-1.16,1.47-1.31,1.65a12.42,12.42,0,0,1-10,4.08A54.49,54.49,0,0,1,34,31.76c-2.7-.78-5.33-1.79-8-2.48a31,31,0,0,0-13.84-.76,28.33,28.33,0,0,0-9.68,3.54,9.92,9.92,0,0,0-2.48,2v.37a29.77,29.77,0,0,0,.9,7.29c1.53-.19,3.13-.44,3.51-.5A25.23,25.23,0,0,1,18.19,42.3c4.8,1.86,9.47,4.05,14.13,6.24,4.5,2.1,9,4.17,13.88,5.23,2.37.51,4.7.73,6.55-.15a29.75,29.75,0,0,0,7-19.2A30.35,30.35,0,0,0,59.19,28.65Z" fill="#b4b7c9"/><path d="M23.24,57.08c-2.93-.23-5.92-.7-8.8.47-.33.14-.65.33-1,.49a1.8,1.8,0,0,0-.78.81A29.87,29.87,0,0,0,44.6,60.41,105.49,105.49,0,0,0,33.33,58.3C30,57.86,26.62,57.35,23.24,57.08Z" fill="#b4b7c9"/><path d="M80.61,30.83c0,.22,0,.42,0,.58a1.61,1.61,0,0,1-.09.39.38.38,0,0,1-.12.2.28.28,0,0,1-.18.06,1.07,1.07,0,0,1-.49-.21,7.48,7.48,0,0,0-.9-.45A8.56,8.56,0,0,0,77.48,31a6.84,6.84,0,0,0-1.8-.21,5,5,0,0,0-2,.37,4.32,4.32,0,0,0-1.51,1.07,4.83,4.83,0,0,0-1,1.67A6.58,6.58,0,0,0,70.89,36a6.81,6.81,0,0,0,.35,2.27,4.61,4.61,0,0,0,1,1.65,4,4,0,0,0,1.48,1,5.32,5.32,0,0,0,1.91.34,4.29,4.29,0,0,0,1-.12,3.44,3.44,0,0,0,.93-.35V37.29H74.68c-.14,0-.24-.08-.32-.26a2.31,2.31,0,0,1-.12-.89,4.06,4.06,0,0,1,0-.54,1.34,1.34,0,0,1,.09-.36.51.51,0,0,1,.14-.2.28.28,0,0,1,.18-.06h5.09a.88.88,0,0,1,.33.06.79.79,0,0,1,.25.2.74.74,0,0,1,.17.3,1.33,1.33,0,0,1,.06.42v6a1.41,1.41,0,0,1-.12.61A.86.86,0,0,1,80,43c-.25.1-.57.2-.94.31s-.76.2-1.16.28a9.63,9.63,0,0,1-1.2.17q-.61.06-1.23.06a9.56,9.56,0,0,1-3.23-.51,6.66,6.66,0,0,1-2.41-1.5,6.59,6.59,0,0,1-1.51-2.4,9.14,9.14,0,0,1-.53-3.2,9.32,9.32,0,0,1,.56-3.32,6.78,6.78,0,0,1,4-4.08,9.24,9.24,0,0,1,3.23-.54,10.77,10.77,0,0,1,1.78.13,9.68,9.68,0,0,1,1.4.33,5,5,0,0,1,1,.41,2.78,2.78,0,0,1,.55.38.94.94,0,0,1,.22.46A3.92,3.92,0,0,1,80.61,30.83Z" fill="#b4b7c9"/><path d="M85.88,43.14a.31.31,0,0,1-.07.21.66.66,0,0,1-.24.14,2,2,0,0,1-.45.09,6.75,6.75,0,0,1-.71,0,7,7,0,0,1-.71,0,2,2,0,0,1-.44-.09.58.58,0,0,1-.24-.14.31.31,0,0,1-.07-.21V27.85a.35.35,0,0,1,.07-.21.5.5,0,0,1,.24-.15,1.51,1.51,0,0,1,.44-.1,4.78,4.78,0,0,1,.71,0,4.61,4.61,0,0,1,.71,0,1.51,1.51,0,0,1,.45.1.55.55,0,0,1,.24.15.35.35,0,0,1,.07.21Z" fill="#b4b7c9"/><path d="M98.69,37.85a8,8,0,0,1-.35,2.42,4.9,4.9,0,0,1-1.06,1.88,4.53,4.53,0,0,1-1.78,1.22,6.58,6.58,0,0,1-2.5.43,6.72,6.72,0,0,1-2.4-.38,4.22,4.22,0,0,1-1.7-1.12,4.5,4.5,0,0,1-1-1.8,8.23,8.23,0,0,1-.33-2.44,7.73,7.73,0,0,1,.36-2.42A5.21,5.21,0,0,1,89,33.75a4.77,4.77,0,0,1,1.78-1.21,6.52,6.52,0,0,1,2.49-.43,6.79,6.79,0,0,1,2.42.38,4.23,4.23,0,0,1,1.69,1.11,4.44,4.44,0,0,1,1,1.8A8.3,8.3,0,0,1,98.69,37.85Zm-3,.12a7.72,7.72,0,0,0-.12-1.41,3.45,3.45,0,0,0-.42-1.13,2.1,2.1,0,0,0-.77-.74,2.46,2.46,0,0,0-1.21-.27,2.52,2.52,0,0,0-1.14.24,2,2,0,0,0-.81.7,3.35,3.35,0,0,0-.47,1.1,6.52,6.52,0,0,0-.15,1.47,7.83,7.83,0,0,0,.12,1.42,3.62,3.62,0,0,0,.42,1.12,2,2,0,0,0,.77.74,2.91,2.91,0,0,0,2.36,0,2.05,2.05,0,0,0,.8-.69,3.15,3.15,0,0,0,.47-1.1A6.52,6.52,0,0,0,95.68,38Z" fill="#b4b7c9"/><path d="M110.85,37.82a9.42,9.42,0,0,1-.3,2.48,5.9,5.9,0,0,1-.88,1.89,3.84,3.84,0,0,1-1.4,1.2,4.11,4.11,0,0,1-1.89.41,5,5,0,0,1-1-.09,4,4,0,0,1-.87-.32,5.12,5.12,0,0,1-.81-.56,7.92,7.92,0,0,1-.82-.82v1.13a.32.32,0,0,1-.07.22.43.43,0,0,1-.21.14,1.15,1.15,0,0,1-.39.08,4.91,4.91,0,0,1-.59,0,5,5,0,0,1-.6,0,1.2,1.2,0,0,1-.38-.08.36.36,0,0,1-.2-.14.38.38,0,0,1-.06-.22V27.85a.35.35,0,0,1,.07-.21.45.45,0,0,1,.24-.15,1.51,1.51,0,0,1,.44-.1,4.78,4.78,0,0,1,.71,0,4.61,4.61,0,0,1,.71,0,1.51,1.51,0,0,1,.45.1.55.55,0,0,1,.24.15.44.44,0,0,1,.07.21v5.73a6,6,0,0,1,.79-.67,4.61,4.61,0,0,1,.79-.46,3.33,3.33,0,0,1,.81-.26,5.08,5.08,0,0,1,.89-.08,3.83,3.83,0,0,1,1.95.46,3.79,3.79,0,0,1,1.31,1.24,5.43,5.43,0,0,1,.74,1.82A10.28,10.28,0,0,1,110.85,37.82Zm-3,.21a8.77,8.77,0,0,0-.09-1.28,3.64,3.64,0,0,0-.35-1.1,2.14,2.14,0,0,0-.63-.76,1.62,1.62,0,0,0-1-.28,1.79,1.79,0,0,0-.57.08,2,2,0,0,0-.58.28,3.83,3.83,0,0,0-.61.51,7,7,0,0,0-.66.78V39.7a5.85,5.85,0,0,0,1.18,1.2,1.94,1.94,0,0,0,1.18.42,1.59,1.59,0,0,0,1-.29,2.32,2.32,0,0,0,.66-.76,3.69,3.69,0,0,0,.38-1.06A5.89,5.89,0,0,0,107.81,38Z" fill="#b4b7c9"/><path d="M121.43,43.18a.29.29,0,0,1-.12.25.87.87,0,0,1-.37.14,6,6,0,0,1-.73,0,6.43,6.43,0,0,1-.77,0,.68.68,0,0,1-.33-.14.3.3,0,0,1-.1-.25v-.83a4.59,4.59,0,0,1-1.46,1.07,4.18,4.18,0,0,1-1.82.38,5.22,5.22,0,0,1-1.52-.21A3.46,3.46,0,0,1,113,43a3,3,0,0,1-.78-1.05,3.54,3.54,0,0,1-.28-1.47,3.25,3.25,0,0,1,.36-1.57,2.79,2.79,0,0,1,1-1.11,5.37,5.37,0,0,1,1.75-.64,12.5,12.5,0,0,1,2.43-.21h1v-.63a3.48,3.48,0,0,0-.1-.85,1.44,1.44,0,0,0-.33-.61,1.31,1.31,0,0,0-.6-.37,3.62,3.62,0,0,0-.94-.11,4.8,4.8,0,0,0-1.31.16,8.56,8.56,0,0,0-1,.36c-.29.13-.54.25-.73.36a1.1,1.1,0,0,1-.49.17.31.31,0,0,1-.22-.09.6.6,0,0,1-.17-.23,1.54,1.54,0,0,1-.09-.37,2.49,2.49,0,0,1,0-.49,2.16,2.16,0,0,1,.06-.57.92.92,0,0,1,.22-.38,2.43,2.43,0,0,1,.57-.37,8.15,8.15,0,0,1,.95-.38,9.46,9.46,0,0,1,1.19-.28,7.35,7.35,0,0,1,1.34-.11,7.82,7.82,0,0,1,2.08.24,3.52,3.52,0,0,1,1.43.73,2.84,2.84,0,0,1,.81,1.27,6,6,0,0,1,.26,1.85Zm-2.87-4.44h-1.12a6,6,0,0,0-1.21.1,2.32,2.32,0,0,0-.81.31,1.24,1.24,0,0,0-.46.51,1.48,1.48,0,0,0-.15.68,1.33,1.33,0,0,0,.41,1,1.66,1.66,0,0,0,1.15.37,2.11,2.11,0,0,0,1.13-.31,4.55,4.55,0,0,0,1.06-.92Z" fill="#b4b7c9"/><path d="M126.68,43.14a.31.31,0,0,1-.07.21.66.66,0,0,1-.24.14,2,2,0,0,1-.45.09,6.67,6.67,0,0,1-.7,0,6.75,6.75,0,0,1-.71,0,2,2,0,0,1-.45-.09.66.66,0,0,1-.24-.14.31.31,0,0,1-.07-.21V27.85a.35.35,0,0,1,.07-.21.55.55,0,0,1,.24-.15,1.51,1.51,0,0,1,.45-.1,4.61,4.61,0,0,1,.71,0,4.55,4.55,0,0,1,.7,0,1.51,1.51,0,0,1,.45.1.55.55,0,0,1,.24.15.35.35,0,0,1,.07.21Z" fill="#b4b7c9"/><path d="M140.55,41.12c0,.21,0,.38,0,.52a1.68,1.68,0,0,1-.06.37,1,1,0,0,1-.1.27,1.18,1.18,0,0,1-.19.25,2.87,2.87,0,0,1-.53.36,6,6,0,0,1-.94.43,8.78,8.78,0,0,1-1.28.33,8.43,8.43,0,0,1-1.55.14,8.3,8.3,0,0,1-2.95-.5,5.81,5.81,0,0,1-2.24-1.51,6.71,6.71,0,0,1-1.42-2.5,11.49,11.49,0,0,1-.49-3.49,11,11,0,0,1,.54-3.6,7.55,7.55,0,0,1,1.52-2.65,6.32,6.32,0,0,1,2.32-1.62,7.89,7.89,0,0,1,3-.55,6.7,6.7,0,0,1,1.28.11,7.17,7.17,0,0,1,1.13.29,5.43,5.43,0,0,1,.94.41,2.65,2.65,0,0,1,.59.4,1.36,1.36,0,0,1,.22.27.76.76,0,0,1,.1.29,2.12,2.12,0,0,1,.06.4c0,.16,0,.35,0,.58a5.53,5.53,0,0,1,0,.63,1.49,1.49,0,0,1-.08.42.57.57,0,0,1-.15.23.29.29,0,0,1-.2.07.83.83,0,0,1-.46-.21,7.42,7.42,0,0,0-.74-.48,5.35,5.35,0,0,0-1.07-.48,4.57,4.57,0,0,0-1.48-.22,3.6,3.6,0,0,0-1.69.39,3.7,3.7,0,0,0-1.26,1.11,5.17,5.17,0,0,0-.8,1.74,9,9,0,0,0-.27,2.3,9.06,9.06,0,0,0,.29,2.42,4.53,4.53,0,0,0,.83,1.69,3.12,3.12,0,0,0,1.29,1,4.19,4.19,0,0,0,1.7.33,5.07,5.07,0,0,0,1.49-.2,7.34,7.34,0,0,0,1.07-.45,7.87,7.87,0,0,0,.74-.45.88.88,0,0,1,.45-.19.27.27,0,0,1,.19.05.42.42,0,0,1,.13.19,1.81,1.81,0,0,1,.07.42A6.41,6.41,0,0,1,140.55,41.12Z" fill="#b4b7c9"/><path d="M155.27,42.33a3.59,3.59,0,0,1,.18.7.39.39,0,0,1-.09.38.77.77,0,0,1-.48.16c-.23,0-.55,0-.95,0h-1a2.6,2.6,0,0,1-.53-.08.44.44,0,0,1-.26-.15.79.79,0,0,1-.12-.26L151,39.91h-6L144,43a1.22,1.22,0,0,1-.13.28.59.59,0,0,1-.26.19,2.37,2.37,0,0,1-.51.09c-.21,0-.5,0-.85,0s-.67,0-.88,0a.73.73,0,0,1-.45-.18.47.47,0,0,1-.08-.4,3.53,3.53,0,0,1,.18-.69l4.91-14.11a1.2,1.2,0,0,1,.17-.34.59.59,0,0,1,.31-.19,2.11,2.11,0,0,1,.6-.09l1,0,1.15,0a2.64,2.64,0,0,1,.67.09.56.56,0,0,1,.34.2,1.16,1.16,0,0,1,.18.37ZM148,30.66h0l-2.25,6.76h4.51Z" fill="#b4b7c9"/><path d="M170.08,35.35a10.94,10.94,0,0,1-.57,3.74,6.46,6.46,0,0,1-1.64,2.54,6.73,6.73,0,0,1-2.6,1.44,12.66,12.66,0,0,1-3.65.46h-3.8a1,1,0,0,1-.68-.24,1,1,0,0,1-.27-.78V28.65a1,1,0,0,1,.27-.79,1.05,1.05,0,0,1,.68-.23h4.08a11.5,11.5,0,0,1,3.61.49A6.7,6.7,0,0,1,168,29.6,6.4,6.4,0,0,1,169.55,32,9.71,9.71,0,0,1,170.08,35.35Zm-3.34.11a7.86,7.86,0,0,0-.27-2.11,4.52,4.52,0,0,0-.85-1.68,3.83,3.83,0,0,0-1.5-1.11,6,6,0,0,0-2.4-.4h-1.63V41h1.68a6.38,6.38,0,0,0,2.24-.35,3.66,3.66,0,0,0,1.51-1,4.4,4.4,0,0,0,.91-1.73A8.22,8.22,0,0,0,166.74,35.46Z" fill="#b4b7c9"/></svg>