<svg id="a5ba677c-efee-44bd-8eb5-a7fadeba42c7" data-name="Layer 1" xmlns="http://www.w3.org/2000/svg" viewBox="0 0 170.08 71.16"><path d="M1.65,20.79q0-2.22-.15-3.84h.09L6.8,30.56H8.23L13.49,17h.08c-.1,1.33-.15,2.56-.15,3.7v9.89h1.79V15.2H12.54L7.64,27.87H7.55L2.69,15.2H0V30.56H1.65Z" fill="#b4b7c9"/><path d="M25.18,15A6.69,6.69,0,0,0,19.93,17a8.41,8.41,0,0,0-1.85,5.81,8.54,8.54,0,0,0,1.85,5.86,6.64,6.64,0,0,0,5.23,2.07,6.56,6.56,0,0,0,5.19-2.11,8.47,8.47,0,0,0,1.86-5.8,8.46,8.46,0,0,0-1.86-5.8A6.54,6.54,0,0,0,25.18,15ZM29,27.6a4.69,4.69,0,0,1-3.86,1.61,4.72,4.72,0,0,1-3.86-1.62A7.31,7.31,0,0,1,20,22.86a7.26,7.26,0,0,1,1.33-4.69,4.76,4.76,0,0,1,3.88-1.61A4.63,4.63,0,0,1,29,18.16a7.31,7.31,0,0,1,1.3,4.7A7.38,7.38,0,0,1,29,27.6Z" fill="#b4b7c9"/><path d="M44.34,29.4a3.94,3.94,0,0,0,1.4-3.21c0-2.05-1.17-3.28-3.5-3.67v-.11a3.71,3.71,0,0,0,2.22-1.15A3.31,3.31,0,0,0,45.22,19a3.22,3.22,0,0,0-1.36-2.89,8.2,8.2,0,0,0-4.43-.92H35.1V30.56h5.35A5.85,5.85,0,0,0,44.34,29.4ZM36.88,16.75h2.63a5.81,5.81,0,0,1,2.94.57,2,2,0,0,1,.92,1.87,2.29,2.29,0,0,1-.83,2,4.83,4.83,0,0,1-2.72.59H36.88Zm0,12.29V23.29h3.06a5.18,5.18,0,0,1,2.92.67,2.4,2.4,0,0,1,1,2.11,2.67,2.67,0,0,1-.94,2.25,4.57,4.57,0,0,1-2.8.72Z" fill="#b4b7c9"/><rect x="48.5" y="15.2" width="1.79" height="15.36" fill="#b4b7c9"/><polygon points="62.52 28.94 55.74 28.94 55.74 15.21 53.96 15.21 53.96 30.56 62.52 30.56 62.52 28.94" fill="#b4b7c9"/><polygon points="73.14 28.96 66.37 28.96 66.37 23.31 72.73 23.31 72.73 21.74 66.37 21.74 66.37 16.79 73.14 16.79 73.14 15.21 64.58 15.21 64.58 30.56 73.14 30.56 73.14 28.96" fill="#b4b7c9"/><polygon points="12.74 44.08 4 44.08 4 36.08 0.52 36.08 0.52 55.93 4 55.93 4 47.11 12.74 47.11 12.74 55.93 16.23 55.93 16.23 36.08 12.74 36.08 12.74 44.08" fill="#b4b7c9"/><polygon points="20.42 55.93 31.77 55.93 31.77 52.93 23.9 52.93 23.9 47.07 31.27 47.07 31.27 44.11 23.9 44.11 23.9 39.07 31.77 39.07 31.77 36.08 20.42 36.08 20.42 55.93" fill="#b4b7c9"/><path d="M43.48,36H39.81L32.45,55.73l-.07.2h3.68L38,50.49h7.28l2,5.44h3.71L43.52,36.09Zm-1.84,3.48c.09.31.2.69.34,1.14.24.77.43,1.34.56,1.7l1.77,5.13H39l1.7-4.91C41.09,41.46,41.41,40.43,41.64,39.48Z" fill="#b4b7c9"/><polygon points="55.94 36.08 52.46 36.08 52.46 55.93 64.22 55.93 64.22 52.9 55.94 52.9 55.94 36.08" fill="#b4b7c9"/><polygon points="64.43 39.11 70.19 39.11 70.19 55.93 73.67 55.93 73.67 39.11 79.42 39.11 79.42 36.08 64.43 36.08 64.43 39.11" fill="#b4b7c9"/><polygon points="93.67 44.08 84.93 44.08 84.93 36.08 81.45 36.08 81.45 55.93 84.93 55.93 84.93 47.11 93.67 47.11 93.67 55.93 97.16 55.93 97.16 36.08 93.67 36.08 93.67 44.08" fill="#b4b7c9"/><path d="M118.62,52.94a11.55,11.55,0,0,1-2.37.24A5.25,5.25,0,0,1,112,51.39,8.31,8.31,0,0,1,110.47,46a8.22,8.22,0,0,1,1.55-5.3,5.14,5.14,0,0,1,4.23-1.91,7.43,7.43,0,0,1,2.27.35,17.65,17.65,0,0,1,2.08.82l.13.06L122,37.13l-.13-.06a12.54,12.54,0,0,0-5.6-1.27,10,10,0,0,0-5,1.23A8.19,8.19,0,0,0,108,40.6a12.26,12.26,0,0,0-1.13,5.4c0,3.25.78,5.79,2.33,7.54a8.52,8.52,0,0,0,6.71,2.65,14.79,14.79,0,0,0,5.27-.88l.09,0v-3l-.19,0C120.2,52.56,119.39,52.77,118.62,52.94Z" fill="#b4b7c9"/><path d="M132.92,36h-3.68l-7.35,19.73-.07.2h3.68l1.91-5.44h7.28l1.95,5.44h3.71L133,36.09Zm-1.84,3.48c.09.31.2.69.34,1.14.24.77.43,1.34.56,1.7l1.77,5.13h-5.3l1.7-4.91C130.53,41.46,130.85,40.43,131.08,39.48Z" fill="#b4b7c9"/><path d="M155.13,41.92a5.26,5.26,0,0,0-1.87-4.39c-1.23-1-3.15-1.45-5.69-1.45H141.9V55.93h3.48V48.11h2.94L153,55.93h4l-5.58-8.74A5.45,5.45,0,0,0,155.13,41.92Zm-9.75-2.85h2a5.9,5.9,0,0,1,3.19.69,2.52,2.52,0,0,1,1,2.27,2.88,2.88,0,0,1-.95,2.35,5,5,0,0,1-3.15.8h-2.08Z" fill="#b4b7c9"/><polygon points="170.08 39.07 170.08 36.08 158.73 36.08 158.73 55.93 170.08 55.93 170.08 52.93 162.21 52.93 162.21 47.07 169.58 47.07 169.58 44.11 162.21 44.11 162.21 39.07 170.08 39.07" fill="#b4b7c9"/></svg>