<svg id="a0df0785-ef58-476d-90ef-8493f655c597" data-name="Layer 1" xmlns="http://www.w3.org/2000/svg" xmlns:xlink="http://www.w3.org/1999/xlink" viewBox="0 0 170.08 71.16"><defs><radialGradient id="e2dc8c8c-a11f-40d5-bc25-a3f4b462e27b" cx="27.76" cy="35.58" r="27.73" gradientUnits="userSpaceOnUse"><stop offset="0.12" stop-color="#b4b7c9"/><stop offset="0.5" stop-color="#b4b7c9"/><stop offset="0.51" stop-color="#b4b7c9"/><stop offset="0.55" stop-color="#c6c9d6"/><stop offset="0.65" stop-color="#eff0f4"/><stop offset="0.7" stop-color="#fff"/><stop offset="0.76" stop-color="#dedfe7"/><stop offset="0.83" stop-color="#bfc2d1"/><stop offset="0.87" stop-color="#b4b7c9"/></radialGradient><linearGradient id="efed7b3b-148d-4a9c-8d62-dad7f8aa97dc" x1="27.8" y1="14.92" x2="27.61" y2="34.68" gradientUnits="userSpaceOnUse"><stop offset="0.04" stop-color="#b4b7c9"/><stop offset="0.1" stop-color="#babdce"/><stop offset="0.45" stop-color="#e0e1e8"/><stop offset="0.74" stop-color="#f7f7f9"/><stop offset="0.92" stop-color="#fff"/></linearGradient><linearGradient id="a72d4874-ef74-45ae-9b1a-0fc2166576f4" x1="27.64" y1="60.17" x2="27.92" y2="39.31" gradientUnits="userSpaceOnUse"><stop offset="0.19" stop-color="#b4b7c9"/><stop offset="0.49" stop-color="#d4d6e0"/><stop offset="0.92" stop-color="#fff"/></linearGradient><linearGradient id="edc150ab-a306-4491-b283-988c3f176c2e" x1="50.26" y1="35.51" x2="34.39" y2="35.68" gradientUnits="userSpaceOnUse"><stop offset="0.14" stop-color="#b4b7c9"/><stop offset="0.21" stop-color="#bbbece"/><stop offset="0.92" stop-color="#fff"/></linearGradient><linearGradient id="eec5c6cc-b0e6-4a6e-aa7e-a64452339a9b" x1="4.51" y1="35.58" x2="21.11" y2="35.58" xlink:href="#edc150ab-a306-4491-b283-988c3f176c2e"/><linearGradient id="acc826ad-a882-47a6-b64a-f6ca7b32f946" x1="42.04" y1="49.98" x2="32.21" y2="39.75" gradientUnits="userSpaceOnUse"><stop offset="0" stop-color="#b4b7c9"/><stop offset="0.33" stop-color="#b4b7c9"/><stop offset="0.63" stop-color="#d7d9e2"/><stop offset="1" stop-color="#fff"/></linearGradient><linearGradient id="f8aeb6e6-cffb-4495-ad3f-bd01680eb6a0" x1="13.23" y1="21.01" x2="23.58" y2="31.5" xlink:href="#acc826ad-a882-47a6-b64a-f6ca7b32f946"/><linearGradient id="f3f7e825-5609-48c0-bbe5-d3e55232aaae" x1="43.78" y1="19.56" x2="30.34" y2="32.98" gradientUnits="userSpaceOnUse"><stop offset="0.01" stop-color="#b4b7c9"/><stop offset="0.23" stop-color="#c0c3d2"/><stop offset="0.62" stop-color="#e1e2e9"/><stop offset="0.92" stop-color="#fff"/></linearGradient><linearGradient id="fa7a0c11-adff-4563-9ef5-cdd357537aa9" x1="10.75" y1="52.51" x2="27.74" y2="35.72" xlink:href="#f3f7e825-5609-48c0-bbe5-d3e55232aaae"/></defs><path d="M42.25,58.79l.3.24a10,10,0,0,0,4.54-4.24,9.94,9.94,0,0,0,4.22-4.61l-.25-.3A17.68,17.68,0,0,1,54.4,41.7l.39,0a9.74,9.74,0,0,0,.29-5.88,10.08,10.08,0,0,0-.2-6.51l-.39,0a17.81,17.81,0,0,1-2.23-3.86,18.51,18.51,0,0,1-1.2-4.29l.25-.3a10,10,0,0,0-4.44-4.65A9.86,9.86,0,0,0,42.3,12l-.3.26a17.63,17.63,0,0,1-4.31-1.16,17.59,17.59,0,0,1-3.88-2.18l0-.39a9.8,9.8,0,0,0-6.24-.2,9.9,9.9,0,0,0-6.21.26l0,.4a17.77,17.77,0,0,1-3.86,2.22,17.58,17.58,0,0,1-4.29,1.2l-.3-.25A9.92,9.92,0,0,0,8.3,16.37,9.89,9.89,0,0,0,4.08,21l.25.3a17.66,17.66,0,0,1-1.15,4.3A17.62,17.62,0,0,1,1,29.46l-.39,0a10.08,10.08,0,0,0-.1,6.59A9.74,9.74,0,0,0,.83,42l.39,0a17.41,17.41,0,0,1,2.23,3.86,17.58,17.58,0,0,1,1.2,4.29l-.25.3a9.79,9.79,0,0,0,4.06,4.42,9.9,9.9,0,0,0,4.63,4.27l.3-.25a18.07,18.07,0,0,1,8.19,3.34l0,.39a9.94,9.94,0,0,0,6.24.2,9.9,9.9,0,0,0,6.21-.27l0-.39A17.77,17.77,0,0,1,38,60,17.58,17.58,0,0,1,42.25,58.79ZM27.69,35.41l.21.08-.08.21-.11,0-.12-.29Z" fill="url(#e2dc8c8c-a11f-40d5-bc25-a3f4b462e27b)"/><path d="M28.38,13.14H27.12a2.22,2.22,0,0,0-2.42,1.93V25.62a7.53,7.53,0,0,0,.62,2.51c.26.6.79,1.6,1.51,1.65l0,0h0a4.2,4.2,0,0,1,1.73,0h0v0c.73-.05,1.26-1.05,1.52-1.65a7.47,7.47,0,0,0,.61-2.51V15.07A2.21,2.21,0,0,0,28.38,13.14Z" fill="#fff"/><path d="M31,25.62c0,1.05-.88,4.36-2.39,4.36h-.06l0-.07a4.22,4.22,0,0,0-1.53,0L27,30h-.06c-1.51,0-2.38-3.31-2.38-4.36V15.07a2.41,2.41,0,0,1,2.61-2.13h1.26A2.42,2.42,0,0,1,31,15.07Z" fill="#fff"/><path d="M28.46,12.33H27.05c-1.55,0-2.81.9-2.81,2V24.77c0,1.12,1.26,4.17,2.81,4.17l0-.05a2.52,2.52,0,0,1,.67-.09,2.59,2.59,0,0,1,.68.09l0,.05c1.55,0,2.81-3.05,2.81-4.17V14.35C31.27,13.23,30,12.33,28.46,12.33Z" fill="url(#efed7b3b-148d-4a9c-8d62-dad7f8aa97dc)"/><path d="M28.61,30.17h-.06l0-.06a3.7,3.7,0,0,0-1.53,0l0,.06h-.06c-1.51,0-2.38-3.34-2.38-4.41V15.1a2.42,2.42,0,0,1,2.61-2.16h1.26A2.43,2.43,0,0,1,31,15.1V25.76C31,26.83,30.12,30.17,28.61,30.17Zm-.86-.33a4.43,4.43,0,0,1,.87.09h0v0c.73-.06,1.26-1.06,1.52-1.67a7.65,7.65,0,0,0,.61-2.55V15.1a2.23,2.23,0,0,0-2.42-2H27.12a2.23,2.23,0,0,0-2.42,2V25.76a7.71,7.71,0,0,0,.62,2.55c.26.61.79,1.61,1.51,1.67l0,0h0A4.41,4.41,0,0,1,27.75,29.84Z" fill="#b4b7c9"/><path d="M28.23,29.11a1.91,1.91,0,0,0-.48-.06,1.84,1.84,0,0,0-.47.06l0,0v2.07l0,0a1.84,1.84,0,0,0,.47.06,1.91,1.91,0,0,0,.48-.06V29.11Z" fill="#fff"/><path d="M28.46,31.41l0,.06a3.08,3.08,0,0,1-.68.08,3,3,0,0,1-.67-.08l0-.06c-1.55,0-2.81,3.06-2.81,4.17h7C31.27,34.47,30,31.41,28.46,31.41Z" fill="#fff"/><path d="M27.12,58h1.26a2.22,2.22,0,0,0,2.42-1.94V45.54A7.51,7.51,0,0,0,30.19,43c-.26-.6-.79-1.59-1.52-1.65v0h0a4.2,4.2,0,0,1-1.73,0h0l0,0c-.72.06-1.25,1.05-1.51,1.65a7.57,7.57,0,0,0-.62,2.52V56.08A2.23,2.23,0,0,0,27.12,58Z" fill="#fff"/><path d="M24.51,45.54c0-1,.87-4.36,2.38-4.36H27l0,.07a4.22,4.22,0,0,0,1.53,0l0-.07h.06c1.51,0,2.39,3.31,2.39,4.36V56.08a2.42,2.42,0,0,1-2.62,2.13H27.12a2.41,2.41,0,0,1-2.61-2.13Z" fill="#fff"/><path d="M27.05,58.82h1.41c1.55,0,2.81-.9,2.81-2V46.38c0-1.11-1.26-4.16-2.81-4.16l0,.05a2.59,2.59,0,0,1-.68.09,2.52,2.52,0,0,1-.67-.09l0-.05c-1.55,0-2.81,3.05-2.81,4.16V56.81C24.24,57.92,25.5,58.82,27.05,58.82Z" fill="url(#a72d4874-ef74-45ae-9b1a-0fc2166576f4)"/><path d="M26.89,41H27l0,.07a4.22,4.22,0,0,0,1.53,0l0-.07h.06C30.12,41,31,44.33,31,45.39V56.06a2.42,2.42,0,0,1-2.62,2.15H27.12a2.41,2.41,0,0,1-2.61-2.15V45.39C24.51,44.33,25.38,41,26.89,41Zm.86.34a4.41,4.41,0,0,1-.86-.09l0,0,0,0c-.72,0-1.25,1.06-1.51,1.67a7.72,7.72,0,0,0-.62,2.54V56.06a2.23,2.23,0,0,0,2.42,2h1.26a2.23,2.23,0,0,0,2.42-2V45.39a7.66,7.66,0,0,0-.61-2.54c-.26-.61-.79-1.62-1.52-1.67v0l0,0A4.43,4.43,0,0,1,27.75,41.32Z" fill="#b4b7c9"/><path d="M27.28,42a1.84,1.84,0,0,0,.47.06,1.91,1.91,0,0,0,.48-.06V39.92a1.91,1.91,0,0,0-.48-.06,1.84,1.84,0,0,0-.47.06l0,0V42Z" fill="#fff"/><path d="M27.05,39.74l0-.05a2.52,2.52,0,0,1,.67-.09,2.59,2.59,0,0,1,.68.09l0,.05c1.55,0,2.81-3.05,2.81-4.16h-7C24.24,36.69,25.5,39.74,27.05,39.74Z" fill="#fff"/><path d="M50.2,36.21V35a2.22,2.22,0,0,0-1.94-2.42H37.71a7.52,7.52,0,0,0-2.51.61c-.6.26-1.6.8-1.65,1.52h0l0,0a4.26,4.26,0,0,1,.09.86,4.41,4.41,0,0,1-.09.86l0,0,0,0c.05.72,1.05,1.26,1.65,1.51a7.58,7.58,0,0,0,2.51.62H48.26A2.23,2.23,0,0,0,50.2,36.21Z" fill="#fff"/><path d="M37.71,38.82c-1.05,0-4.36-.87-4.36-2.38v-.06l.07,0a3.94,3.94,0,0,0,.07-.77,3.87,3.87,0,0,0-.07-.77l-.07,0v-.06c0-1.51,3.31-2.38,4.36-2.38H48.26A2.41,2.41,0,0,1,50.39,35v1.26a2.41,2.41,0,0,1-2.13,2.61Z" fill="#fff"/><path d="M51,36.28V34.87c0-1.55-.9-2.81-2-2.81H38.56c-1.11,0-4.17,1.26-4.17,2.81l.06,0a3.08,3.08,0,0,1,.08.68,2.93,2.93,0,0,1-.08.67l-.06,0c0,1.56,3.06,2.81,4.17,2.81H49C50.1,39.09,51,37.84,51,36.28Z" fill="url(#edc150ab-a306-4491-b283-988c3f176c2e)"/><path d="M33.16,36.44v-.06l.07,0a4.9,4.9,0,0,0,.07-.77,4.79,4.79,0,0,0-.07-.77l-.07,0v-.06c0-1.51,3.34-2.38,4.41-2.38H48.23A2.42,2.42,0,0,1,50.39,35v1.26a2.42,2.42,0,0,1-2.16,2.61H37.57C36.5,38.82,33.16,38,33.16,36.44Zm.33-.86a3.76,3.76,0,0,1-.09.86v0l0,0c.06.72,1.07,1.26,1.67,1.51a7.77,7.77,0,0,0,2.55.62H48.23a2.23,2.23,0,0,0,2-2.42V35a2.23,2.23,0,0,0-2-2.42H37.57a7.71,7.71,0,0,0-2.55.61c-.6.26-1.61.8-1.67,1.52h0v0A3.65,3.65,0,0,1,33.49,35.58Z" fill="#b4b7c9"/><path d="M34.22,36.05a1.84,1.84,0,0,0,.06-.47,2,2,0,0,0-.06-.48H32.1a2,2,0,0,0-.06.48,1.84,1.84,0,0,0,.06.47l0,0h2.06Z" fill="#fff"/><path d="M31.92,36.28l-.06,0a2.93,2.93,0,0,1-.08-.67,3.08,3.08,0,0,1,.08-.68l.06,0c0-1.55-3.06-2.81-4.17-2.81v7C28.86,39.09,31.92,37.84,31.92,36.28Z" fill="#fff"/><path d="M5.31,35v1.26a2.23,2.23,0,0,0,1.94,2.42H17.79A7.57,7.57,0,0,0,20.31,38c.6-.25,1.6-.79,1.65-1.51l0,0v0a4.41,4.41,0,0,1-.09-.86,4.26,4.26,0,0,1,.09-.86v0h0c-.05-.72-1.05-1.26-1.65-1.52a7.51,7.51,0,0,0-2.52-.61H7.25A2.22,2.22,0,0,0,5.31,35Z" fill="#fff"/><path d="M17.79,32.34c1.05,0,4.36.87,4.36,2.38v.06l-.07,0a4.79,4.79,0,0,0-.07.77,4.9,4.9,0,0,0,.07.77l.07,0v.06c0,1.51-3.31,2.38-4.36,2.38H7.25a2.41,2.41,0,0,1-2.13-2.61V35a2.41,2.41,0,0,1,2.13-2.61Z" fill="#fff"/><path d="M4.51,34.87v1.41c0,1.56.9,2.81,2,2.81H17c1.11,0,4.16-1.25,4.16-2.81l-.05,0a2.46,2.46,0,0,1-.08-.67,2.58,2.58,0,0,1,.08-.68l.05,0c0-1.55-3.05-2.81-4.16-2.81H6.52C5.41,32.06,4.51,33.32,4.51,34.87Z" fill="url(#eec5c6cc-b0e6-4a6e-aa7e-a64452339a9b)"/><path d="M22.35,34.72v.06l-.07,0a4.79,4.79,0,0,0-.07.77,4.9,4.9,0,0,0,.07.77l.07,0v.06c0,1.51-3.35,2.38-4.41,2.38H7.27a2.42,2.42,0,0,1-2.15-2.61V35a2.42,2.42,0,0,1,2.15-2.61H17.94C19,32.34,22.35,33.21,22.35,34.72Zm-.34.86a4.26,4.26,0,0,1,.09-.86l0,0h0c0-.72-1.06-1.26-1.67-1.52a7.66,7.66,0,0,0-2.54-.61H7.27a2.23,2.23,0,0,0-2,2.42v1.26a2.23,2.23,0,0,0,2,2.42H17.94A7.72,7.72,0,0,0,20.48,38c.61-.25,1.62-.79,1.67-1.51l0,0,0,0A4.41,4.41,0,0,1,22,35.58Z" fill="#b4b7c9"/><path d="M21.29,35.1a2,2,0,0,0-.06.48,1.84,1.84,0,0,0,.06.47l0,0h2.06l0,0a1.84,1.84,0,0,0,.06-.47,2,2,0,0,0-.06-.48H21.29Z" fill="#fff"/><path d="M23.59,34.87l.05,0a2.59,2.59,0,0,1,.09.68,2.46,2.46,0,0,1-.09.67l-.05,0c0,1.56,3.05,2.81,4.16,2.81v-7C26.64,32.06,23.59,33.32,23.59,34.87Z" fill="#fff"/><path d="M43.18,51.89l.89-.89a2.23,2.23,0,0,0,.34-3.08L37,40.47a7.23,7.23,0,0,0-2.21-1.35c-.61-.24-1.69-.57-2.24-.1v0l0,0a3.3,3.3,0,0,1-.54.67,4.18,4.18,0,0,1-.68.55l0,0h0c-.47.55-.15,1.63.1,2.24a7.58,7.58,0,0,0,1.34,2.21l7.46,7.45A2.21,2.21,0,0,0,43.18,51.89Z" fill="#fff"/><path d="M32.5,44.91c-.74-.74-2.46-3.69-1.4-4.76l0,0,.07,0A4,4,0,0,0,32.3,39l0-.07,0,0c1.07-1.07,4,.66,4.77,1.4l7.45,7.46a2.4,2.4,0,0,1-.34,3.35l-.89.89a2.41,2.41,0,0,1-3.35.34Z" fill="#fff"/><path d="M43.69,52.51l.5-.49.5-.5c1.1-1.1,1.35-2.63.56-3.41l-7.37-7.38c-.79-.78-3.84-2-4.93-.95v0a2.41,2.41,0,0,1-.41.54,3.57,3.57,0,0,1-.54.42l-.06,0c-1.1,1.1.17,4.15,1,4.93l7.37,7.38C41.07,53.86,42.59,53.61,43.69,52.51Z" fill="url(#acc826ad-a882-47a6-b64a-f6ca7b32f946)"/><path d="M31,40l0,0,.07,0a3.94,3.94,0,0,0,.59-.49,4.6,4.6,0,0,0,.5-.59l0-.08,0,0c1.07-1.07,4,.68,4.81,1.44l7.54,7.54a2.42,2.42,0,0,1-.33,3.37l-.89.89a2.42,2.42,0,0,1-3.37.32L32.4,44.81C31.65,44.06,29.9,41.08,31,40Zm.84-.37a4.64,4.64,0,0,1-.67.54l0,0h0c-.47.55-.14,1.64.11,2.25a7.64,7.64,0,0,0,1.37,2.24l7.54,7.54a2.22,2.22,0,0,0,3.09-.33l.9-.89a2.23,2.23,0,0,0,.32-3.1l-7.54-7.54A7.94,7.94,0,0,0,34.62,39c-.62-.25-1.71-.59-2.26-.11l0,0,0,0A4.18,4.18,0,0,1,31.81,39.64Z" fill="#b4b7c9"/><path d="M32,40.49a2.08,2.08,0,0,0,.38-.3,1.82,1.82,0,0,0,.29-.38v0l-.73-.73-.73-.73h0a1.79,1.79,0,0,0-.38.3,1.82,1.82,0,0,0-.29.38v0l.73.73.73.73Z" fill="#fff"/><path d="M30.2,39l0-.06a3.06,3.06,0,0,1,.42-.53,2.18,2.18,0,0,1,.54-.42h.06c1.09-1.09-.18-4.14-1-4.93l-5,5C26.05,38.85,29.1,40.12,30.2,39Z" fill="#fff"/><path d="M12.33,19.26l-.89.89a2.22,2.22,0,0,0-.34,3.09l7.45,7.45A7.87,7.87,0,0,0,20.77,32c.6.24,1.69.57,2.24.09l0,0,0,0a4.18,4.18,0,0,1,.55-.68,4.64,4.64,0,0,1,.67-.54l0,0h0c.47-.55.14-1.63-.1-2.24a7.44,7.44,0,0,0-1.34-2.21l-7.46-7.46A2.23,2.23,0,0,0,12.33,19.26Z" fill="#fff"/><path d="M23,26.24c.75.75,2.47,3.7,1.4,4.77l0,0-.07,0a3.9,3.9,0,0,0-.6.49,5.47,5.47,0,0,0-.49.59l0,.07-.05,0c-1.06,1.06-4-.66-4.76-1.4L11,23.37A2.41,2.41,0,0,1,11.3,20l.89-.89a2.42,2.42,0,0,1,3.36-.34Z" fill="#fff"/><path d="M11.81,18.64l-.49.5-.5.5c-1.1,1.1-1.35,2.62-.57,3.41l7.38,7.37c.78.79,3.83,2.06,4.93,1l0-.06a3.06,3.06,0,0,1,.42-.53,2.18,2.18,0,0,1,.54-.42l.06,0c1.09-1.1-.17-4.15-1-4.94l-7.37-7.37C14.44,17.29,12.91,17.55,11.81,18.64Z" fill="url(#f8aeb6e6-cffb-4495-ad3f-bd01680eb6a0)"/><path d="M24.54,31.15l0,0-.07,0a4,4,0,0,0-1.09,1.08l0,.07-.05,0c-1.06,1.06-4.05-.69-4.8-1.44L11,23.39A2.42,2.42,0,0,1,11.3,20l.89-.89a2.42,2.42,0,0,1,3.37-.32l7.55,7.54C23.86,27.1,25.61,30.08,24.54,31.15Zm-.85.37a4.18,4.18,0,0,1,.68-.55l0,0,0,0c.48-.55.14-1.64-.1-2.25A7.86,7.86,0,0,0,23,26.48l-7.54-7.54a2.23,2.23,0,0,0-3.1.33l-.89.89a2.22,2.22,0,0,0-.32,3.09l7.54,7.55a7.65,7.65,0,0,0,2.23,1.36c.61.25,1.7.58,2.25.11v0l0,0A5.26,5.26,0,0,1,23.69,31.52Z" fill="#b4b7c9"/><path d="M23.52,30.67a1.57,1.57,0,0,0-.38.3,2.06,2.06,0,0,0-.29.37v0l.72.72.73.73h0a1.82,1.82,0,0,0,.38-.29,1.57,1.57,0,0,0,.3-.38v0l-.73-.73-.73-.73Z" fill="#fff"/><path d="M25.31,32.14v0a2.41,2.41,0,0,1-.41.54,3,3,0,0,1-.54.42l-.06,0c-1.1,1.1.17,4.15,1,4.93l5-5C29.45,32.31,26.4,31,25.31,32.14Z" fill="#fff"/><path d="M44.07,20.15l-.89-.89a2.23,2.23,0,0,0-3.08-.34l-7.46,7.46a7.44,7.44,0,0,0-1.34,2.21c-.25.61-.57,1.69-.1,2.24h0l0,0a4.75,4.75,0,0,1,.68.54,3.67,3.67,0,0,1,.54.68l0,0v0c.55.48,1.63.15,2.24-.09A7.65,7.65,0,0,0,37,30.69l7.46-7.45A2.24,2.24,0,0,0,44.07,20.15Z" fill="#fff"/><path d="M37.09,30.83c-.74.74-3.7,2.46-4.77,1.4l0,0,0-.07a3.83,3.83,0,0,0-.49-.59,3.41,3.41,0,0,0-.59-.49l-.07,0,0,0c-1.06-1.07.66-4,1.4-4.77L40,18.79a2.41,2.41,0,0,1,3.35.34l.89.89a2.4,2.4,0,0,1,.34,3.35Z" fill="#fff"/><path d="M44.69,19.64l-.5-.5-.5-.5c-1.1-1.09-2.62-1.35-3.41-.56l-7.37,7.37c-.79.79-2.06,3.84-1,4.94l.06,0a2.63,2.63,0,0,1,.54.42,2.6,2.6,0,0,1,.41.53v.06c1.09,1.1,4.14-.17,4.93-1l7.37-7.37C46,22.26,45.79,20.74,44.69,19.64Z" fill="url(#f3f7e825-5609-48c0-bbe5-d3e55232aaae)"/><path d="M32.18,32.37l0,0,0-.07a4,4,0,0,0-.5-.59,3.41,3.41,0,0,0-.59-.49l-.07,0,0,0c-1.07-1.07.68-4,1.43-4.8l7.54-7.54a2.42,2.42,0,0,1,3.37.32l.89.89a2.42,2.42,0,0,1,.33,3.37L37,30.93C36.23,31.68,33.25,33.43,32.18,32.37Zm-.37-.85a4.57,4.57,0,0,1,.55.67l0,0,0,0c.55.47,1.64.14,2.26-.11a7.94,7.94,0,0,0,2.23-1.36l7.54-7.55a2.22,2.22,0,0,0-.32-3.09l-.9-.89a2.22,2.22,0,0,0-3.09-.33l-7.54,7.54a7.64,7.64,0,0,0-1.37,2.24c-.25.61-.58,1.7-.11,2.25l0,0,0,0A4.1,4.1,0,0,1,31.81,31.52Z" fill="#b4b7c9"/><path d="M32.66,31.34a2.06,2.06,0,0,0-.29-.37,2.08,2.08,0,0,0-.38-.3h0l-.73.73-.73.73v0a1.82,1.82,0,0,0,.29.38,2.12,2.12,0,0,0,.38.29h0l.73-.73.73-.72Z" fill="#fff"/><path d="M31.2,33.13l-.06,0a2.45,2.45,0,0,1-.54-.42,2.79,2.79,0,0,1-.42-.54l0,0c-1.1-1.1-4.15.17-4.93,1l5,5C31,37.28,32.29,34.23,31.2,33.13Z" fill="#fff"/><path d="M11.44,51l.89.89a2.21,2.21,0,0,0,3.08.34l7.46-7.45a7.58,7.58,0,0,0,1.34-2.21c.24-.61.57-1.69.1-2.24h0l0,0a4.1,4.1,0,0,1-.67-.55A3.71,3.71,0,0,1,23,39.1l0,0,0,0c-.55-.47-1.64-.14-2.24.1a7.43,7.43,0,0,0-2.22,1.35L11.1,47.92A2.21,2.21,0,0,0,11.44,51Z" fill="#fff"/><path d="M18.42,40.33c.74-.74,3.7-2.47,4.76-1.4l.05,0,0,.07a5.58,5.58,0,0,0,.49.6,4.59,4.59,0,0,0,.6.49l.07,0,0,0c1.07,1.07-.65,4-1.4,4.76l-7.45,7.46A2.42,2.42,0,0,1,12.19,52l-.89-.89A2.41,2.41,0,0,1,11,47.79Z" fill="#fff"/><path d="M10.82,51.52l.5.5.49.49c1.1,1.1,2.63,1.35,3.42.57L22.6,45.7c.79-.78,2-3.83,1-4.93l-.06,0a2.76,2.76,0,0,1-1-1l0,0c-1.1-1.1-4.15.17-4.93.95l-7.38,7.38C9.47,48.89,9.72,50.42,10.82,51.52Z" fill="url(#fa7a0c11-adff-4563-9ef5-cdd357537aa9)"/><path d="M23.32,38.79l.05,0,0,.08a4.51,4.51,0,0,0,.49.59,4.59,4.59,0,0,0,.6.49l.07,0,0,0c1.07,1.07-.68,4.05-1.43,4.8l-7.55,7.54A2.42,2.42,0,0,1,12.19,52l-.89-.89A2.42,2.42,0,0,1,11,47.77l7.54-7.54C19.27,39.47,22.26,37.72,23.32,38.79Zm.37.85a4.75,4.75,0,0,1-.54-.68l0,0v0c-.55-.48-1.64-.14-2.25.11a7.65,7.65,0,0,0-2.23,1.36L11.12,47.9a2.23,2.23,0,0,0,.32,3.1l.89.89a2.23,2.23,0,0,0,3.1.33L23,44.68a7.86,7.86,0,0,0,1.37-2.24c.24-.61.58-1.7.1-2.25h0l0,0A4.75,4.75,0,0,1,23.69,39.64Z" fill="#b4b7c9"/><path d="M22.85,39.81a1.82,1.82,0,0,0,.29.38,1.57,1.57,0,0,0,.38.3h0l.73-.73L25,39v0a2.07,2.07,0,0,0-.68-.68h0l-.73.73-.72.73Z" fill="#fff"/><path d="M24.31,38h.06a2.63,2.63,0,0,1,.54.42,2.6,2.6,0,0,1,.41.53V39c1.09,1.1,4.14-.17,4.93-1l-5-5C24.48,33.88,23.21,36.93,24.31,38Z" fill="#fff"/><path d="M28.39,34.79a.27.27,0,0,1,.08.07.16.16,0,0,1,.06.08h0c.17.16.62,0,.74-.15l1.11-1.11c.12-.11.08-.34-.08-.51l-.08-.07L30.15,33a.39.39,0,0,0-.52-.08l-1.1,1.1c-.12.12-.31.58-.15.75Z" fill="#b4b7c9"/><path d="M27.11,36.36A.16.16,0,0,1,27,36.3a.27.27,0,0,1-.07-.08h0c-.17-.16-.63,0-.74.15l-1.11,1.1a.39.39,0,0,0,.08.52l.08.07.07.08c.17.16.4.2.51.08L27,37.1c.12-.12.31-.57.15-.74Z" fill="#b4b7c9"/><path d="M29.27,36.36c-.12-.12-.57-.31-.74-.15h0a.35.35,0,0,1-.14.14h0c-.16.17,0,.62.15.74l1.1,1.11a.39.39,0,0,0,.52-.08l.07-.08L30.3,38a.39.39,0,0,0,.08-.52Z" fill="#b4b7c9"/><path d="M26.23,34.8c.11.12.57.31.74.15h0a.8.8,0,0,1,.15-.15h0c.16-.17,0-.63-.15-.75L25.86,33c-.11-.12-.34-.08-.51.08l-.07.08-.08.07c-.16.17-.2.4-.08.51Z" fill="#b4b7c9"/><path d="M27.85,36.58h-.21c-.23,0-.42.46-.42.63v1.56c0,.17.19.3.42.3h.21c.24,0,.43-.13.43-.3V37.21C28.28,37,28.09,36.58,27.85,36.58Z" fill="#b4b7c9"/><path d="M27.64,34.58h.21c.24,0,.43-.46.43-.63V32.38c0-.16-.19-.3-.43-.3h-.21c-.23,0-.42.14-.42.3V34C27.22,34.12,27.41,34.58,27.64,34.58Z" fill="#b4b7c9"/><path d="M31,35.05H29.38c-.17,0-.63.19-.63.43h0a.34.34,0,0,1,0,.1.31.31,0,0,1,0,.1h0c0,.23.46.42.63.42H31c.16,0,.3-.19.3-.42v-.21C31.25,35.24,31.11,35.05,31,35.05Z" fill="#b4b7c9"/><path d="M26.75,35.69h0a.31.31,0,0,1,0-.1.34.34,0,0,1,0-.1h0c0-.24-.46-.43-.62-.43H24.56c-.17,0-.3.19-.3.43v.21c0,.23.13.42.3.42h1.57C26.29,36.11,26.75,35.92,26.75,35.69Z" fill="#b4b7c9"/><path d="M28,32.59l-.22,0-.22,0v1h0a.83.83,0,0,0,.22,0,.78.78,0,0,0,.22,0h0v-1Z" fill="#fff"/><path d="M27.53,38.56a.83.83,0,0,0,.22,0,.78.78,0,0,0,.22,0h0v-1l-.22,0-.22,0v1Z" fill="#fff"/><path d="M30.74,35.76a1.5,1.5,0,0,0,0-.22,1.64,1.64,0,0,0,0-.22h-1a.83.83,0,0,0,0,.22.78.78,0,0,0,0,.22h1Z" fill="#fff"/><path d="M24.77,35.32a.83.83,0,0,0,0,.22.78.78,0,0,0,0,.22h1a1.5,1.5,0,0,0,0-.22,1.64,1.64,0,0,0,0-.22h-1Z" fill="#fff"/><path d="M29.71,37.81a.75.75,0,0,0,.17-.14A1.15,1.15,0,0,0,30,37.5v0l-.33-.33-.34-.34h0a.59.59,0,0,0-.18.13.86.86,0,0,0-.14.18h0l.34.34.33.33Z" fill="#fff"/><path d="M25.8,33.28a.59.59,0,0,0-.18.13.75.75,0,0,0-.13.18h0l.34.34.33.34h0a1.14,1.14,0,0,0,.31-.31v0l-.33-.33-.34-.34Z" fill="#fff"/><path d="M30,33.59a1.24,1.24,0,0,0-.14-.18.7.7,0,0,0-.17-.13h0l-.33.34L29,34v0a1.15,1.15,0,0,0,.14.17.62.62,0,0,0,.18.14h0l.34-.34L30,33.6Z" fill="#fff"/><path d="M25.49,37.5a.7.7,0,0,0,.13.17.62.62,0,0,0,.18.14h0l.34-.33.33-.34h0a.62.62,0,0,0-.14-.18.7.7,0,0,0-.17-.13h0l-.33.34-.34.33Z" fill="#fff"/><path d="M69.85,19.57h9.08q8.17,0,8.18,8.16v7q0,8.33-8.14,8.32H72.6v5.76c0,1.84-.9,2.76-2.71,2.76a2.38,2.38,0,0,1-2.71-2.69V22.34C67.18,20.49,68.07,19.57,69.85,19.57ZM72.6,25V37.66h6.33a2.45,2.45,0,0,0,2.75-2.79V27.66c0-1.75-.92-2.63-2.75-2.63Z" fill="#b4b7c9"/><path d="M96.1,19.57h3.6q8.17,0,8.18,8.16v7q0,8.33-8.14,8.32H96q-8.09,0-8.08-8.14V27.75Q88,19.58,96.1,19.57Zm0,5.46a2.38,2.38,0,0,0-2.68,2.7v7.14c0,1.86.89,2.79,2.68,2.79H99.7a2.45,2.45,0,0,0,2.75-2.79V27.66c0-1.75-.92-2.63-2.75-2.63Z" fill="#b4b7c9"/><path d="M127.25,24.22l-10.5,13.47h8.8c1.76,0,2.64.92,2.64,2.75a2.31,2.31,0,0,1-2.62,2.64H111a2.45,2.45,0,0,1-2.49-1.54,2.88,2.88,0,0,1,.72-3.2L119.8,25h-8.57c-1.94,0-2.91-.86-2.91-2.62s1-2.78,2.87-2.78l14.35-.06a2.79,2.79,0,0,1,2.4,1.33C128.46,21.72,128.23,22.83,127.25,24.22Z" fill="#b4b7c9"/><path d="M148,24.22,137.46,37.69h8.81c1.76,0,2.64.92,2.64,2.75a2.32,2.32,0,0,1-2.62,2.64H131.75a2.43,2.43,0,0,1-2.49-1.54,2.87,2.87,0,0,1,.71-3.2L140.52,25H132C130,25,129,24.15,129,22.39s1-2.78,2.88-2.78l14.34-.06a2.79,2.79,0,0,1,2.41,1.33C149.17,21.72,149,22.83,148,24.22Z" fill="#b4b7c9"/><path d="M158.3,19.57h3.6q8.17,0,8.18,8.16v7q0,8.33-8.14,8.32h-3.71q-8.08,0-8.08-8.14V27.75Q150.15,19.58,158.3,19.57ZM158.25,25a2.38,2.38,0,0,0-2.68,2.7v7.14c0,1.86.9,2.79,2.68,2.79h3.65c1.84,0,2.75-.93,2.75-2.79V27.66c0-1.75-.91-2.63-2.75-2.63Z" fill="#b4b7c9"/><path d="M80.82,49.85a.88.88,0,0,1,.13.49,1.16,1.16,0,0,1-.12.54h0a1.15,1.15,0,0,1-.31.38,1.19,1.19,0,0,1-.46.24,1.69,1.69,0,0,1-.56.09,2.65,2.65,0,0,1-.85-.16,2.56,2.56,0,0,1-.76-.42.11.11,0,0,1,0-.16l.28-.4a.14.14,0,0,1,.08-.05l.1,0a2.37,2.37,0,0,0,.59.34,1.24,1.24,0,0,0,1.09,0,.39.39,0,0,0,.17-.33.32.32,0,0,0-.05-.18.79.79,0,0,0-.17-.14,1,1,0,0,0-.28-.12l-.34-.11-.44-.14a2,2,0,0,1-.42-.2,1.12,1.12,0,0,1-.32-.33A.85.85,0,0,1,78,48.7a1.12,1.12,0,0,1,.1-.5,1,1,0,0,1,.3-.38,1.11,1.11,0,0,1,.44-.24,2.13,2.13,0,0,1,1.27,0,2.77,2.77,0,0,1,.67.32.12.12,0,0,1,0,.16l-.25.42a.16.16,0,0,1-.08.06.13.13,0,0,1-.09,0,2.76,2.76,0,0,0-.52-.25,1.08,1.08,0,0,0-1,0,.35.35,0,0,0-.15.28.22.22,0,0,0,.06.17.45.45,0,0,0,.17.13,1.57,1.57,0,0,0,.29.13l.35.11.43.14a1.78,1.78,0,0,1,.41.22A1,1,0,0,1,80.82,49.85Zm5.34-2.37a1.51,1.51,0,0,0-.48.07,1.46,1.46,0,0,0-.38.17A1.26,1.26,0,0,0,85,48l-.12.14a1.35,1.35,0,0,0-.39-.4,1.32,1.32,0,0,0-.81-.24,1.35,1.35,0,0,0-.46.07,1.27,1.27,0,0,0-.35.17,1.84,1.84,0,0,0-.27.23v-.26a.12.12,0,0,0-.12-.13h-.55a.12.12,0,0,0-.12.13v3.7a.12.12,0,0,0,.12.12h.55a.12.12,0,0,0,.12-.12V49.28a1.18,1.18,0,0,1,.08-.43.89.89,0,0,1,.19-.33.86.86,0,0,1,.29-.21.78.78,0,0,1,.35-.08.76.76,0,0,1,.61.25,1.08,1.08,0,0,1,.22.73v2.18a.12.12,0,0,0,.13.12H85a.12.12,0,0,0,.12-.12V49.26a1.25,1.25,0,0,1,.08-.45,1.13,1.13,0,0,1,.19-.32.81.81,0,0,1,.29-.19,1,1,0,0,1,.34-.07.77.77,0,0,1,.62.25,1.1,1.1,0,0,1,.22.75v2.16a.12.12,0,0,0,.12.12h.56a.12.12,0,0,0,.12-.12V49.1a1.67,1.67,0,0,0-.4-1.18A1.41,1.41,0,0,0,86.16,47.48Zm5.29.44a1.57,1.57,0,0,1,.45,1.21v2.26a.12.12,0,0,1-.12.12h-.53a.12.12,0,0,1-.13-.12v-.25a2,2,0,0,1-.33.24,1.71,1.71,0,0,1-.88.21,1.9,1.9,0,0,1-.54-.07,1.86,1.86,0,0,1-.49-.24,1.35,1.35,0,0,1-.35-.4,1.26,1.26,0,0,1-.13-.57,1.21,1.21,0,0,1,.13-.58,1.3,1.3,0,0,1,.36-.42,1.79,1.79,0,0,1,.54-.25,3.69,3.69,0,0,1,1.32,0l.37.07a.77.77,0,0,0-.25-.63,1,1,0,0,0-.73-.22,2,2,0,0,0-.56.07,2.82,2.82,0,0,0-.51.19.17.17,0,0,1-.1,0,.12.12,0,0,1-.07-.07L88.74,48a.13.13,0,0,1,.06-.16,4.21,4.21,0,0,1,.65-.23,2.86,2.86,0,0,1,.75-.09A1.78,1.78,0,0,1,91.45,47.92Zm-1,2.92a1.06,1.06,0,0,0,.35-.19,1,1,0,0,0,.24-.27.82.82,0,0,0,.08-.35v-.26a2.78,2.78,0,0,0-.38-.08,2.51,2.51,0,0,0-.58,0,1.23,1.23,0,0,0-.73.18.56.56,0,0,0-.23.47.49.49,0,0,0,.06.25.65.65,0,0,0,.17.2.77.77,0,0,0,.26.12A1.31,1.31,0,0,0,90.46,50.84Zm4.63-3.34a1.54,1.54,0,0,0-1,.3,1.58,1.58,0,0,0-.37.36l0,0v-.5a.13.13,0,0,0-.13-.13H93a.12.12,0,0,0-.12.13v3.7a.12.12,0,0,0,.12.12h.55a.12.12,0,0,0,.13-.12V49.91a2.09,2.09,0,0,1,.1-.69,1.48,1.48,0,0,1,.29-.49,1.21,1.21,0,0,1,.43-.29,1.3,1.3,0,0,1,.52-.1h0a.12.12,0,0,0,.12-.12v-.6A.12.12,0,0,0,95.09,47.5Zm2.83.06H96.86v-1a.12.12,0,0,0-.12-.12h-.55a.12.12,0,0,0-.12.12v1h-.4a.12.12,0,0,0-.12.13v.48a.12.12,0,0,0,.12.13h.4v2.11a1.39,1.39,0,0,0,.08.52,1.14,1.14,0,0,0,.25.38,1.28,1.28,0,0,0,.38.21,1.68,1.68,0,0,0,.45.06,1.62,1.62,0,0,0,.4,0,1.46,1.46,0,0,0,.33-.12A.14.14,0,0,0,98,51.3v-.48a.12.12,0,0,0,0-.1.13.13,0,0,0-.12,0,.69.69,0,0,1-.25.09.88.88,0,0,1-.24,0,.6.6,0,0,1-.37-.11.47.47,0,0,1-.13-.38v-2h1.06a.13.13,0,0,0,.12-.13v-.48A.13.13,0,0,0,97.92,47.56Zm8.4,2.77a.14.14,0,0,0-.18,0,1.87,1.87,0,0,1-.47.37,1.23,1.23,0,0,1-1.06,0,1.21,1.21,0,0,1-.39-.28A1.41,1.41,0,0,1,104,49a1.33,1.33,0,0,1,.25-.41,1.14,1.14,0,0,1,.38-.28,1.17,1.17,0,0,1,1,0,2.39,2.39,0,0,1,.46.38.15.15,0,0,0,.09,0h0a.15.15,0,0,0,.09,0l.36-.39a.12.12,0,0,0,0-.17,2.56,2.56,0,0,0-.29-.27,1.74,1.74,0,0,0-.35-.22,1.4,1.4,0,0,0-.42-.15,2,2,0,0,0-.51-.06,2,2,0,0,0-1.44.61,2.09,2.09,0,0,0-.43.66,2.18,2.18,0,0,0-.15.8,2,2,0,0,0,.58,1.44,1.75,1.75,0,0,0,.63.44,2,2,0,0,0,.81.17,1.82,1.82,0,0,0,.94-.22,2.69,2.69,0,0,0,.67-.55.12.12,0,0,0,0-.17Zm4.74-1.59a2.18,2.18,0,0,1,0,1.59,2.28,2.28,0,0,1-.43.66,2,2,0,0,1-.66.44,2,2,0,0,1-.82.17,2,2,0,0,1-.82-.17,2,2,0,0,1-1.07-1.09,2.09,2.09,0,0,1-.15-.79,2.18,2.18,0,0,1,.15-.8,1.93,1.93,0,0,1,.43-.66,2,2,0,0,1,.65-.44,2.08,2.08,0,0,1,2.29.44A2,2,0,0,1,111.06,48.74Zm-1.4,2a1.13,1.13,0,0,0,.39-.27,1.29,1.29,0,0,0,.26-.42,1.44,1.44,0,0,0,.09-.51,1.42,1.42,0,0,0-.09-.52h0a1.57,1.57,0,0,0-.27-.43,1.44,1.44,0,0,0-.4-.28,1.13,1.13,0,0,0-.49-.1,1.15,1.15,0,0,0-.5.1,1.36,1.36,0,0,0-.39.27A1.46,1.46,0,0,0,108,49a1.41,1.41,0,0,0,.26,1.46,1.6,1.6,0,0,0,.4.28A1.26,1.26,0,0,0,109.66,50.75Zm5.45-2.82a1.41,1.41,0,0,0-.49-.33,1.62,1.62,0,0,0-.64-.12,1.46,1.46,0,0,0-.86.24,2.26,2.26,0,0,0-.29.25v-.28a.12.12,0,0,0-.12-.13h-.55a.13.13,0,0,0-.13.13v3.7a.12.12,0,0,0,.13.12h.55a.12.12,0,0,0,.12-.12V49.27a1.18,1.18,0,0,1,.08-.43.91.91,0,0,1,.2-.33.79.79,0,0,1,.31-.2,1.1,1.1,0,0,1,.4-.08.87.87,0,0,1,.67.26,1.11,1.11,0,0,1,.23.74v2.16a.12.12,0,0,0,.12.12h.55a.12.12,0,0,0,.13-.12v-2.3a1.87,1.87,0,0,0-.11-.64A1.58,1.58,0,0,0,115.11,47.93Zm4.45,2.4a.14.14,0,0,0-.18,0,1.87,1.87,0,0,1-.47.37,1.23,1.23,0,0,1-1.06,0,1.21,1.21,0,0,1-.39-.28,1.41,1.41,0,0,1-.36-.94,1.5,1.5,0,0,1,.09-.52,1.59,1.59,0,0,1,.26-.41,1.14,1.14,0,0,1,.38-.28,1.17,1.17,0,0,1,1,0,2.39,2.39,0,0,1,.46.38.13.13,0,0,0,.09,0h0a.18.18,0,0,0,.09,0l.36-.39a.12.12,0,0,0,0-.17,3.84,3.84,0,0,0-.29-.27,1.74,1.74,0,0,0-.35-.22,1.4,1.4,0,0,0-.42-.15,2.08,2.08,0,0,0-1.32.11,2.21,2.21,0,0,0-.64.44,2.25,2.25,0,0,0-.42.66,2.18,2.18,0,0,0-.15.8,2.06,2.06,0,0,0,.57,1.44,1.88,1.88,0,0,0,.64.44,2,2,0,0,0,.81.17,1.82,1.82,0,0,0,.94-.22,2.69,2.69,0,0,0,.67-.55.12.12,0,0,0,0-.17Zm3.31-2.83a1.55,1.55,0,0,0-.53.07,1.53,1.53,0,0,0-.46.23,1.58,1.58,0,0,0-.37.36l0,0v-.5a.13.13,0,0,0-.12-.13h-.56a.13.13,0,0,0-.12.13v3.7a.12.12,0,0,0,.12.12h.56a.12.12,0,0,0,.12-.12V49.91a1.85,1.85,0,0,1,.11-.69,1.33,1.33,0,0,1,.29-.49,1.1,1.1,0,0,1,.42-.29,1.3,1.3,0,0,1,.52-.1h.05a.12.12,0,0,0,.12-.12v-.6A.12.12,0,0,0,122.87,47.5Zm4,1.27a2.63,2.63,0,0,1,.12.8v.08s0,.07,0,.11a.12.12,0,0,1-.12.1H124.1a1.17,1.17,0,0,0,.11.36,1.22,1.22,0,0,0,.27.36,1,1,0,0,0,.36.22,1.16,1.16,0,0,0,.42.07,1.28,1.28,0,0,0,.61-.13,2,2,0,0,0,.47-.35.12.12,0,0,1,.17,0l.34.31a.12.12,0,0,1,0,.17,2.7,2.7,0,0,1-.68.54,2,2,0,0,1-.94.2,2,2,0,0,1-.77-.15,1.88,1.88,0,0,1-1-1.07,2.1,2.1,0,0,1-.16-.84,2.14,2.14,0,0,1,.14-.8,2,2,0,0,1,.39-.65,1.73,1.73,0,0,1,.6-.44,1.94,1.94,0,0,1,1.55,0,1.75,1.75,0,0,1,.59.45A2.26,2.26,0,0,1,126.9,48.77Zm-.71.44a2.81,2.81,0,0,0-.08-.31,1.23,1.23,0,0,0-.21-.37.92.92,0,0,0-.31-.24,1,1,0,0,0-1.16.23,1.31,1.31,0,0,0-.23.36,1.15,1.15,0,0,0-.1.33Zm3.66-1.65h-1v-1a.12.12,0,0,0-.12-.12h-.56a.12.12,0,0,0-.12.12v1h-.39a.12.12,0,0,0-.12.13v.48a.12.12,0,0,0,.12.13H128v2.11a1.38,1.38,0,0,0,.09.52,1,1,0,0,0,.25.38,1.17,1.17,0,0,0,.38.21,1.63,1.63,0,0,0,.45.06,1.54,1.54,0,0,0,.39,0,1.38,1.38,0,0,0,.34-.12.14.14,0,0,0,.06-.11v-.48a.11.11,0,0,0-.06-.1.13.13,0,0,0-.12,0,.59.59,0,0,1-.24.09.88.88,0,0,1-.24,0,.63.63,0,0,1-.38-.11.47.47,0,0,1-.12-.38v-2h1a.12.12,0,0,0,.12-.13v-.48A.12.12,0,0,0,129.85,47.56Zm4.22,1.21a2.63,2.63,0,0,1,.12.8v.08s0,.07,0,.11a.12.12,0,0,1-.12.1h-2.79a1.17,1.17,0,0,0,.11.36,1.22,1.22,0,0,0,.27.36,1,1,0,0,0,.36.22,1.16,1.16,0,0,0,.42.07,1.28,1.28,0,0,0,.61-.13,2,2,0,0,0,.47-.35.12.12,0,0,1,.17,0l.34.31a.12.12,0,0,1,0,.17,2.7,2.7,0,0,1-.68.54,2,2,0,0,1-.94.2,2,2,0,0,1-.77-.15,1.88,1.88,0,0,1-1.05-1.07,2.1,2.1,0,0,1-.16-.84,2.14,2.14,0,0,1,.14-.8,2,2,0,0,1,.39-.65,1.73,1.73,0,0,1,.6-.44,1.94,1.94,0,0,1,1.55,0,1.75,1.75,0,0,1,.59.45A2.26,2.26,0,0,1,134.07,48.77Zm-.71.44a2.81,2.81,0,0,0-.08-.31,1.23,1.23,0,0,0-.21-.37.92.92,0,0,0-.31-.24,1,1,0,0,0-1.16.23,1.31,1.31,0,0,0-.23.36,1.15,1.15,0,0,0-.1.33Zm8.42.31a2.32,2.32,0,0,0-.41-.22l-.44-.14-.35-.11-.29-.13a.45.45,0,0,1-.17-.13.26.26,0,0,1-.05-.17.35.35,0,0,1,.15-.28,1.08,1.08,0,0,1,1,0,2.41,2.41,0,0,1,.51.25.16.16,0,0,0,.1,0,.11.11,0,0,0,.07-.06l.26-.42a.13.13,0,0,0,0-.16,3,3,0,0,0-.67-.32,2.16,2.16,0,0,0-1.28,0,1.26,1.26,0,0,0-.44.24,1,1,0,0,0-.29.38,1.12,1.12,0,0,0-.11.5.94.94,0,0,0,.13.49,1,1,0,0,0,.33.33,1.81,1.81,0,0,0,.42.2l.44.14L141,50a.85.85,0,0,1,.27.12.61.61,0,0,1,.17.14.26.26,0,0,1,.05.18.38.38,0,0,1-.16.33,1.24,1.24,0,0,1-1.09,0,2.25,2.25,0,0,1-.6-.34l-.09,0a.16.16,0,0,0-.09.05l-.27.4a.11.11,0,0,0,0,.16,2.44,2.44,0,0,0,.76.42,2.56,2.56,0,0,0,.85.16,1.73,1.73,0,0,0,.56-.09,1.22,1.22,0,0,0,.45-.24,1,1,0,0,0,.31-.38h0a1.16,1.16,0,0,0,.12-.54,1,1,0,0,0-.12-.49A1.08,1.08,0,0,0,141.78,49.52Zm5-.78a2.13,2.13,0,0,1,.15.79,2,2,0,0,1-.16.8,2.09,2.09,0,0,1-.43.66,1.83,1.83,0,0,1-.65.44,2,2,0,0,1-.82.17,2,2,0,0,1-.82-.17,1.83,1.83,0,0,1-.65-.44,2,2,0,0,1-.58-1.44,2.18,2.18,0,0,1,.15-.8,2.28,2.28,0,0,1,.43-.66,2.09,2.09,0,0,1,3,0A2,2,0,0,1,146.79,48.74Zm-1.4,2a1.36,1.36,0,0,0,.39-.27,1.49,1.49,0,0,0,.26-.42,1.44,1.44,0,0,0,.09-.51A1.42,1.42,0,0,0,146,49h0a1.34,1.34,0,0,0-.26-.43,1.6,1.6,0,0,0-.4-.28,1.19,1.19,0,0,0-.49-.1,1.22,1.22,0,0,0-.51.1,1.19,1.19,0,0,0-.38.27,1.27,1.27,0,0,0-.25.42,1.3,1.3,0,0,0-.1.52,1.5,1.5,0,0,0,.1.52,1.22,1.22,0,0,0,.66.7A1.26,1.26,0,0,0,145.39,50.75ZM149.56,46l-.35,0a1.22,1.22,0,0,0-.92.35,1.49,1.49,0,0,0-.32,1v.2h-.39a.12.12,0,0,0-.12.12v.48a.12.12,0,0,0,.12.13H148v3.09a.12.12,0,0,0,.12.12h.55a.12.12,0,0,0,.13-.12V48.3h1a.12.12,0,0,0,.12-.13V47.7a.12.12,0,0,0-.12-.12h-1.05V47.4c0-.59.28-.67.52-.67a.88.88,0,0,1,.24,0l.26.06a.09.09,0,0,0,.11,0,.12.12,0,0,0,.05-.09v-.48a.12.12,0,0,0-.08-.12A1.67,1.67,0,0,0,149.56,46Zm2.94,1.53h-1.05v-1a.12.12,0,0,0-.12-.12h-.55a.12.12,0,0,0-.13.12v1h-.39a.12.12,0,0,0-.12.13v.48a.12.12,0,0,0,.12.13h.39v2.11a1.38,1.38,0,0,0,.09.52,1,1,0,0,0,.25.38,1.28,1.28,0,0,0,.38.21,1.67,1.67,0,0,0,.85,0,1.46,1.46,0,0,0,.33-.12.14.14,0,0,0,.06-.11v-.48a.11.11,0,0,0-.06-.1.13.13,0,0,0-.12,0,.59.59,0,0,1-.24.09.88.88,0,0,1-.24,0,.58.58,0,0,1-.37-.11c-.09-.06-.13-.19-.13-.38v-2h1.05a.13.13,0,0,0,.13-.13v-.48A.13.13,0,0,0,152.5,47.56Zm6.3,0h-.57a.13.13,0,0,0-.12.09l-.86,2.62-.88-2.64a.13.13,0,0,0-.12-.08h-.46a.11.11,0,0,0-.11.08l-.88,2.64-.86-2.62a.13.13,0,0,0-.12-.09h-.59a.12.12,0,0,0-.1.06.11.11,0,0,0,0,.11l1.29,3.73a.13.13,0,0,0,.12.08H155a.11.11,0,0,0,.11-.08l.89-2.58.88,2.58a.12.12,0,0,0,.12.08h.48a.11.11,0,0,0,.11-.08l1.31-3.73a.14.14,0,0,0,0-.11A.11.11,0,0,0,158.8,47.56Zm3.5.36a1.6,1.6,0,0,1,.44,1.21v2.26a.12.12,0,0,1-.12.12h-.53a.12.12,0,0,1-.12-.12v-.25a1.72,1.72,0,0,1-.34.24,1.69,1.69,0,0,1-.88.21,1.9,1.9,0,0,1-.54-.07,1.8,1.8,0,0,1-.48-.24,1.12,1.12,0,0,1-.35-.4,1.14,1.14,0,0,1-.13-.57,1.12,1.12,0,0,1,.49-1,1.68,1.68,0,0,1,.54-.25,3.63,3.63,0,0,1,1.31,0l.38.07a.83.83,0,0,0-.25-.63,1.08,1.08,0,0,0-.73-.22,2,2,0,0,0-.57.07,3.52,3.52,0,0,0-.51.19.17.17,0,0,1-.1,0,.11.11,0,0,1-.06-.07l-.17-.45a.14.14,0,0,1,.06-.16,4.61,4.61,0,0,1,.65-.23,2.86,2.86,0,0,1,.75-.09A1.82,1.82,0,0,1,162.3,47.92Zm-1,2.92a1.23,1.23,0,0,0,.36-.19,1,1,0,0,0,.23-.27A.69.69,0,0,0,162,50v-.26a2.61,2.61,0,0,0-.37-.08,2.65,2.65,0,0,0-.59,0,1.19,1.19,0,0,0-.72.18.53.53,0,0,0-.23.47.49.49,0,0,0,.06.25.54.54,0,0,0,.17.2.72.72,0,0,0,.25.12A1.31,1.31,0,0,0,161.3,50.84Zm4.63-3.34a1.55,1.55,0,0,0-.53.07,1.53,1.53,0,0,0-.46.23,1.8,1.8,0,0,0-.37.36l0,0v-.5a.12.12,0,0,0-.12-.13h-.55a.13.13,0,0,0-.13.13v3.7a.12.12,0,0,0,.13.12h.55a.12.12,0,0,0,.12-.12V49.91a2.08,2.08,0,0,1,.11-.69,1.33,1.33,0,0,1,.29-.49,1.1,1.1,0,0,1,.42-.29,1.35,1.35,0,0,1,.53-.1h0a.12.12,0,0,0,.12-.12v-.6A.12.12,0,0,0,165.93,47.5Zm4.15,2.07v.08a.45.45,0,0,1,0,.11.12.12,0,0,1-.12.1h-2.79a1.17,1.17,0,0,0,.11.36,1.22,1.22,0,0,0,.27.36,1.13,1.13,0,0,0,.36.22,1.2,1.2,0,0,0,.42.07,1.28,1.28,0,0,0,.61-.13,2,2,0,0,0,.47-.35.12.12,0,0,1,.17,0l.35.31a.12.12,0,0,1,0,.17,2.53,2.53,0,0,1-.68.54,2,2,0,0,1-.94.2,2,2,0,0,1-.77-.15,2,2,0,0,1-.63-.42,2.13,2.13,0,0,1-.58-1.49,2.36,2.36,0,0,1,.14-.8,2,2,0,0,1,.39-.65,1.73,1.73,0,0,1,.6-.44,1.94,1.94,0,0,1,1.55,0,1.75,1.75,0,0,1,.59.45,1.88,1.88,0,0,1,.36.67A2.63,2.63,0,0,1,170.08,49.57Zm-.83-.36a1.57,1.57,0,0,0-.08-.31,1.46,1.46,0,0,0-.2-.37,1.08,1.08,0,0,0-.32-.24,1,1,0,0,0-.83,0,1.12,1.12,0,0,0-.33.24,1.31,1.31,0,0,0-.23.36,1.59,1.59,0,0,0-.1.33Z" fill="#b4b7c9"/></svg>