<?xml version="1.0" encoding="utf-8"?>
<!-- Generator: Adobe Illustrator 25.0.0, SVG Export Plug-In . SVG Version: 6.00 Build 0)  -->
<svg version="1.1" id="Layer_1" xmlns="http://www.w3.org/2000/svg" xmlns:xlink="http://www.w3.org/1999/xlink" x="0px" y="0px"
	 viewBox="0 0 24 24" style="enable-background:new 0 0 24 24;" xml:space="preserve">
<style type="text/css">
	.st0{fill:#6366F1;}
</style>
<path class="st0" d="M20,3H4C2.9,3,2,3.9,2,5v2c0,0.7,0.4,1.4,1,1.7V19c0,1.1,0.9,2,2,2h14c1.1,0,2-0.9,2-2V8.7c0.6-0.4,1-1,1-1.7V5
	C22,3.9,21.1,3,20,3z M4,5h16v2H4V5z M5,19V9h14v10H5z"/>
<path class="st0" d="M8,11h8v2H8V11z"/>
</svg>
