<?xml version="1.0" encoding="utf-8"?>
<!-- Generator: Adobe Illustrator 25.0.0, SVG Export Plug-In . SVG Version: 6.00 Build 0)  -->
<svg version="1.1" id="Layer_1" xmlns="http://www.w3.org/2000/svg" xmlns:xlink="http://www.w3.org/1999/xlink" x="0px" y="0px"
	 viewBox="0 0 24 24" style="enable-background:new 0 0 24 24;" xml:space="preserve">
<style type="text/css">
	.st0{fill:#6366F1;}
</style>
<path class="st0" d="M20,7h-4V4c0-1.1-0.9-2-2-2h-4C8.9,2,8,2.9,8,4v5H4c-1.1,0-2,0.9-2,2v9c0,0.6,0.4,1,1,1h18c0.6,0,1-0.4,1-1V9
	C22,7.9,21.1,7,20,7z M4,11h4v8H4V11z M10,10V4h4v15h-4V10z M20,19h-4V9h4V19z"/>
</svg>
