<?xml version="1.0" encoding="utf-8"?>
<!-- Generator: Adobe Illustrator 25.0.0, SVG Export Plug-In . SVG Version: 6.00 Build 0)  -->
<svg version="1.1" id="Layer_1" xmlns="http://www.w3.org/2000/svg" xmlns:xlink="http://www.w3.org/1999/xlink" x="0px" y="0px"
	 viewBox="0 0 24 24" style="enable-background:new 0 0 24 24;" xml:space="preserve">
<style type="text/css">
	.st0{fill:#6366F1;}
</style>
<path class="st0" d="M7.6,21.7c2.1,0,4.1-0.9,5.6-2.5l6-6c2.9-2.9,3.3-7.1,1-9.4s-6.6-1.9-9.4,1l-6,6c-2.9,2.9-3.3,7.1-1,9.4
	C4.8,21.2,6.2,21.8,7.6,21.7z M5.6,12.7l2.8,2.8l1.4-1.4L7,11.3l1.4-1.4l2.8,2.8l1.4-1.4L9.9,8.5L11.3,7l2.8,2.8l1.4-1.4l-2.8-2.8
	c2-1.6,4.6-1.9,6-0.5s1.1,4.6-1,6.6l-6,6c-2.1,2-5.1,2.5-6.6,1S4.1,14.8,5.6,12.7L5.6,12.7z"/>
</svg>
