<?xml version="1.0" encoding="utf-8"?>
<!-- Generator: Adobe Illustrator 25.0.0, SVG Export Plug-In . SVG Version: 6.00 Build 0)  -->
<svg version="1.1" id="Layer_1" xmlns="http://www.w3.org/2000/svg" xmlns:xlink="http://www.w3.org/1999/xlink" x="0px" y="0px"
	 viewBox="0 0 24 24" style="enable-background:new 0 0 24 24;" xml:space="preserve">
<style type="text/css">
	.st0{fill:#6366F1;}
</style>
<path class="st0" d="M21.3,11.9c0.4-0.1,0.7-0.5,0.7-0.9V8c0-0.6-0.4-1-1-1V6h0c0-2.2-1.8-4-4-4H7C4.8,2,3,3.8,3,6v1
	C2.4,7,2,7.4,2,8v3c0,0.5,0.3,0.8,0.7,0.9C2.3,12.6,2,13.4,2,14.2L2,18c0,0.7,0.4,1.4,1,1.7V21c0,0.6,0.4,1,1,1h1c0.6,0,1-0.4,1-1
	v-1h12v1c0,0.6,0.4,1,1,1h1c0.6,0,1-0.4,1-1v-1.3c0.2-0.1,0.3-0.2,0.4-0.3C21.8,19,22,18.5,22,18l0-3.8C22,13.4,21.7,12.6,21.3,11.9
	z M5,18H4l0-3.8c0-0.5,0.2-0.9,0.4-1.2h15.1c0.3,0.4,0.4,0.8,0.4,1.2l0,3.8H5z M11,8v3H5V8H11z M19,11h-6V8h6V11z M7,4h10
	c1.1,0,2,0.9,2,2h-4V5H9v1H5C5,4.9,5.9,4,7,4z"/>
<circle class="st0" cx="6.5" cy="15.5" r="1.5"/>
<circle class="st0" cx="17.5" cy="15.5" r="1.5"/>
</svg>
