<?xml version="1.0" encoding="utf-8"?>
<!-- Generator: Adobe Illustrator 25.0.0, SVG Export Plug-In . SVG Version: 6.00 Build 0)  -->
<svg version="1.1" id="Layer_1" xmlns="http://www.w3.org/2000/svg" xmlns:xlink="http://www.w3.org/1999/xlink" x="0px" y="0px"
	 viewBox="0 0 24 24" style="enable-background:new 0 0 24 24;" xml:space="preserve">
<style type="text/css">
	.st0{fill:#6366F1;}
</style>
<path class="st0" d="M3,4v17c0,0.6,0.4,1,1,1h16c0.6,0,1-0.4,1-1v-9c0-1.1-0.9-2-2-2h-2V4c0-1.1-0.9-2-2-2H5C3.9,2,3,2.9,3,4z
	 M19,20h-6v-8h6V20z M5,4h10v6h-2c-1.1,0-2,0.9-2,2v8H5V4z"/>
<path class="st0" d="M13,8h-2V6h2V8z M9,8H7V6h2V8z M9,12H7v-2h2V12z M9,16H7v-2h2V16z M17,16h-2v-2h2V16z"/>
</svg>
