<?xml version="1.0" encoding="utf-8"?>
<!-- Generator: Adobe Illustrator 25.0.0, SVG Export Plug-In . SVG Version: 6.00 Build 0)  -->
<svg version="1.1" id="Layer_1" xmlns="http://www.w3.org/2000/svg" xmlns:xlink="http://www.w3.org/1999/xlink" x="0px" y="0px"
	 viewBox="0 0 24 24" style="enable-background:new 0 0 24 24;" xml:space="preserve">
<style type="text/css">
	.st0{fill:#6366F1;}
</style>
<path class="st0" d="M4,11h6c0.6,0,1-0.4,1-1V4c0-0.6-0.4-1-1-1H4C3.4,3,3,3.4,3,4v6C3,10.6,3.4,11,4,11z M5,5h4v4H5V5z M20,3h-6
	c-0.6,0-1,0.4-1,1v6c0,0.6,0.4,1,1,1h6c0.6,0,1-0.4,1-1V4C21,3.4,20.6,3,20,3z M19,9h-4V5h4V9z M10,21c0.6,0,1-0.4,1-1v-6
	c0-0.6-0.4-1-1-1H4c-0.6,0-1,0.4-1,1v6c0,0.6,0.4,1,1,1H10z M5,15h4v4H5V15z M18,14h-2v2h-2v2h2v2h2v-2h2v-2h-2V14z"/>
</svg>
