<?xml version="1.0" encoding="utf-8"?>
<!-- Generator: Adobe Illustrator 25.0.0, SVG Export Plug-In . SVG Version: 6.00 Build 0)  -->
<svg version="1.1" id="Layer_1" xmlns="http://www.w3.org/2000/svg" xmlns:xlink="http://www.w3.org/1999/xlink" x="0px" y="0px"
	 viewBox="0 0 24 24" style="enable-background:new 0 0 24 24;" xml:space="preserve">
<style type="text/css">
	.st0{fill:#6366F1;}
</style>
<path class="st0" d="M9.7,12c1.2,0,2-0.8,2-2s-0.8-2-2-2s-2,0.8-2,2S8.6,12,9.7,12z"/>
<path class="st0" d="M20,4H4C2.9,4,2,4.8,2,5.9v12.2c0,1,0.9,1.9,2,1.9h16c1.1,0,2-0.8,2-1.9V5.9C22,4.8,21.1,4,20,4z M20,18L4,18V6
	l16,0V18z"/>
<path class="st0" d="M14,9h4v2h-4V9z M15,13h3v2h-3V13z M13.4,15.5c0-1.4-1.7-2.8-3.7-2.8S6,14.2,6,15.5V16h7.4V15.5z"/>
</svg>
