<?xml version="1.0" encoding="utf-8"?>
<!-- Generator: Adobe Illustrator 25.0.0, SVG Export Plug-In . SVG Version: 6.00 Build 0)  -->
<svg version="1.1" id="Layer_1" xmlns="http://www.w3.org/2000/svg" xmlns:xlink="http://www.w3.org/1999/xlink" x="0px" y="0px"
	 viewBox="0 0 24 24" style="enable-background:new 0 0 24 24;" xml:space="preserve">
<style type="text/css">
	.st0{fill:#6366F1;}
</style>
<path class="st0" d="M12,15c-1.8,0-2-0.9-2-1H8c0,0.9,0.7,2.5,3,2.9V18h2v-1.1c2-0.3,3-1.6,3-2.9c0-1.1-0.5-3-4-3c-2,0-2-0.6-2-1
	s0.7-1,2-1s1.4,0.6,1.4,1h2c0-1.4-1-2.6-2.4-2.9V6h-2v1.1C9,7.4,8,8.7,8,10c0,1.1,0.5,3,4,3c2,0,2,0.7,2,1S13.4,15,12,15z"/>
<path class="st0" d="M5,2H2v2h2v17c0,0.6,0.4,1,1,1h14c0.6,0,1-0.4,1-1V4h2V2H5z M18,20H6V4h12V20z"/>
</svg>
