<?xml version="1.0" encoding="utf-8"?>
<!-- Generator: Adobe Illustrator 25.0.0, SVG Export Plug-In . SVG Version: 6.00 Build 0)  -->
<svg version="1.1" id="Layer_1" xmlns="http://www.w3.org/2000/svg" xmlns:xlink="http://www.w3.org/1999/xlink" x="0px" y="0px"
	 viewBox="0 0 24 24" style="enable-background:new 0 0 24 24;" xml:space="preserve">
<style type="text/css">
	.st0{fill:#6366F1;}
</style>
<path class="st0" d="M21.4,6.1l-6-3c-0.3-0.1-0.6-0.1-0.9,0L9,5.9L3.4,3.1C3,2.9,2.4,3.1,2.1,3.6C2,3.7,2,3.8,2,4v13
	c0,0.4,0.2,0.7,0.6,0.9l6,3c0.3,0.1,0.6,0.1,0.9,0l5.6-2.8l5.6,2.8c0.3,0.2,0.7,0.1,1,0c0.3-0.2,0.5-0.5,0.5-0.9V7
	C22,6.6,21.8,6.3,21.4,6.1z M10,7.6l4-2v10.8l-4,2V7.6z M4,5.6l4,2v10.8l-4-2V5.6z M20,18.4l-4-2V5.6l4,2V18.4z"/>
</svg>
