<?xml version="1.0" encoding="utf-8"?>
<!-- Generator: Adobe Illustrator 25.0.0, SVG Export Plug-In . SVG Version: 6.00 Build 0)  -->
<svg version="1.1" id="Layer_1" xmlns="http://www.w3.org/2000/svg" xmlns:xlink="http://www.w3.org/1999/xlink" x="0px" y="0px"
	 viewBox="0 0 24 24" style="enable-background:new 0 0 24 24;" xml:space="preserve">
<style type="text/css">
	.st0{fill:#6366F1;}
</style>
<path class="st0" d="M22,8c0-0.1,0-0.1,0-0.2V7.7c0-0.1,0-0.1-0.1-0.2c0,0,0-0.1,0-0.1l-0.1-0.1l-0.1-0.1l-0.1-0.1l-9-5
	c-0.3-0.2-0.7-0.2-1,0l-9,5L2.5,7.3L2.4,7.3c0,0-0.1,0.1-0.1,0.1c0,0-0.1,0.1-0.1,0.1c0,0,0,0.1-0.1,0.1c0,0,0,0.1,0,0.1
	C2.1,7.8,2,7.9,2,8v8c0,0.4,0.2,0.7,0.5,0.9l9,5c0,0,0.1,0,0.1,0.1h0.1c0.2,0,0.3,0,0.5,0h0.1l0.1-0.1l9-5c0.3-0.2,0.5-0.5,0.5-0.9
	V8z M12,11.9L5.1,8l2.8-1.5l6.8,3.9L12,11.9z M12,4.2L18.9,8l-2.2,1.2L9.9,5.3L12,4.2z M4,9.7l7,3.9v5.7l-7-3.9V9.7z M13,19.3v-5.7
	l3-1.7V15l2-1v-3.2l2-1.1v5.7L13,19.3z"/>
</svg>
