<svg id="b945c438-653d-418f-ac49-1feecc56d3ac" data-name="a194a9ee-aaa0-4096-be11-8f261a664225" xmlns="http://www.w3.org/2000/svg" xmlns:xlink="http://www.w3.org/1999/xlink" viewBox="0 0 44 44"><defs><linearGradient id="afca2880-7e9e-4b4d-a89c-1e41e04219eb" x1="13.5" y1="20.93" x2="39.02" y2="26.54" gradientTransform="matrix(1, 0, 0, -1, 0, 45)" gradientUnits="userSpaceOnUse"><stop offset="0.5" stop-color="#313ea8"/><stop offset="0.57" stop-color="#2953a9"/><stop offset="0.77" stop-color="#1487aa"/><stop offset="0.92" stop-color="#07a7ac"/><stop offset="1" stop-color="#02b3ac"/></linearGradient><linearGradient id="b3580165-dd33-4643-9979-9b3985f8cb5d" x1="38.98" y1="17.47" x2="19.86" y2="17.28" gradientTransform="matrix(1, 0, 0, -1, 0, 45)" gradientUnits="userSpaceOnUse"><stop offset="0" stop-color="#01a9a8"/><stop offset="0.16" stop-color="#0286c3"/><stop offset="0.28" stop-color="#026fd4"/><stop offset="0.49" stop-color="#2724c2"/><stop offset="0.6" stop-color="#3901b9"/><stop offset="0.88" stop-color="#26025d"/></linearGradient><linearGradient id="b5f3f0a7-46f5-4dbe-91bc-8e047ea5786a" x1="4.9" y1="17.74" x2="18.21" y2="18.58" gradientTransform="matrix(1, 0, 0, -1, 0, 45)" gradientUnits="userSpaceOnUse"><stop offset="0" stop-color="#65139f"/><stop offset="0.12" stop-color="#8412be"/><stop offset="0.23" stop-color="#9a11d5"/><stop offset="0.29" stop-color="#800ebe"/><stop offset="0.37" stop-color="#690ba9"/><stop offset="0.46" stop-color="#58099a"/><stop offset="0.55" stop-color="#4e0891"/><stop offset="0.67" stop-color="#4b088e"/><stop offset="0.89" stop-color="#33036a"/><stop offset="1" stop-color="#1a004b"/></linearGradient><linearGradient id="f98606d0-6fc3-4562-8138-bffd793759c2" x1="38.7" y1="27.24" x2="17.41" y2="23.67" gradientTransform="matrix(1, 0, 0, -1, 0, 45)" gradientUnits="userSpaceOnUse"><stop offset="0" stop-color="#01a9a8"/><stop offset="0.25" stop-color="#0271d3"/><stop offset="0.37" stop-color="#025ae4"/><stop offset="0.54" stop-color="#2324ca"/><stop offset="0.67" stop-color="#3901b9"/><stop offset="0.89" stop-color="#42067d"/><stop offset="1" stop-color="#1a004b"/></linearGradient><linearGradient id="a7a90caa-6316-4e0f-8bd4-a6a21fde705b" x1="25.42" y1="9.04" x2="26.47" y2="7.69" gradientTransform="matrix(1, 0, 0, -1, 0, 45)" gradientUnits="userSpaceOnUse"><stop offset="0.04" stop-color="#231f20"/><stop offset="0.44" stop-color="#234157" stop-opacity="0.67"/><stop offset="1" stop-color="#2484c6" stop-opacity="0"/></linearGradient><linearGradient id="a7aec969-27a0-4606-80c3-417cd5cfc9d1" x1="16.45" y1="20.39" x2="11.39" y2="18.31" xlink:href="#a7a90caa-6316-4e0f-8bd4-a6a21fde705b"/><linearGradient id="bb2db17c-82b9-4316-920d-f27f5e5b936c" x1="28.79" y1="6.96" x2="18.85" y2="9.03" gradientTransform="matrix(1, 0, 0, -1, 0, 45)" gradientUnits="userSpaceOnUse"><stop offset="0" stop-color="#231f20"/><stop offset="1" stop-color="#231f20" stop-opacity="0"/></linearGradient><linearGradient id="b6664c9d-608c-46a0-93e1-ec3a74958276" x1="25.44" y1="25.13" x2="34.85" y2="26.78" xlink:href="#a7a90caa-6316-4e0f-8bd4-a6a21fde705b"/><linearGradient id="eb330a00-383e-46f3-a93c-bf7950230bbb" x1="32.02" y1="39.02" x2="31.74" y2="38.97" gradientTransform="matrix(1, 0, 0, -1, 0, 45)" gradientUnits="userSpaceOnUse"><stop offset="0.04" stop-color="#01aca6"/><stop offset="0.15" stop-color="#03a9a8" stop-opacity="0.93"/><stop offset="0.36" stop-color="#0aa2ae" stop-opacity="0.75"/><stop offset="0.63" stop-color="#1496b7" stop-opacity="0.46"/><stop offset="0.96" stop-color="#2286c4" stop-opacity="0.06"/><stop offset="1" stop-color="#2484c6" stop-opacity="0"/></linearGradient><linearGradient id="f7d5c1f0-49a6-448c-8111-37de2100d077" x1="39.02" y1="25.43" x2="17.79" y2="21.85" xlink:href="#eb330a00-383e-46f3-a93c-bf7950230bbb"/><linearGradient id="f3aaf45a-4393-49d6-83c2-c46b6ac03c3a" x1="34.18" y1="38.56" x2="37.13" y2="38.02" xlink:href="#a7a90caa-6316-4e0f-8bd4-a6a21fde705b"/><linearGradient id="b0e600b4-38b1-411b-8053-61eb8e384b4b" x1="31.16" y1="22.01" x2="34.13" y2="21.48" xlink:href="#a7a90caa-6316-4e0f-8bd4-a6a21fde705b"/><linearGradient id="a5986a84-f8ef-440a-b402-7a5611209e16" x1="39.58" y1="39.8" x2="29.6" y2="38.75" gradientTransform="matrix(1, 0, 0, -1, 0, 45)" gradientUnits="userSpaceOnUse"><stop offset="0.63" stop-color="#03b1ad"/><stop offset="0.72" stop-color="#53cac7" stop-opacity="0.68"/><stop offset="0.81" stop-color="#9de1df" stop-opacity="0.39"/><stop offset="0.89" stop-color="#d2f1f0" stop-opacity="0.18"/><stop offset="0.96" stop-color="#f3fbfb" stop-opacity="0.05"/><stop offset="1" stop-color="#fff" stop-opacity="0"/></linearGradient><linearGradient id="e2ee5b48-6954-4815-83b0-4e096db621a2" x1="41.18" y1="24.8" x2="31.18" y2="23.73" xlink:href="#a5986a84-f8ef-440a-b402-7a5611209e16"/><linearGradient id="bb2735bc-9490-434c-92fb-37d493df7a41" x1="42.59" y1="30.47" x2="38.35" y2="33.83" xlink:href="#a5986a84-f8ef-440a-b402-7a5611209e16"/><linearGradient id="e67a238b-4c47-4a1f-9560-be14808a82ee" x1="32.29" y1="17.45" x2="28.04" y2="20.81" xlink:href="#a5986a84-f8ef-440a-b402-7a5611209e16"/><linearGradient id="a07b2215-23fe-4d02-9929-381da35eea32" x1="27.52" y1="32.7" x2="31.54" y2="25.52" xlink:href="#a7a90caa-6316-4e0f-8bd4-a6a21fde705b"/><linearGradient id="a8f4be3f-7646-43eb-a07a-117f911af8a8" x1="-92.65" y1="-427.77" x2="-88.63" y2="-434.97" gradientTransform="matrix(0.75, 0.3, 0.37, -0.93, 257.22, -348.87)" xlink:href="#a7a90caa-6316-4e0f-8bd4-a6a21fde705b"/><linearGradient id="a5faef28-4861-436a-b29b-724bafa4a3b8" x1="20.86" y1="100.28" x2="21.92" y2="98.91" gradientTransform="matrix(1, -0.07, -0.07, -1, 12.15, 133.85)" gradientUnits="userSpaceOnUse"><stop offset="0.37" stop-color="#231f20"/><stop offset="0.63" stop-color="#234157" stop-opacity="0.67"/><stop offset="1" stop-color="#2484c6" stop-opacity="0"/></linearGradient><linearGradient id="aa920051-0119-464f-ab86-921aac263eec" x1="130.46" y1="-491.05" x2="134.48" y2="-493.37" gradientTransform="matrix(0.91, 0.42, 0.42, -0.91, 114.42, -470.81)" xlink:href="#a7a90caa-6316-4e0f-8bd4-a6a21fde705b"/><linearGradient id="f9fd1de3-2691-4da0-93f9-ee86b98c8845" x1="533.56" y1="1150.27" x2="537.3" y2="1148.11" gradientTransform="matrix(0.49, 0.79, -0.75, 0.46, 626.38, -927.42)" xlink:href="#a7a90caa-6316-4e0f-8bd4-a6a21fde705b"/><linearGradient id="bc0d28d1-7818-4ebf-ba0a-2830034e11ab" x1="38.7" y1="27.24" x2="17.41" y2="23.66" xlink:href="#eb330a00-383e-46f3-a93c-bf7950230bbb"/><linearGradient id="f44c7e6b-14f1-4c7f-a7c4-bd6a0f543fee" x1="23.09" y1="21.32" x2="25.69" y2="19.82" xlink:href="#a7a90caa-6316-4e0f-8bd4-a6a21fde705b"/><linearGradient id="bee1798b-fedb-43ae-97d2-25ce728a159a" x1="15.44" y1="25.44" x2="21.34" y2="26.09" xlink:href="#a7a90caa-6316-4e0f-8bd4-a6a21fde705b"/><linearGradient id="b847d687-93e6-428b-b0b7-a94a8f4dfa15" x1="145.03" y1="513.75" x2="146.09" y2="512.38" gradientTransform="matrix(0.91, -0.42, -0.42, -0.91, 109.6, 555.15)" xlink:href="#a5faef28-4861-436a-b29b-724bafa4a3b8"/></defs><path d="M39.12,24.8c0-.22-.39-.23-.43,0A8.5,8.5,0,0,1,38,26.07a14.49,14.49,0,0,1-5.77,5.82c-1.27-.08.08-.94.08-.94a16.39,16.39,0,0,0,5.58-7.21,24.47,24.47,0,0,0,.77-10.52.27.27,0,0,0-.36-.16.28.28,0,0,0-.16.16c.16.69-.61,6.11-2,7a1.25,1.25,0,0,1-.59.22,30.8,30.8,0,0,0,1-3.31,15.35,15.35,0,0,0,.18-5,14.36,14.36,0,0,0-1.59-3.89l-2-3s-.41-.64-.52-.41a13.72,13.72,0,0,0,1.1,2.83c.41,1.09.36,1.8-.25,1.66-.34-.08-.65-.88-.79-1.2a11.46,11.46,0,0,0-3-4.56c-.92-.9-1.74-2-1.95-2.19s-.07.17-.07.17c2.14,7.79-7.8,12-7.8,12-4.95,2.15-4.3,7.45-4.23,8v.19a8.64,8.64,0,0,0-4.22-3.44,10.63,10.63,0,0,1-6.58-6.74V33c0,2.72,4.82,4.91,4.82,4.91,6.06,2.71,7.21,4.68,7.21,4.68l.12.22v.06c5.24-4.41,11.24-4.74,13.63-6.14,4.54-2.62,5.93-5.44,5.93-5.44A22,22,0,0,0,39.12,24.8Z" fill="url(#afca2880-7e9e-4b4d-a89c-1e41e04219eb)"/><path d="M17.08,42.62l.48-2.77a19.53,19.53,0,0,1,7.61-8.34L33.29,15.3s1.45-3.5,1.17,3.32c0,0,.35,2.23,1.73,1.27s2.14-6.34,2-7a.27.27,0,0,1,.36-.16.28.28,0,0,1,.16.16,24.52,24.52,0,0,1-.77,10.53,16.36,16.36,0,0,1-5.58,7.2s-1.4.86-.08.94A14.43,14.43,0,0,0,38,25.7a10.92,10.92,0,0,0,.66-1.27.23.23,0,0,1,.43,0,21.86,21.86,0,0,1-2.53,6.49s-1.33,2.82-5.82,5.45C28.32,37.85,22.32,38.21,17.08,42.62Z" fill="url(#b3580165-dd33-4643-9979-9b3985f8cb5d)"/><path d="M16.91,42.34s-1.15-2-7.21-4.68c0,0-4.82-2.19-4.82-4.88V11.21A10.64,10.64,0,0,0,11.38,18c5.24,1.9,6.22,8.39,6.27,8.59a29.42,29.42,0,0,1,.51,5.92,35.84,35.84,0,0,1-.31,3.73S17,42.13,17,42.54Z" fill="url(#b5f3f0a7-46f5-4dbe-91bc-8e047ea5786a)"/><path d="M18.44,31.51c-.11-6.64-2.34-9.63-2.78-10.15,0,0-1-5.77,4.21-8,0,0,9.94-4.16,7.8-11.95,0,0-.08-.32.11-.18s1,1.27,1.95,2.13a11.44,11.44,0,0,1,3.05,4.55c.14.33.45,1.13.79,1.26.61.14.66-.57.25-1.66a13.5,13.5,0,0,1-1.1-2.83c.15-.2.52.44.52.44l2,3A14,14,0,0,1,36.82,12a15.27,15.27,0,0,1-.23,4.91,18.38,18.38,0,0,1-5.88,10.15c-3.65,3.32-12.33,8.29-13.19,12.68A45.6,45.6,0,0,0,18.44,31.51Z" fill="url(#f98606d0-6fc3-4562-8138-bffd793759c2)"/><path d="M32.78,35a15.86,15.86,0,0,1-5.58,2.65l-3,.93a3.43,3.43,0,0,0-.68.26,21.34,21.34,0,0,0-4.85,2.36c-.07,0-1.27.83-1.33.85a13,13,0,0,1,2-2.89,51.47,51.47,0,0,1,5.34-3.95l1.55-.81,1.47-.57c1.11-.43,2.14-1.06,3.25-1.52a15.47,15.47,0,0,0,1.75-.93c.4-.26.83-.49,1.26-.78a1.09,1.09,0,0,1-.38.57.52.52,0,0,0-.2.52c.18.58-1.13,3.22-1,3.35S32.78,35,32.78,35Z" opacity="0.42" fill="url(#a7a90caa-6316-4e0f-8bd4-a6a21fde705b)" style="isolation:isolate"/><path d="M16.91,42.34s1.27-1.58-4.78-4.29c0,0-4.78-2.19-4.81-4.91L4.88,11.21A10.64,10.64,0,0,0,11.38,18c5.24,1.9,6.22,8.39,6.27,8.59a29.42,29.42,0,0,1,.51,5.92,35.84,35.84,0,0,1-.31,3.73S17,42.13,17,42.54Z" opacity="0.68" fill="url(#a7aec969-27a0-4606-80c3-417cd5cfc9d1)" style="isolation:isolate"/><path d="M17.37,42C24.23,37.5,31.46,38.33,34.88,33,31,36.59,29.31,35.74,19.46,39A9,9,0,0,0,17.37,42Z" opacity="0.68" fill="url(#bb2db17c-82b9-4316-920d-f27f5e5b936c)" style="isolation:isolate"/><path d="M18.13,36.05c.7-2,2.82-5.9,8.93-13.42,0,0,7.22-9.86,1.27-19.6,0,0,9.13,12.19,0,21.37A160,160,0,0,0,17.94,37.52s.06-.24.2-1.43C18.14,36.07,18.13,36.06,18.13,36.05Z" opacity="0.64" fill="url(#b6664c9d-608c-46a0-93e1-ec3a74958276)" style="isolation:isolate"/><path d="M31.64,5.62c.13.25.28.52.44.78Z" opacity="0.32" fill="url(#eb330a00-383e-46f3-a93c-bf7950230bbb)" style="isolation:isolate"/><path d="M36.77,11.85A13.86,13.86,0,0,0,35.18,8l-2-3s-.37-.62-.52-.42a13.63,13.63,0,0,0,1.1,2.82c.41,1.07.36,1.77-.25,1.63-.34-.07-.65-.86-.79-1.18s-.14-.26-.19-.4c1.94,5.07-1,14.36-3.41,16.84S18,36.35,18,36.35c-.24,1.69-.51,2.92-.51,2.92.86-4.35,9.54-9.26,13.19-12.53a18.07,18.07,0,0,0,5.88-10A15.44,15.44,0,0,0,36.77,11.85Z" opacity="0.32" fill="url(#f7d5c1f0-49a6-448c-8111-37de2100d077)" style="isolation:isolate"/><path d="M31.64,5.62c.13.25.28.52.43.78C31.93,6.14,31.78,5.86,31.64,5.62Z" opacity="0.32" fill="url(#f3aaf45a-4393-49d6-83c2-c46b6ac03c3a)" style="isolation:isolate"/><path d="M36.77,11.85A13.86,13.86,0,0,0,35.18,8l-2-3s-.37-.62-.52-.42a13.63,13.63,0,0,0,1.1,2.82c.41,1.07.36,1.77-.25,1.63-.34-.07-.65-.86-.79-1.18s-.13-.26-.18-.4c1.94,5.07-1,14.36-3.42,16.84S18,36.35,18,36.35c-.24,1.69-.51,2.92-.51,2.92.86-4.35,9.54-9.26,13.19-12.53a18.07,18.07,0,0,0,5.88-10A15.44,15.44,0,0,0,36.77,11.85Z" opacity="0.32" fill="url(#b0e600b4-38b1-411b-8053-61eb8e384b4b)" style="isolation:isolate"/><path d="M31.64,5.62c.13.25.28.52.44.78Z" opacity="0.32" fill="url(#a5986a84-f8ef-440a-b402-7a5611209e16)" style="isolation:isolate"/><path d="M36.77,11.85A13.86,13.86,0,0,0,35.18,8l-2-3s-.37-.62-.52-.42a13.63,13.63,0,0,0,1.1,2.82c.41,1.07.36,1.77-.25,1.63-.34-.07-.65-.86-.78-1.18s-.14-.26-.19-.4c1.94,5.07-1,14.36-3.42,16.84S18,36.35,18,36.35c-.24,1.69-.51,2.92-.51,2.92.86-4.35,9.54-9.26,13.19-12.53a18.07,18.07,0,0,0,5.88-10A14.87,14.87,0,0,0,36.77,11.85Z" opacity="0.32" fill="url(#e2ee5b48-6954-4815-83b0-4e096db621a2)" style="isolation:isolate"/><path d="M31.64,5.62l.43.8C31.93,6.14,31.78,5.86,31.64,5.62Z" opacity="0.32" fill="url(#bb2735bc-9490-434c-92fb-37d493df7a41)" style="isolation:isolate"/><path d="M36.77,11.85A13.86,13.86,0,0,0,35.18,8l-2-3s-.37-.62-.52-.42a13.63,13.63,0,0,0,1.1,2.82c.41,1.07.36,1.77-.25,1.63-.34-.07-.65-.86-.79-1.18s-.13-.26-.18-.4c1.94,5.07-1,14.36-3.42,16.84C26.59,27,18,36.35,18,36.37c-.24,1.67-.51,2.9-.51,2.9.86-4.35,9.54-9.26,13.19-12.53a18.07,18.07,0,0,0,5.88-10A15.44,15.44,0,0,0,36.77,11.85Z" opacity="0.32" fill="url(#e67a238b-4c47-4a1f-9560-be14808a82ee)" style="isolation:isolate"/><path d="M27.14,22.41h2.75C36.13,13.53,28.23,3,28.23,3,33.73,12,28.1,21,27.14,22.41Z" opacity="0.64" fill="url(#a07b2215-23fe-4d02-9929-381da35eea32)" style="isolation:isolate"/><path d="M25.3,27.5l2.07.84c8-6.35,5.91-18.51,5.91-18.51C34.05,19.8,26.55,26.43,25.3,27.5Z" opacity="0.64" fill="url(#a8f4be3f-7646-43eb-a07a-117f911af8a8)" style="isolation:isolate"/><path d="M33.43,30.48a16.44,16.44,0,0,1-5.49,3.11l-3,1.15a3.06,3.06,0,0,0-.68.33,21.41,21.41,0,0,0-4.76,2.78,10.66,10.66,0,0,0-1.27,1,12.41,12.41,0,0,1,1.83-3.1,49.44,49.44,0,0,1,5.07-4.41c.39-.26,1.47-.92,1.51-.95.47-.23.93-.49,1.41-.71,1.1-.52,2.09-1.27,3.2-1.78A18.93,18.93,0,0,0,33,26.8c.39-.3.81-.57,1.19-.89a1.16,1.16,0,0,1-.34.61.52.52,0,0,0-.17.54c.22.59-.92,3.37-.81,3.5S33.38,30.47,33.43,30.48Z" opacity="0.42" fill="url(#a5faef28-4861-436a-b29b-724bafa4a3b8)" style="isolation:isolate"/><path d="M18,36.33c6.67-5.49,14.75-8.4,17.67-16.24,0,0,1,10.24-18.13,19.36L18,37.32Z" opacity="0.64" fill="url(#aa920051-0119-464f-ab86-921aac263eec)" style="isolation:isolate"/><path d="M20.3,34.3c-1.72-1.36,7.33-6.8,13.18-20.14L32.83,18A21.69,21.69,0,0,1,20.3,34.3Z" opacity="0.64" fill="url(#f9fd1de3-2691-4da0-93f9-ee86b98c8845)" style="isolation:isolate"/><path d="M18.44,31.51c-.09-6.64-2.33-9.63-2.78-10.15,0,0-1-5.77,4.21-8,0,0,9.94-4.16,7.8-11.95,0,0-.08-.32.13-.18s1,1.27,1.93,2.13a11.44,11.44,0,0,1,3.05,4.55c.13.33.43,1.13.78,1.26.6.14.66-.57.25-1.66a13.5,13.5,0,0,1-1.1-2.83c.15-.2.52.44.52.44l2,3A14,14,0,0,1,36.8,12a15,15,0,0,1-.21,4.91,18.38,18.38,0,0,1-5.88,10.15c-3.65,3.32-12.33,8.29-13.19,12.68A45.6,45.6,0,0,0,18.44,31.51Z" opacity="0.32" fill="url(#bc0d28d1-7818-4ebf-ba0a-2830034e11ab)" style="isolation:isolate"/><path d="M18.44,30.9s9.67-15.08,9.27-18.42c0,0,4.06,6-9.44,22.29l.1-2.11Z" opacity="0.64" fill="url(#f44c7e6b-14f1-4c7f-a7c4-bd6a0f543fee)" style="isolation:isolate"/><path d="M18.3,29.06s-.63-5.16-2.64-7.7c0,0-.67-4.53,2.53-7C19.88,13,22.76,13.65,27,8.5,27.62,7.7,18.3,29.06,18.3,29.06Z" opacity="0.68" fill="url(#bee1798b-fedb-43ae-97d2-25ce728a159a)" style="isolation:isolate"/><path d="M29.41,24.28a16.39,16.39,0,0,1-4,4.87c-.77.71-1.56,1.43-2.35,2.13-.11.1-.43.47-.52.56a20.9,20.9,0,0,0-3.45,4.27c0,.08-.8,1.27-.86,1.37A13.13,13.13,0,0,1,18.83,34a52.65,52.65,0,0,1,3.23-6l1.07-1.42c.35-.4.7-.8,1.06-1.17.85-.89,1.51-1.93,2.35-2.82A16.33,16.33,0,0,0,27.81,21c.25-.43.55-.83.8-1.27a1.51,1.51,0,0,1-.1.7.52.52,0,0,0,0,.56c.42.47.35,3.48.5,3.55S29.36,24.29,29.41,24.28Z" opacity="0.42" fill="url(#b847d687-93e6-428b-b0b7-a94a8f4dfa15)" style="isolation:isolate"/></svg>