<svg id="ec6a294e-2e1b-45aa-8fd9-dd813f293668" data-name="Layer 1" xmlns="http://www.w3.org/2000/svg" xmlns:xlink="http://www.w3.org/1999/xlink" viewBox="0 0 130 44"><defs><linearGradient id="eee6f5f7-1596-4041-9cdd-a5e867c83ed7" x1="10.7" y1="23.94" x2="35.51" y2="18.48" gradientUnits="userSpaceOnUse"><stop offset="0.5" stop-color="#fdfeff"/><stop offset="1" stop-color="#fdfeff"/></linearGradient><linearGradient id="f4ad3815-98e4-4ec6-a9de-f7af98ac1140" x1="35.47" y1="27.32" x2="16.88" y2="27.5" gradientUnits="userSpaceOnUse"><stop offset="0.04" stop-color="#65139f"/><stop offset="0.16" stop-color="#601ba2" stop-opacity="0.93"/><stop offset="0.38" stop-color="#5431a9" stop-opacity="0.73"/><stop offset="0.67" stop-color="#3f55b6" stop-opacity="0.41"/><stop offset="1" stop-color="#2484c6" stop-opacity="0"/></linearGradient><linearGradient id="b55aa697-87db-4a7a-bf11-ea3108ecbaa4" x1="2.34" y1="27.06" x2="15.28" y2="26.25" gradientUnits="userSpaceOnUse"><stop offset="0" stop-color="#fdfeff"/><stop offset="0.23" stop-color="#fdfeff"/><stop offset="0.27" stop-color="#e3f4f5" stop-opacity="0.85"/><stop offset="0.31" stop-color="#caeaec" stop-opacity="0.71"/><stop offset="0.36" stop-color="#b4e1e3" stop-opacity="0.59"/><stop offset="0.42" stop-color="#a3dadd" stop-opacity="0.49"/><stop offset="0.47" stop-color="#95d5d8" stop-opacity="0.42"/><stop offset="0.53" stop-color="#8cd1d4" stop-opacity="0.36"/><stop offset="0.59" stop-color="#86cfd2" stop-opacity="0.33"/><stop offset="0.67" stop-color="#84ced1" stop-opacity="0.32"/><stop offset="0.89" stop-color="#fdfeff"/><stop offset="1" stop-color="#ab00d3"/></linearGradient><linearGradient id="a79462ee-bdd2-4bae-aaee-1b34ac6a8eeb" x1="35.19" y1="17.76" x2="14.49" y2="21.24" gradientUnits="userSpaceOnUse"><stop offset="0" stop-color="#fdfeff"/><stop offset="0.37" stop-color="#fdfeff"/><stop offset="0.67" stop-color="#fdfeff"/><stop offset="0.89" stop-color="#fdfeff"/><stop offset="1" stop-color="#fdfeff"/></linearGradient><linearGradient id="e559d645-8a1c-4eb7-9370-c11270c5b320" x1="13.58" y1="24.5" x2="8.66" y2="26.51" gradientUnits="userSpaceOnUse"><stop offset="0.04" stop-color="#65139f" stop-opacity="0.9"/><stop offset="0.17" stop-color="#601ca2" stop-opacity="0.83"/><stop offset="0.41" stop-color="#5235ab" stop-opacity="0.63"/><stop offset="0.72" stop-color="#3b5cb8" stop-opacity="0.32"/><stop offset="1" stop-color="#2484c6" stop-opacity="0"/></linearGradient><linearGradient id="be6b8c8b-428f-40ff-9096-7e28167681b3" x1="22.31" y1="19.9" x2="31.47" y2="18.3" gradientUnits="userSpaceOnUse"><stop offset="0.04" stop-color="#231f20"/><stop offset="0.44" stop-color="#234157" stop-opacity="0.67"/><stop offset="1" stop-color="#2484c6" stop-opacity="0"/></linearGradient><linearGradient id="bf8e852e-7f18-4736-99fa-1f492e00178b" x1="28.7" y1="6.35" x2="28.44" y2="6.39" gradientUnits="userSpaceOnUse"><stop offset="0.04" stop-color="#01aca6"/><stop offset="0.15" stop-color="#03a9a8" stop-opacity="0.93"/><stop offset="0.36" stop-color="#0aa2ae" stop-opacity="0.75"/><stop offset="0.63" stop-color="#1496b7" stop-opacity="0.46"/><stop offset="0.96" stop-color="#2286c4" stop-opacity="0.06"/><stop offset="1" stop-color="#2484c6" stop-opacity="0"/></linearGradient><linearGradient id="a86dd914-9f3e-418d-83f9-e43a2039bdef" x1="35.51" y1="19.55" x2="14.86" y2="23.02" xlink:href="#bf8e852e-7f18-4736-99fa-1f492e00178b"/><linearGradient id="e535fd6d-55cb-4cfa-b639-48c3d57543d0" x1="30.8" y1="6.79" x2="33.68" y2="7.31" xlink:href="#be6b8c8b-428f-40ff-9096-7e28167681b3"/><linearGradient id="efe8b635-5245-456c-9bc3-ce8e04d416d2" x1="27.87" y1="22.88" x2="30.75" y2="23.41" xlink:href="#be6b8c8b-428f-40ff-9096-7e28167681b3"/><linearGradient id="a646ecd1-5454-40c0-b7dc-c923ac660b8d" x1="36.06" y1="5.58" x2="26.34" y2="6.61" gradientUnits="userSpaceOnUse"><stop offset="0.63" stop-color="#fdfeff"/><stop offset="0.71" stop-color="#fefeff" stop-opacity="0.73"/><stop offset="0.78" stop-color="#feffff" stop-opacity="0.48"/><stop offset="0.86" stop-color="#feffff" stop-opacity="0.27"/><stop offset="0.92" stop-color="#fff" stop-opacity="0.12"/><stop offset="0.97" stop-color="#fff" stop-opacity="0.03"/><stop offset="1" stop-color="#fff" stop-opacity="0"/></linearGradient><linearGradient id="bf2e6088-52f2-44ad-a12c-4089be54bf32" x1="37.6" y1="20.16" x2="27.89" y2="21.19" xlink:href="#a646ecd1-5454-40c0-b7dc-c923ac660b8d"/><linearGradient id="a7cac371-b131-42c8-9395-bd8abf1af187" x1="38.99" y1="15.07" x2="34.86" y2="11.8" xlink:href="#a646ecd1-5454-40c0-b7dc-c923ac660b8d"/><linearGradient id="bb625b72-a5b4-462e-b30f-ab4f2fdc4406" x1="28.96" y1="27.73" x2="24.83" y2="24.46" xlink:href="#a646ecd1-5454-40c0-b7dc-c923ac660b8d"/><linearGradient id="e24192e8-4f85-4699-af8e-b2f8098b136a" x1="24.33" y1="12.49" x2="28.23" y2="19.47" xlink:href="#be6b8c8b-428f-40ff-9096-7e28167681b3"/><linearGradient id="bd5e2fe4-287b-4a9a-861e-ba13afff2862" x1="-235.61" y1="625.74" x2="-231.71" y2="632.73" gradientTransform="matrix(0.75, 0.3, -0.37, 0.93, 436.9, -491.14)" xlink:href="#be6b8c8b-428f-40ff-9096-7e28167681b3"/><linearGradient id="f40e5e21-b4bc-4fc8-a152-7f78d4222547" x1="83.33" y1="712.95" x2="87.23" y2="715.2" gradientTransform="translate(247.18 -652.62) rotate(24.84)" gradientUnits="userSpaceOnUse"><stop offset="0.04" stop-color="#65139f" stop-opacity="0.8"/><stop offset="0.18" stop-color="#5f1da3" stop-opacity="0.73"/><stop offset="0.44" stop-color="#4f39ac" stop-opacity="0.53"/><stop offset="0.79" stop-color="#3665bb" stop-opacity="0.22"/><stop offset="1" stop-color="#2484c6" stop-opacity="0"/></linearGradient><linearGradient id="a700bd98-2969-4396-af41-dd4c9a1edd27" x1="522.45" y1="-1168.74" x2="526.09" y2="-1166.64" gradientTransform="matrix(0.49, 0.79, 0.75, -0.46, 644.05, -930.08)" xlink:href="#be6b8c8b-428f-40ff-9096-7e28167681b3"/><linearGradient id="b1d596e4-c0b5-46d0-9d9b-c34ab4b60a45" x1="35.2" y1="17.76" x2="14.49" y2="21.24" xlink:href="#f4ad3815-98e4-4ec6-a9de-f7af98ac1140"/><linearGradient id="afb0d603-3779-4a45-9803-210d3585108b" x1="20.05" y1="23.51" x2="22.57" y2="24.96" gradientTransform="matrix(1, 0, 0, 1, 0, 0)" xlink:href="#f40e5e21-b4bc-4fc8-a152-7f78d4222547"/><linearGradient id="be930559-f121-4a03-8fa0-38a01b6197a1" x1="12.58" y1="19.51" x2="18.32" y2="18.89" gradientTransform="matrix(1, 0, 0, 1, 0, 0)" xlink:href="#f40e5e21-b4bc-4fc8-a152-7f78d4222547"/><linearGradient id="ac304444-d58a-4005-868a-664e5804823d" x1="257.69" y1="-612.43" x2="258.73" y2="-611.09" gradientTransform="translate(46.35 692.07) rotate(-25.1)" gradientUnits="userSpaceOnUse"><stop offset="0.37" stop-color="#65139f"/><stop offset="0.45" stop-color="#601ba2" stop-opacity="0.93"/><stop offset="0.59" stop-color="#5431a9" stop-opacity="0.73"/><stop offset="0.78" stop-color="#3f55b6" stop-opacity="0.41"/><stop offset="1" stop-color="#2484c6" stop-opacity="0"/></linearGradient><linearGradient id="eef413bb-4c2c-4339-935b-566aa29dc518" x1="22.61" y1="35.1" x2="23.62" y2="36.4" xlink:href="#be6b8c8b-428f-40ff-9096-7e28167681b3"/><linearGradient id="b6d0c154-21e3-471c-b65a-0fe62a8aee6f" x1="25.9" y1="37.09" x2="16.25" y2="35.08" gradientUnits="userSpaceOnUse"><stop offset="0" stop-color="#65139f"/><stop offset="1" stop-color="#fff" stop-opacity="0"/></linearGradient><linearGradient id="f03b9e37-c8d4-4ee2-9174-1ab5e5259034" x1="32.84" y1="-81.92" x2="33.88" y2="-80.58" gradientTransform="matrix(1, -0.07, 0.07, 1, -3.72, 115.34)" gradientUnits="userSpaceOnUse"><stop offset="0.37" stop-color="#231f20"/><stop offset="0.63" stop-color="#234157" stop-opacity="0.67"/><stop offset="1" stop-color="#2484c6" stop-opacity="0"/></linearGradient></defs><path d="M36,24.54a.47.47,0,0,0,0-.2.63.63,0,0,0-.61-.54.6.6,0,0,0-.63.45c0,.12-.34.66-.59,1.1a17.22,17.22,0,0,1-1.51,2.18,16.06,16.06,0,0,0,2.15-3.86,21.24,21.24,0,0,0,1-6.89A25.09,25.09,0,0,0,35.57,13l0-.09,0-.07a.71.71,0,0,0-.62-.36.76.76,0,0,0-.59.38l-.07.15,0,.15v0l0,.06,0,.16v.06a17.63,17.63,0,0,1-1,4.94q.1-.37.18-.69c0-.13.07-.26.1-.38a11.14,11.14,0,0,0,.32-2.85v-.36A16.68,16.68,0,0,0,33.7,12a13.94,13.94,0,0,0-1.61-3.9l-1.93-2.9a2.37,2.37,0,0,0-.39-.49.6.6,0,0,0-.43-.16h-.09a.47.47,0,0,0-.28.18.47.47,0,0,0-.1.33v.1c-.05.27.11.88,1.12,3a3.3,3.3,0,0,1,.19.69,3.39,3.39,0,0,1-.39-.78l0-.08a2.56,2.56,0,0,0-.11-.24l-.06-.13c-.16-.36-.32-.71-.49-1h0c-.14-.28-.29-.55-.44-.79h0a9.49,9.49,0,0,0-1.93-2.36A16.39,16.39,0,0,1,25.34,1.9a3.71,3.71,0,0,0-.54-.6l-.19-.09a.48.48,0,0,0-.46.12.6.6,0,0,0-.13.5.85.85,0,0,0,0,.35A7.54,7.54,0,0,1,24.32,4c-.09,5.8-7.54,9-7.62,9a7.77,7.77,0,0,0-1.62.93l0,0-.08.06-.05,0,0,0-.26.22-.09.08,0,0-.15.15-.21.22,0,0a7.91,7.91,0,0,0-1.87,5.21,8.33,8.33,0,0,0-3.49-2.42,10,10,0,0,1-6.06-6.28L1.9,8.27l0,24.1v.25c0,2.88,4.73,5.06,4.93,5.15,5.48,2.44,6.76,4.27,6.83,4.38l.1.19.37.46.32-.27a25.58,25.58,0,0,1,9.81-4.7,16.27,16.27,0,0,0,3.4-1.23c4.31-2.52,5.7-5.21,5.81-5.45A20.45,20.45,0,0,0,36,24.59.09.09,0,0,0,36,24.54Z" fill="#fff"/><path d="M35.61,24.64c0-.22-.38-.23-.42,0a12.37,12.37,0,0,1-.64,1.2,14,14,0,0,1-5.61,5.66c-1.29-.07.07-.92.07-.92a16,16,0,0,0,5.43-7,23.87,23.87,0,0,0,.75-10.22.28.28,0,0,0-.51,0c.15.67-.58,5.94-1.92,6.84a1.14,1.14,0,0,1-.58.22,28.08,28.08,0,0,0,1-3.15,14.8,14.8,0,0,0,.18-4.82,14.09,14.09,0,0,0-1.54-3.79l-1.94-3s-.36-.61-.51-.41A13.35,13.35,0,0,0,30.41,8c.39,1.06.34,1.75-.25,1.62-.34-.08-.63-.85-.76-1.18A11.06,11.06,0,0,0,26.47,4c-.89-.81-1.68-1.94-1.88-2.08s-.11.18-.11.18c2.07,7.57-7.59,11.62-7.59,11.62-4.82,2.08-4.18,7.24-4.1,7.76v.17a8.39,8.39,0,0,0-4.11-3.33,10.39,10.39,0,0,1-6.33-6.56l0,20.88C2.33,35.26,7,37.39,7,37.39,12.89,40,14,42,14,42l.1.2.05.06c5.1-4.29,10.93-4.61,13.27-6C31.8,33.69,33.09,31,33.09,31A21.23,21.23,0,0,0,35.61,24.64Z" fill="url(#eee6f5f7-1596-4041-9cdd-a5e867c83ed7)"/><path d="M14.17,42l.42-2.69a19,19,0,0,1,7.35-8.12l8-15.75s1.4-3.41,1.13,3.22c0,0,.35,2.17,1.69,1.27s2.07-6.17,1.92-6.84a.28.28,0,0,1,.51,0,23.91,23.91,0,0,1-.75,10.23,16,16,0,0,1-5.43,7s-1.36.85-.07.92a14.05,14.05,0,0,0,5.61-5.65,11.57,11.57,0,0,0,.64-1.21c0-.19.39-.17.42,0a21.23,21.23,0,0,1-2.52,6.32S31.8,33.45,27.44,36C25.1,37.36,19.27,37.68,14.17,42Z" opacity="0.32" fill="url(#f4ad3815-98e4-4ec6-a9de-f7af98ac1140)"/><path d="M14,41.7s-1.13-1.93-7-4.56c0,0-4.66-2.13-4.68-4.77l0-20.89A10.39,10.39,0,0,0,8.67,18c5.09,1.85,6.05,8.16,6.1,8.35a29.61,29.61,0,0,1,.49,5.76c-.1,2.38-.29,3.62-.29,3.62s-.84,5.76-.85,6.13Z" fill="url(#b55aa697-87db-4a7a-bf11-ea3108ecbaa4)"/><path d="M15.49,31.16c-.09-6.45-2.26-9.36-2.7-9.92,0,0-1-5.6,4.1-7.8,0,0,9.66-4,7.59-11.62,0,0-.08-.31.11-.17s1,1.26,1.88,2.07A11,11,0,0,1,29.4,8.19c.13.32.42,1.09.76,1.17.59.14.64-.55.25-1.62A13.13,13.13,0,0,1,29.33,5c.15-.2.51.42.51.42l1.94,2.95a14.09,14.09,0,0,1,1.54,3.79A14.87,14.87,0,0,1,33.14,17a17.81,17.81,0,0,1-5.71,9.83c-3.55,3.23-12,8.06-12.82,12.36A44.55,44.55,0,0,0,15.49,31.16Z" fill="url(#a79462ee-bdd2-4bae-aaee-1b34ac6a8eeb)"/><path d="M14,41.7s1.25-1.55-4.65-4.18c0,0-4.66-2.13-4.68-4.77L2.34,11.48A10.39,10.39,0,0,0,8.67,18c5.09,1.85,6.05,8.16,6.1,8.35a29.61,29.61,0,0,1,.49,5.76c-.1,2.38-.29,3.62-.29,3.62s-.84,5.76-.85,6.13Z" fill="url(#e559d645-8a1c-4eb7-9370-c11270c5b320)"/><path d="M15.2,35.57c.69-1.89,2.74-5.72,8.68-13,0,0,7-9.58,1.19-19,0,0,8.88,11.84,0,20.77A150.7,150.7,0,0,0,15,37.06s.06-.23.19-1.39A.29.29,0,0,1,15.2,35.57Z" opacity="0.64" fill="url(#be6b8c8b-428f-40ff-9096-7e28167681b3)"/><path d="M28.33,6c.13.25.27.51.43.77C28.61,6.48,28.47,6.22,28.33,6Z" opacity="0.32" fill="url(#bf8e852e-7f18-4736-99fa-1f492e00178b)"/><path d="M33.32,12.05a13.68,13.68,0,0,0-1.55-3.74L29.84,5.4s-.36-.61-.51-.41A13,13,0,0,0,30.41,7.7c.39,1,.34,1.73-.25,1.6-.34-.08-.63-.84-.76-1.16-.06-.13-.14-.26-.19-.38,1.88,5-1,14-3.32,16.37C23.37,26.74,15.1,35.85,15.1,35.85c-.24,1.64-.49,2.84-.49,2.84.84-4.24,9.27-9,12.82-12.19a17.48,17.48,0,0,0,5.71-9.69A14.44,14.44,0,0,0,33.32,12.05Z" opacity="0.32" fill="url(#a86dd914-9f3e-418d-83f9-e43a2039bdef)"/><path d="M28.33,6c.13.25.27.51.43.77C28.61,6.48,28.47,6.22,28.33,6Z" opacity="0.32" fill="url(#e535fd6d-55cb-4cfa-b639-48c3d57543d0)"/><path d="M33.32,12.05a13.68,13.68,0,0,0-1.55-3.74L29.83,5.4s-.35-.61-.5-.41A13,13,0,0,0,30.41,7.7c.39,1,.34,1.73-.25,1.6-.34-.08-.63-.84-.76-1.16-.06-.13-.13-.26-.18-.38,1.88,5-1,14-3.33,16.37C23.37,26.74,15.1,35.85,15.1,35.85c-.24,1.64-.49,2.84-.49,2.84.83-4.24,9.27-9,12.82-12.19a17.48,17.48,0,0,0,5.71-9.69A14.44,14.44,0,0,0,33.32,12.05Z" opacity="0.32" fill="url(#efe8b635-5245-456c-9bc3-ce8e04d416d2)"/><path d="M28.33,6c.13.25.27.51.43.77C28.62,6.48,28.47,6.23,28.33,6Z" opacity="0.32" fill="url(#a646ecd1-5454-40c0-b7dc-c923ac660b8d)"/><path d="M33.32,12.05a13.78,13.78,0,0,0-1.54-3.74L29.84,5.4s-.36-.61-.51-.41A13.56,13.56,0,0,0,30.41,7.7c.39,1.06.34,1.73-.25,1.6-.34-.08-.63-.84-.76-1.16,0-.13-.13-.26-.18-.38,1.88,5-1,14-3.33,16.37C23.37,26.74,15.1,35.85,15.1,35.85c-.24,1.64-.49,2.84-.49,2.84.84-4.24,9.27-9,12.83-12.19a17.51,17.51,0,0,0,5.7-9.69A14.44,14.44,0,0,0,33.32,12.05Z" opacity="0.32" fill="url(#bf2e6088-52f2-44ad-a12c-4089be54bf32)"/><path d="M28.33,6.41c.13.25.27.51.43.77C28.61,6.9,28.47,6.64,28.33,6.41Z" opacity="0.32" fill="url(#a7cac371-b131-42c8-9395-bd8abf1af187)"/><path d="M33.32,12.47a13.68,13.68,0,0,0-1.55-3.74L29.83,5.82s-.35-.61-.5-.41a13,13,0,0,0,1.08,2.71c.39,1.05.34,1.73-.25,1.6-.34-.08-.63-.84-.76-1.16-.06-.13-.13-.26-.18-.38,1.88,5-1,14-3.33,16.37C23.37,27.16,15.1,36.27,15.1,36.27c-.24,1.64-.49,2.84-.49,2.84.83-4.24,9.27-9,12.82-12.19a17.52,17.52,0,0,0,5.71-9.69A14.44,14.44,0,0,0,33.32,12.47Z" opacity="0.32" fill="url(#bb625b72-a5b4-462e-b30f-ab4f2fdc4406)"/><path d="M24,22.32h2.67C32.69,13.7,25,3.46,25,3.46,30.36,12.15,24.89,20.93,24,22.32Z" opacity="0.64" fill="url(#e24192e8-4f85-4699-af8e-b2f8098b136a)"/><path d="M22.17,27.27l2,.81c7.79-6.16,5.74-18,5.74-18C30.72,19.77,23.39,26.27,22.17,27.27Z" opacity="0.64" fill="url(#bd5e2fe4-287b-4a9a-861e-ba13afff2862)"/><path d="M15.1,35.85c6.5-5.34,14.38-8.16,17.18-15.74,0,0,.85,10-17.71,18.88l.37-2.11Z" fill="url(#f40e5e21-b4bc-4fc8-a152-7f78d4222547)"/><path d="M17.31,33.88c-1.68-1.32,7.13-6.61,12.81-19.59L29.49,18S28.57,28.44,17.31,33.88Z" opacity="0.64" fill="url(#a700bd98-2969-4396-af41-dd4c9a1edd27)"/><path d="M15.49,31.16c-.09-6.45-2.26-9.36-2.7-9.92,0,0-1-5.6,4.1-7.8,0,0,9.66-4,7.59-11.62,0,0-.08-.31.11-.17s1,1.26,1.88,2.07A11,11,0,0,1,29.4,8.19c.13.32.42,1.09.76,1.17.59.14.64-.55.25-1.62A13.7,13.7,0,0,1,29.33,5c.15-.2.51.42.51.42l1.94,2.95a14.09,14.09,0,0,1,1.54,3.79A14.87,14.87,0,0,1,33.14,17a17.84,17.84,0,0,1-5.7,9.83c-3.56,3.23-12,8.06-12.83,12.36A44.55,44.55,0,0,0,15.49,31.16Z" opacity="0.32" fill="url(#b1d596e4-c0b5-46d0-9d9b-c34ab4b60a45)"/><path d="M15.49,30.57s9.41-14.66,9-18c0,0,3.94,5.83-9.18,21.67l.1-2.06Z" fill="url(#afb0d603-3779-4a45-9803-210d3585108b)"/><path d="M15.36,28.79s-.6-5-2.57-7.55c0,0-.65-4.4,2.49-6.85,1.63-1.27,4.44-.64,8.55-5.65C24.42,8,15.36,28.79,15.36,28.79Z" fill="url(#be930559-f121-4a03-8fa0-38a01b6197a1)"/><path d="M26.17,24.13a16.07,16.07,0,0,1-3.9,4.74c-.76.69-1.52,1.39-2.29,2.07l-.5.54a20.64,20.64,0,0,0-3.36,4.16c-.05.07-.77,1.27-.84,1.33a13,13,0,0,1,.57-3.41A49.94,49.94,0,0,1,19,27.76l1-1.39c.34-.38.68-.76,1-1.13.83-.86,1.47-1.87,2.28-2.74a14.3,14.3,0,0,0,1.18-1.57c.25-.41.54-.8.78-1.22a1.19,1.19,0,0,1-.1.67.51.51,0,0,0,0,.55c.41.46.34,3.38.49,3.45S26.11,24.14,26.17,24.13Z" opacity="0.42" fill="url(#ac304444-d58a-4005-868a-664e5804823d)"/><path d="M29.79,34.1a15.76,15.76,0,0,1-5.42,2.58l-2.89.89-.67.27a19.87,19.87,0,0,0-4.7,2.29c-.08,0-1.21.81-1.3.83a12.27,12.27,0,0,1,1.93-2.79,49.08,49.08,0,0,1,5.19-3.83c.39-.21,1.46-.77,1.49-.8.47-.19.92-.4,1.39-.58,1.09-.41,2.08-1,3.16-1.47a17.33,17.33,0,0,0,1.7-.9c.39-.27.81-.49,1.19-.77a1.16,1.16,0,0,1-.36.56.5.5,0,0,0-.2.5c.17.57-1.1,3.14-1,3.26S29.74,34.09,29.79,34.1Z" opacity="0.42" fill="url(#eef413bb-4c2c-4339-935b-566aa29dc518)"/><path d="M14.81,41c6.67-4.4,13.7-3.58,17-8.81-3.81,3.54-5.41,2.72-15,5.92A8.83,8.83,0,0,0,14.81,41Z" fill="url(#b6d0c154-21e3-471c-b65a-0fe62a8aee6f)"/><path d="M30.42,29.74a15.91,15.91,0,0,1-5.34,3L22.2,33.89c-.14,0-.55.27-.66.32a20.17,20.17,0,0,0-4.63,2.68c-.07,0-1.17.91-1.25.94a12.48,12.48,0,0,1,1.75-3,49.79,49.79,0,0,1,5-4.29c.38-.24,1.44-.89,1.47-.92.46-.23.91-.47,1.37-.69,1.08-.51,2-1.21,3.11-1.73a17.26,17.26,0,0,0,1.67-1c.38-.3.79-.56,1.16-.87a1.23,1.23,0,0,1-.33.6.5.5,0,0,0-.17.52c.22.58-.89,3.28-.78,3.4S30.37,29.73,30.42,29.74Z" opacity="0.42" fill="url(#f03b9e37-c8d4-4ee2-9174-1ab5e5259034)"/><path d="M50.91,33.57a5.21,5.21,0,0,1-2.57.55,5.59,5.59,0,0,1-2.21-.44,5.46,5.46,0,0,1-1.75-1.18,5.16,5.16,0,0,1-1.14-1.74,5.4,5.4,0,0,1-.42-2.13v0a5.47,5.47,0,0,1,.42-2.13,5.24,5.24,0,0,1,1.14-1.76,5.33,5.33,0,0,1,1.75-1.19,5.68,5.68,0,0,1,2.25-.44,5.26,5.26,0,0,1,4.24,1.78l-1.84,2A5.34,5.34,0,0,0,49.72,26a2.71,2.71,0,0,0-1.36-.31,2.36,2.36,0,0,0-1,.22,2.47,2.47,0,0,0-.81.63,2.71,2.71,0,0,0-.53.92,3.18,3.18,0,0,0-.19,1.12v0A3.3,3.3,0,0,0,46,29.74a2.53,2.53,0,0,0,.54.93,2.5,2.5,0,0,0,2,.85,2.79,2.79,0,0,0,1.32-.3,6.08,6.08,0,0,0,1.11-.82l1.77,1.78A7,7,0,0,1,50.91,33.57Z" fill="#fff"/><path d="M65.26,30.74a5.33,5.33,0,0,1-1.21,1.75,5.52,5.52,0,0,1-1.82,1.19,5.88,5.88,0,0,1-2.29.44,6.09,6.09,0,0,1-2.28-.43,5.43,5.43,0,0,1-1.81-1.17,5.34,5.34,0,0,1-1.63-3.89v0a5.28,5.28,0,0,1,.43-2.14,5.49,5.49,0,0,1,1.21-1.75,5.63,5.63,0,0,1,1.82-1.19,6,6,0,0,1,2.3-.44,5.85,5.85,0,0,1,2.27.43,5.38,5.38,0,0,1,3,2.91,5.3,5.3,0,0,1,.44,2.15v0A5.3,5.3,0,0,1,65.26,30.74Zm-2.53-2.15a3.17,3.17,0,0,0-.2-1.11,2.78,2.78,0,0,0-.57-.93,2.88,2.88,0,0,0-.89-.65,2.66,2.66,0,0,0-1.13-.23,2.82,2.82,0,0,0-1.16.22,2.46,2.46,0,0,0-.86.63,2.57,2.57,0,0,0-.54.92,3.18,3.18,0,0,0-.19,1.12v0a3,3,0,0,0,.2,1.12,2.78,2.78,0,0,0,.57.93,2.84,2.84,0,0,0,.88.65,2.8,2.8,0,0,0,1.14.23,2.86,2.86,0,0,0,1.16-.22,2.7,2.7,0,0,0,.86-.63,2.73,2.73,0,0,0,.54-.92,3.18,3.18,0,0,0,.19-1.12Z" fill="#fff"/><path d="M74.68,33.88V28a2.42,2.42,0,0,0-.47-1.61,1.69,1.69,0,0,0-1.35-.55,1.74,1.74,0,0,0-1.37.55A2.27,2.27,0,0,0,71,28v5.9H68V23.27h3v1.52a5.77,5.77,0,0,1,.57-.65,3.64,3.64,0,0,1,.68-.55,3.7,3.7,0,0,1,.83-.38,3.61,3.61,0,0,1,1-.14,3.38,3.38,0,0,1,2.66,1.05A4.16,4.16,0,0,1,77.69,27v6.87Z" fill="#fff"/><path d="M87.87,32.19A2.78,2.78,0,0,1,87,33.25a4.07,4.07,0,0,1-1.29.62,5.89,5.89,0,0,1-1.6.21,7.47,7.47,0,0,1-4.55-1.61l1.29-2a6.93,6.93,0,0,0,1.73,1,4.47,4.47,0,0,0,1.61.32,1.62,1.62,0,0,0,1-.22.65.65,0,0,0,.31-.57v0a.58.58,0,0,0-.18-.42,1.58,1.58,0,0,0-.48-.3A6.42,6.42,0,0,0,84.1,30l-.83-.26a10.57,10.57,0,0,1-1.12-.38,4,4,0,0,1-1-.6,2.84,2.84,0,0,1-.74-.9,2.72,2.72,0,0,1-.28-1.3v0A3.1,3.1,0,0,1,81.24,24a3.62,3.62,0,0,1,1.23-.65A5.25,5.25,0,0,1,84,23.11a6.7,6.7,0,0,1,2,.33,7.62,7.62,0,0,1,1.91.9l-1.15,2.08a8.15,8.15,0,0,0-1.54-.72,4,4,0,0,0-1.33-.27,1.39,1.39,0,0,0-.83.21.62.62,0,0,0-.27.52v0a.53.53,0,0,0,.18.39,1.82,1.82,0,0,0,.47.31,6.32,6.32,0,0,0,.68.29l.82.28c.37.12.75.26,1.13.42a4.75,4.75,0,0,1,1,.61,2.75,2.75,0,0,1,.75.87,2.42,2.42,0,0,1,.3,1.24v0A3.47,3.47,0,0,1,87.87,32.19Z" fill="#fff"/><path d="M97.07,33.88V32.36a5.77,5.77,0,0,1-.57.65,3.64,3.64,0,0,1-.68.55,3.33,3.33,0,0,1-1.86.52,3.37,3.37,0,0,1-2.66-1,4.16,4.16,0,0,1-.94-2.89V23.27h3v5.9a2.36,2.36,0,0,0,.47,1.61,1.69,1.69,0,0,0,1.35.55,1.74,1.74,0,0,0,1.37-.55,2.27,2.27,0,0,0,.51-1.61v-5.9h3V33.88Z" fill="#fff"/><path d="M103,33.88V19.43h3V33.88Z" fill="#fff"/><path d="M113.85,33.89a5.29,5.29,0,0,1-2.58,0,2.24,2.24,0,0,1-1-.53,2.46,2.46,0,0,1-.64-1,4.42,4.42,0,0,1-.22-1.53v-5h-1.27V23.27h1.27V20.56h3v2.71h2.5v2.57h-2.5v4.54c0,.68.33,1,1,1A3.08,3.08,0,0,0,114.9,31v2.41A4.49,4.49,0,0,1,113.85,33.89Z" fill="#fff"/><path d="M127.14,29.25c0,.1,0,.23,0,.37h-7.38a2.5,2.5,0,0,0,.9,1.56,2.68,2.68,0,0,0,1.69.52,3.25,3.25,0,0,0,1.35-.26,4.4,4.4,0,0,0,1.22-.83l1.72,1.53a5.25,5.25,0,0,1-1.82,1.45,5.63,5.63,0,0,1-2.51.53,6.15,6.15,0,0,1-2.21-.4,5.07,5.07,0,0,1-1.76-1.13,5.32,5.32,0,0,1-1.16-1.73,5.9,5.9,0,0,1-.41-2.23v0a6,6,0,0,1,.38-2.13,5.42,5.42,0,0,1,1.08-1.76A5.08,5.08,0,0,1,122,23.07a5.13,5.13,0,0,1,2.3.48,4.69,4.69,0,0,1,1.61,1.27,5.24,5.24,0,0,1,1,1.85,7.37,7.37,0,0,1,.31,2.16v0C127.15,29,127.15,29.14,127.14,29.25Zm-3.63-3.14a2.21,2.21,0,0,0-3.06,0,3.1,3.1,0,0,0-.76,1.64h4.53A2.94,2.94,0,0,0,123.51,26.11Z" fill="#fff"/></svg>