<svg id="a16f3714-44e5-4270-a620-e1078c59c8e5" data-name="Layer 1" xmlns="http://www.w3.org/2000/svg" xmlns:xlink="http://www.w3.org/1999/xlink" viewBox="0 0 130 44"><defs><linearGradient id="ba4fdf57-3ad5-4b06-a605-0f6eb3da83f7" x1="10.2" y1="24.01" x2="34.87" y2="18.59" gradientUnits="userSpaceOnUse"><stop offset="0.5" stop-color="#313ea8"/><stop offset="0.57" stop-color="#2953a9"/><stop offset="0.77" stop-color="#1487aa"/><stop offset="0.92" stop-color="#07a7ac"/><stop offset="1" stop-color="#02b3ac"/></linearGradient><linearGradient id="b32eadbd-2cd5-4606-afac-40d87d21ee78" x1="34.84" y1="27.37" x2="16.34" y2="27.56" gradientUnits="userSpaceOnUse"><stop offset="0" stop-color="#01a9a8"/><stop offset="0.16" stop-color="#0286c3"/><stop offset="0.28" stop-color="#026fd4"/><stop offset="0.49" stop-color="#2724c2"/><stop offset="0.6" stop-color="#3901b9"/><stop offset="0.88" stop-color="#26025d"/></linearGradient><linearGradient id="b58ed436-3c1a-4acd-bb4f-878af1f2a1c8" x1="1.89" y1="27.12" x2="14.76" y2="26.31" gradientUnits="userSpaceOnUse"><stop offset="0" stop-color="#65139f"/><stop offset="0.12" stop-color="#8412be"/><stop offset="0.23" stop-color="#9a11d5"/><stop offset="0.29" stop-color="#800ebe"/><stop offset="0.37" stop-color="#690ba9"/><stop offset="0.46" stop-color="#58099a"/><stop offset="0.55" stop-color="#4e0891"/><stop offset="0.67" stop-color="#4b088e"/><stop offset="0.89" stop-color="#33036a"/><stop offset="1" stop-color="#1a004b"/></linearGradient><linearGradient id="a2e03195-d59b-4bf1-b03e-ed1550146aaf" x1="34.56" y1="17.87" x2="13.97" y2="21.33" gradientUnits="userSpaceOnUse"><stop offset="0" stop-color="#01a9a8"/><stop offset="0.25" stop-color="#0271d3"/><stop offset="0.37" stop-color="#025ae4"/><stop offset="0.54" stop-color="#2324ca"/><stop offset="0.67" stop-color="#3901b9"/><stop offset="0.89" stop-color="#42067d"/><stop offset="1" stop-color="#1a004b"/></linearGradient><linearGradient id="fd65a3a8-bec1-4f21-8918-f24410c41fbf" x1="21.7" y1="35.52" x2="22.71" y2="36.82" gradientUnits="userSpaceOnUse"><stop offset="0.04" stop-color="#231f20"/><stop offset="0.44" stop-color="#234157" stop-opacity="0.67"/><stop offset="1" stop-color="#2484c6" stop-opacity="0"/></linearGradient><linearGradient id="ec9e29e3-6189-4474-9640-17d501bc414d" x1="13.07" y1="24.57" x2="8.18" y2="26.57" xlink:href="#fd65a3a8-bec1-4f21-8918-f24410c41fbf"/><linearGradient id="a9881196-6723-4896-8c23-b3401a0e20f2" x1="24.97" y1="37.51" x2="15.38" y2="35.51" gradientUnits="userSpaceOnUse"><stop offset="0" stop-color="#231f20"/><stop offset="1" stop-color="#231f20" stop-opacity="0"/></linearGradient><linearGradient id="ec9db4e4-ccf2-42a8-b564-246d6e979df4" x1="21.75" y1="20" x2="30.86" y2="18.41" xlink:href="#fd65a3a8-bec1-4f21-8918-f24410c41fbf"/><linearGradient id="ba8c25ff-9b66-4473-915b-7e493cb03e2a" x1="28.1" y1="6.53" x2="27.84" y2="6.57" gradientUnits="userSpaceOnUse"><stop offset="0.04" stop-color="#01aca6"/><stop offset="0.15" stop-color="#03a9a8" stop-opacity="0.93"/><stop offset="0.36" stop-color="#0aa2ae" stop-opacity="0.75"/><stop offset="0.63" stop-color="#1496b7" stop-opacity="0.46"/><stop offset="0.96" stop-color="#2286c4" stop-opacity="0.06"/><stop offset="1" stop-color="#2484c6" stop-opacity="0"/></linearGradient><linearGradient id="bc136560-ee98-4539-8fb8-62148c2b9645" x1="34.87" y1="19.65" x2="14.34" y2="23.1" xlink:href="#ba8c25ff-9b66-4473-915b-7e493cb03e2a"/><linearGradient id="fe700463-ad61-4141-a028-35e6da579222" x1="30.19" y1="6.96" x2="33.05" y2="7.48" xlink:href="#fd65a3a8-bec1-4f21-8918-f24410c41fbf"/><linearGradient id="b7ad3c58-b64e-4ec3-ad64-ef4d4ba32285" x1="27.28" y1="22.97" x2="30.14" y2="23.49" xlink:href="#fd65a3a8-bec1-4f21-8918-f24410c41fbf"/><linearGradient id="b9e15e3e-9d8e-418b-81f9-346c4d6c7796" x1="35.42" y1="5.76" x2="25.76" y2="6.78" gradientUnits="userSpaceOnUse"><stop offset="0.63" stop-color="#03b1ad"/><stop offset="0.72" stop-color="#53cac7" stop-opacity="0.68"/><stop offset="0.81" stop-color="#9de1df" stop-opacity="0.39"/><stop offset="0.89" stop-color="#d2f1f0" stop-opacity="0.18"/><stop offset="0.96" stop-color="#f3fbfb" stop-opacity="0.05"/><stop offset="1" stop-color="#fff" stop-opacity="0"/></linearGradient><linearGradient id="ef41140d-38e2-480c-a779-a1159449858a" x1="36.96" y1="20.26" x2="27.3" y2="21.29" xlink:href="#b9e15e3e-9d8e-418b-81f9-346c4d6c7796"/><linearGradient id="bf542a7d-cd81-40a4-9936-5c8cdd78a8d7" x1="38.33" y1="14.78" x2="34.23" y2="11.53" xlink:href="#b9e15e3e-9d8e-418b-81f9-346c4d6c7796"/><linearGradient id="b1e4f59f-562f-4d1d-ba78-e69d8904c9a5" x1="28.36" y1="27.37" x2="24.26" y2="24.12" xlink:href="#b9e15e3e-9d8e-418b-81f9-346c4d6c7796"/><linearGradient id="fafe5c9e-e1e6-4f39-9b10-bfbc0a5f0106" x1="23.76" y1="12.63" x2="27.63" y2="19.57" xlink:href="#fd65a3a8-bec1-4f21-8918-f24410c41fbf"/><linearGradient id="b89b4f57-08e0-4ddd-ace9-f23f8ffe52d9" x1="-259.58" y1="629.72" x2="-255.7" y2="636.67" gradientTransform="matrix(0.75, 0.3, -0.37, 0.93, 455.89, -487.47)" xlink:href="#fd65a3a8-bec1-4f21-8918-f24410c41fbf"/><linearGradient id="ea2ca100-2583-4e1a-ab34-889d35ca0b4b" x1="35.54" y1="-81.4" x2="36.58" y2="-80.07" gradientTransform="matrix(1, -0.07, 0.07, 1, -7.37, 115.47)" gradientUnits="userSpaceOnUse"><stop offset="0.37" stop-color="#231f20"/><stop offset="0.63" stop-color="#234157" stop-opacity="0.67"/><stop offset="1" stop-color="#2484c6" stop-opacity="0"/></linearGradient><linearGradient id="f168b685-7094-4874-8c4e-da01b00058b1" x1="61.43" y1="717.9" x2="65.31" y2="720.14" gradientTransform="translate(268.61 -647.9) rotate(24.84)" xlink:href="#fd65a3a8-bec1-4f21-8918-f24410c41fbf"/><linearGradient id="a807fdd3-17ff-4317-9267-e9ea8546d25d" x1="475.47" y1="-1087.85" x2="479.09" y2="-1085.76" gradientTransform="matrix(0.49, 0.79, 0.75, -0.46, 605.85, -855.42)" xlink:href="#fd65a3a8-bec1-4f21-8918-f24410c41fbf"/><linearGradient id="fab16d27-7bae-411d-b790-eaf69b5204f1" x1="34.56" y1="17.87" x2="13.98" y2="21.33" xlink:href="#ba8c25ff-9b66-4473-915b-7e493cb03e2a"/><linearGradient id="a62a6f94-94a5-4e3e-a587-b59979349255" x1="19.5" y1="23.59" x2="22.01" y2="25.03" xlink:href="#fd65a3a8-bec1-4f21-8918-f24410c41fbf"/><linearGradient id="f84e56d9-3934-49f9-a415-617f34148fc6" x1="12.07" y1="19.62" x2="17.78" y2="19" xlink:href="#fd65a3a8-bec1-4f21-8918-f24410c41fbf"/><linearGradient id="f0ad9ec0-ec45-4bde-8d8a-4de9e5b7a928" x1="278.8" y1="-607.8" x2="279.83" y2="-606.47" gradientTransform="translate(24.72 696.89) rotate(-25.1)" xlink:href="#ea2ca100-2583-4e1a-ab34-889d35ca0b4b"/></defs><path d="M51.29,33.56a5.29,5.29,0,0,1-2.59.55,5.51,5.51,0,0,1-2.23-.44,5.39,5.39,0,0,1-1.76-1.18,5.55,5.55,0,0,1-1.58-3.9v0a5.62,5.62,0,0,1,.42-2.16,5.49,5.49,0,0,1,1.16-1.77,5.29,5.29,0,0,1,1.76-1.2,6.44,6.44,0,0,1,4.78,0A5.66,5.66,0,0,1,53,24.78l-1.86,2a4.93,4.93,0,0,0-1.07-.86,2.68,2.68,0,0,0-1.36-.32,2.38,2.38,0,0,0-1,.23,2.81,2.81,0,0,0-.82.63,3.07,3.07,0,0,0-.54.93,3.48,3.48,0,0,0-.19,1.13v0a3.6,3.6,0,0,0,.19,1.15,2.74,2.74,0,0,0,.55.94,2.55,2.55,0,0,0,.86.63,2.91,2.91,0,0,0,2.44-.08,5.53,5.53,0,0,0,1.13-.83l1.78,1.8A6.68,6.68,0,0,1,51.29,33.56Z" fill="#65139f"/><path d="M65.75,30.71a5.52,5.52,0,0,1-1.21,1.77,5.92,5.92,0,0,1-4.15,1.63,6,6,0,0,1-2.3-.43,5.45,5.45,0,0,1-3-2.93,5.38,5.38,0,0,1-.44-2.16v0a5.4,5.4,0,0,1,1.66-3.93,5.7,5.7,0,0,1,1.83-1.2A6.07,6.07,0,0,1,60.43,23a6,6,0,0,1,2.29.43,5.6,5.6,0,0,1,1.83,1.18,5.46,5.46,0,0,1,1.2,1.75,5.26,5.26,0,0,1,.44,2.17v0A5.22,5.22,0,0,1,65.75,30.71ZM63.2,28.55a3.24,3.24,0,0,0-.2-1.13,2.69,2.69,0,0,0-.58-.94,2.88,2.88,0,0,0-.89-.65,2.71,2.71,0,0,0-1.14-.24,2.87,2.87,0,0,0-1.17.23,2.78,2.78,0,0,0-.87.63,2.9,2.9,0,0,0-.55.93,3.48,3.48,0,0,0-.19,1.13v0a3.18,3.18,0,0,0,.2,1.12,2.91,2.91,0,0,0,.58.94,3,3,0,0,0,.89.65,2.66,2.66,0,0,0,1.15.24,2.79,2.79,0,0,0,1.16-.23,2.5,2.5,0,0,0,.87-.63,2.7,2.7,0,0,0,.55-.93,3.18,3.18,0,0,0,.19-1.12Z" fill="#65139f"/><path d="M75.25,33.87V27.92a2.41,2.41,0,0,0-.48-1.62,1.72,1.72,0,0,0-1.35-.55A1.82,1.82,0,0,0,72,26.3a2.31,2.31,0,0,0-.51,1.62v5.95h-3V23.18h3v1.53a5,5,0,0,1,.57-.65,3.45,3.45,0,0,1,.69-.56,3.7,3.7,0,0,1,.83-.38,3.74,3.74,0,0,1,1-.14A3.42,3.42,0,0,1,77.34,24,4.19,4.19,0,0,1,78.28,27v6.92Z" fill="#65139f"/><path d="M88.55,32.17a2.94,2.94,0,0,1-.87,1.07,4.07,4.07,0,0,1-1.31.62,5.89,5.89,0,0,1-1.6.21,7.52,7.52,0,0,1-4.59-1.61l1.29-2a7.08,7.08,0,0,0,1.75,1,4.8,4.8,0,0,0,1.63.32,1.62,1.62,0,0,0,1-.22.68.68,0,0,0,.31-.58v0a.58.58,0,0,0-.18-.42,1.59,1.59,0,0,0-.48-.31c-.21-.08-.45-.17-.71-.25s-.55-.16-.84-.26a8.92,8.92,0,0,1-1.13-.39,4.18,4.18,0,0,1-1-.59,3,3,0,0,1-.74-.91,2.68,2.68,0,0,1-.29-1.32v0a3.18,3.18,0,0,1,1.14-2.51,3.78,3.78,0,0,1,1.24-.66A5,5,0,0,1,84.63,23a6.82,6.82,0,0,1,2.06.33,7.6,7.6,0,0,1,1.93.91l-1.16,2.09a9.88,9.88,0,0,0-1.56-.73,4,4,0,0,0-1.33-.27,1.39,1.39,0,0,0-.84.21.63.63,0,0,0-.28.53v0a.51.51,0,0,0,.18.39,2.1,2.1,0,0,0,.48.32,5.74,5.74,0,0,0,.69.29l.82.28a10.58,10.58,0,0,1,1.14.43,4.45,4.45,0,0,1,1,.61,3,3,0,0,1,.76.87,2.5,2.5,0,0,1,.3,1.26v0A3.66,3.66,0,0,1,88.55,32.17Z" fill="#65139f"/><path d="M97.81,33.87V32.34a7,7,0,0,1-.56.66,4.07,4.07,0,0,1-.69.55,3.4,3.4,0,0,1-1.88.52A3.41,3.41,0,0,1,92,33a4.24,4.24,0,0,1-1-2.92V23.18h3v5.95a2.38,2.38,0,0,0,.48,1.62,1.69,1.69,0,0,0,1.36.55,1.8,1.8,0,0,0,1.39-.55,2.33,2.33,0,0,0,.5-1.62V23.18h3V33.87Z" fill="#65139f"/><path d="M103.8,33.87V19.31h3V33.87Z" fill="#65139f"/><path d="M114.73,33.88a4.5,4.5,0,0,1-1.34.17,5,5,0,0,1-1.26-.15,2.18,2.18,0,0,1-1-.53,2.53,2.53,0,0,1-.64-1,4.53,4.53,0,0,1-.23-1.55V25.77H109V23.18h1.27V20.45h3v2.73h2.52v2.59h-2.52v4.57c0,.69.33,1,1,1a3.15,3.15,0,0,0,1.5-.38v2.43A4.39,4.39,0,0,1,114.73,33.88Z" fill="#65139f"/><path d="M128.13,29.21c0,.1,0,.23,0,.37h-7.44a2.54,2.54,0,0,0,.9,1.57,2.74,2.74,0,0,0,1.71.53,3.44,3.44,0,0,0,1.36-.26,4.35,4.35,0,0,0,1.23-.84l1.74,1.54a5.44,5.44,0,0,1-1.84,1.46,5.55,5.55,0,0,1-2.53.53,6,6,0,0,1-2.22-.4,5.06,5.06,0,0,1-1.78-1.13,5.38,5.38,0,0,1-1.17-1.75,5.77,5.77,0,0,1-.42-2.24v0a6,6,0,0,1,.39-2.16,5.32,5.32,0,0,1,1.09-1.77,5,5,0,0,1,1.67-1.2,5.15,5.15,0,0,1,2.14-.44,5.25,5.25,0,0,1,2.32.48,4.68,4.68,0,0,1,1.62,1.29,5.34,5.34,0,0,1,1,1.85,7.94,7.94,0,0,1,.31,2.19v0C128.14,29,128.13,29.1,128.13,29.21ZM124.47,26a2,2,0,0,0-1.54-.63,2.06,2.06,0,0,0-1.55.62,3.16,3.16,0,0,0-.76,1.66h4.57A3.06,3.06,0,0,0,124.47,26Z" fill="#65139f"/><path d="M35,24.71c0-.21-.38-.23-.42,0a12.58,12.58,0,0,1-.63,1.2,14,14,0,0,1-5.58,5.62c-1.28-.07.07-.91.07-.91a15.89,15.89,0,0,0,5.4-7,23.73,23.73,0,0,0,.74-10.17.27.27,0,0,0-.5,0c.15.67-.58,5.91-1.91,6.81a1.11,1.11,0,0,1-.58.21,27.89,27.89,0,0,0,1-3.12,14.55,14.55,0,0,0,.17-4.8,13.76,13.76,0,0,0-1.53-3.77L29.23,5.83s-.35-.61-.5-.41A13.25,13.25,0,0,0,29.8,8.16c.39,1.06.34,1.74-.25,1.6-.33-.08-.62-.84-.75-1.16a11,11,0,0,0-2.91-4.44C25,3.35,24.21,2.23,24,2.09s-.12.18-.12.18C26,9.8,16.36,13.82,16.36,13.82c-4.79,2.07-4.16,7.2-4.08,7.72v.17a8.39,8.39,0,0,0-4.08-3.32,10.33,10.33,0,0,1-6.3-6.52l0,20.77c0,2.63,4.66,4.75,4.66,4.75,5.86,2.61,7,4.53,7,4.53l.1.2.06.06c5.06-4.26,10.87-4.58,13.19-5.93C31.18,33.71,32.47,31,32.47,31A21.27,21.27,0,0,0,35,24.71Z" fill="url(#ba4fdf57-3ad5-4b06-a605-0f6eb3da83f7)"/><path d="M13.66,41.94l.41-2.67a18.89,18.89,0,0,1,7.31-8.07l8-15.67s1.39-3.39,1.12,3.2c0,0,.36,2.17,1.69,1.27s2.06-6.13,1.91-6.8a.27.27,0,0,1,.5,0,23.73,23.73,0,0,1-.74,10.17,15.83,15.83,0,0,1-5.4,7s-1.35.85-.07.91a14,14,0,0,0,5.58-5.62,11.46,11.46,0,0,0,.63-1.2c0-.18.4-.17.42,0a21.27,21.27,0,0,1-2.5,6.29S31.18,33.47,26.85,36C24.53,37.36,18.72,37.68,13.66,41.94Z" fill="url(#b32eadbd-2cd5-4606-afac-40d87d21ee78)"/><path d="M13.5,41.67s-1.12-1.92-7-4.52c0,0-4.64-2.12-4.66-4.75l0-20.77a10.35,10.35,0,0,0,6.3,6.52c5.06,1.84,6,8.11,6.06,8.3a29.39,29.39,0,0,1,.49,5.73c-.1,2.37-.29,3.6-.29,3.6s-.84,5.73-.85,6.09Z" fill="url(#b58ed436-3c1a-4acd-bb4f-878af1f2a1c8)"/><path d="M15,31.2c-.09-6.42-2.25-9.31-2.69-9.87,0,0-1-5.57,4.08-7.76,0,0,9.61-4,7.54-11.55,0,0-.08-.3.12-.17s1,1.26,1.87,2.06A11,11,0,0,1,28.8,8.35c.13.32.42,1.09.75,1.17.59.13.64-.55.25-1.61a13,13,0,0,1-1.07-2.74c.15-.19.5.42.5.42l1.93,2.93a13.76,13.76,0,0,1,1.53,3.77,14.55,14.55,0,0,1-.17,4.8,17.74,17.74,0,0,1-5.68,9.77c-3.53,3.22-11.92,8-12.75,12.3A44.12,44.12,0,0,0,15,31.2Z" fill="url(#a2e03195-d59b-4bf1-b03e-ed1550146aaf)"/><path d="M28.84,34.53a15.42,15.42,0,0,1-5.39,2.57L20.58,38c-.14,0-.56.22-.67.26a20.28,20.28,0,0,0-4.68,2.28c-.07,0-1.2.8-1.28.83a12.06,12.06,0,0,1,1.91-2.78A48.15,48.15,0,0,1,21,34.77L22.51,34c.46-.19.91-.4,1.38-.58C25,33,26,32.37,27,31.94a17.18,17.18,0,0,0,1.69-.9c.39-.26.8-.49,1.19-.76a1.31,1.31,0,0,1-.37.56.48.48,0,0,0-.2.49c.17.57-1.09,3.12-1,3.24S28.79,34.52,28.84,34.53Z" opacity="0.42" fill="url(#fd65a3a8-bec1-4f21-8918-f24410c41fbf)"/><path d="M13.5,41.67s1.25-1.54-4.62-4.15c0,0-4.63-2.12-4.65-4.75L1.89,11.63a10.35,10.35,0,0,0,6.3,6.52c5.06,1.84,6,8.11,6.06,8.3a29.39,29.39,0,0,1,.49,5.73c-.1,2.37-.29,3.6-.29,3.6s-.84,5.73-.85,6.09Z" opacity="0.68" fill="url(#ec9e29e3-6189-4474-9640-17d501bc414d)"/><path d="M14,41.36c6.62-4.38,13.62-3.57,16.91-8.77-3.79,3.52-5.38,2.7-14.89,5.89A8.48,8.48,0,0,0,14,41.36Z" opacity="0.68" fill="url(#a9881196-6723-4896-8c23-b3401a0e20f2)"/><path d="M14.68,35.58c.69-1.88,2.72-5.69,8.63-12.92,0,0,7-9.52,1.19-18.94,0,0,8.83,11.78,0,20.66a150.12,150.12,0,0,0-10,12.68s.06-.23.19-1.38A.29.29,0,0,1,14.68,35.58Z" opacity="0.64" fill="url(#ec9db4e4-ccf2-42a8-b564-246d6e979df4)"/><path d="M27.73,6.17c.13.25.27.5.43.76C28,6.66,27.87,6.4,27.73,6.17Z" opacity="0.32" fill="url(#ba8c25ff-9b66-4473-915b-7e493cb03e2a)"/><path d="M32.69,12.19a13.34,13.34,0,0,0-1.53-3.71l-1.93-2.9s-.35-.6-.5-.41a12.67,12.67,0,0,0,1.07,2.7c.39,1,.34,1.72-.25,1.59-.33-.08-.62-.84-.75-1.15-.06-.13-.14-.26-.19-.38,1.87,4.94-1,13.87-3.3,16.28C22.8,26.8,14.58,35.86,14.58,35.86c-.24,1.63-.49,2.82-.49,2.82.83-4.21,9.22-8.95,12.75-12.12a17.46,17.46,0,0,0,5.68-9.64A14.44,14.44,0,0,0,32.69,12.19Z" opacity="0.32" fill="url(#bc136560-ee98-4539-8fb8-62148c2b9645)"/><path d="M27.73,6.17c.13.25.27.5.43.76C28,6.66,27.87,6.4,27.73,6.17Z" opacity="0.32" fill="url(#fe700463-ad61-4141-a028-35e6da579222)"/><path d="M32.69,12.19a13.34,13.34,0,0,0-1.53-3.71l-1.93-2.9s-.35-.6-.5-.41a12.67,12.67,0,0,0,1.07,2.7c.39,1,.34,1.72-.25,1.59-.33-.08-.62-.84-.75-1.15-.06-.13-.13-.26-.18-.38,1.87,4.94-1,13.87-3.31,16.28C22.8,26.8,14.58,35.86,14.57,35.86c-.23,1.63-.48,2.82-.48,2.82.83-4.21,9.22-8.95,12.75-12.12a17.46,17.46,0,0,0,5.68-9.64A14.44,14.44,0,0,0,32.69,12.19Z" opacity="0.32" fill="url(#b7ad3c58-b64e-4ec3-ad64-ef4d4ba32285)"/><path d="M27.74,6.17c.13.25.27.5.42.76C28,6.66,27.88,6.4,27.74,6.17Z" opacity="0.32" fill="url(#b9e15e3e-9d8e-418b-81f9-346c4d6c7796)"/><path d="M32.69,12.19a13.34,13.34,0,0,0-1.53-3.71l-1.93-2.9s-.35-.6-.5-.41a12.67,12.67,0,0,0,1.07,2.7c.39,1,.34,1.72-.25,1.59-.33-.08-.62-.84-.75-1.15-.06-.13-.13-.26-.18-.38,1.87,4.94-1,13.87-3.31,16.28-2.5,2.59-10.73,11.65-10.73,11.65-.24,1.63-.49,2.82-.49,2.82.83-4.21,9.22-8.95,12.75-12.12a17.46,17.46,0,0,0,5.68-9.64A14.14,14.14,0,0,0,32.69,12.19Z" opacity="0.32" fill="url(#ef41140d-38e2-480c-a779-a1159449858a)"/><path d="M27.73,6.17c.13.25.27.5.43.77C28,6.66,27.87,6.4,27.73,6.17Z" opacity="0.32" fill="url(#bf542a7d-cd81-40a4-9936-5c8cdd78a8d7)"/><path d="M32.69,12.19a13.49,13.49,0,0,0-1.53-3.71l-1.93-2.9s-.35-.6-.5-.41a12.67,12.67,0,0,0,1.07,2.7c.39,1,.34,1.72-.25,1.59-.33-.08-.62-.83-.75-1.15-.06-.13-.13-.26-.18-.38,1.87,4.94-1,13.87-3.31,16.28C22.8,26.8,14.58,35.86,14.57,35.86c-.23,1.63-.48,2.82-.48,2.82.83-4.21,9.22-8.95,12.75-12.12a17.47,17.47,0,0,0,5.68-9.63A14.49,14.49,0,0,0,32.69,12.19Z" opacity="0.32" fill="url(#b1e4f59f-562f-4d1d-ba78-e69d8904c9a5)"/><path d="M23.38,22.4H26c6-8.57-1.6-18.75-1.6-18.75C29.76,12.29,24.31,21,23.38,22.4Z" opacity="0.64" fill="url(#fafe5c9e-e1e6-4f39-9b10-bfbc0a5f0106)"/><path d="M21.6,27.33l2,.8c7.74-6.13,5.71-17.89,5.71-17.89C30.11,19.87,22.82,26.33,21.6,27.33Z" opacity="0.64" fill="url(#b89b4f57-08e0-4ddd-ace9-f23f8ffe52d9)"/><path d="M29.46,30.2a15.85,15.85,0,0,1-5.3,3L21.3,34.32l-.67.32A20.87,20.87,0,0,0,16,37.3c-.07.05-1.16.91-1.25.94a12.92,12.92,0,0,1,1.75-3,50.32,50.32,0,0,1,5-4.27c.38-.24,1.43-.88,1.46-.91.46-.23.91-.47,1.37-.69,1.07-.5,2-1.2,3.09-1.72a16.87,16.87,0,0,0,1.65-1c.38-.3.79-.55,1.16-.86a1.24,1.24,0,0,1-.33.59.5.5,0,0,0-.16.52c.21.57-.89,3.26-.79,3.38S29.41,30.19,29.46,30.2Z" opacity="0.42" fill="url(#ea2ca100-2583-4e1a-ab34-889d35ca0b4b)"/><path d="M14.58,35.86C21,30.55,28.86,27.74,31.66,20.21c0,0,.93,9.9-17.52,18.71l.37-2.05Z" opacity="0.64" fill="url(#f168b685-7094-4874-8c4e-da01b00058b1)"/><path d="M16.78,33.9c-1.68-1.32,7.08-6.58,12.73-19.48l-.62,3.68S28,28.49,16.78,33.9Z" opacity="0.64" fill="url(#a807fdd3-17ff-4317-9267-e9ea8546d25d)"/><path d="M15,31.2c-.09-6.42-2.25-9.31-2.69-9.87,0,0-1-5.57,4.08-7.76,0,0,9.61-4,7.54-11.55,0,0-.08-.3.12-.17s1,1.26,1.87,2.06A11,11,0,0,1,28.8,8.35c.13.32.42,1.09.75,1.17.59.13.64-.55.25-1.61a13.6,13.6,0,0,1-1.07-2.74c.15-.19.5.42.5.42l1.93,2.93a13.76,13.76,0,0,1,1.53,3.77,14.55,14.55,0,0,1-.17,4.8,17.74,17.74,0,0,1-5.68,9.77c-3.53,3.22-11.92,8-12.75,12.3A44.12,44.12,0,0,0,15,31.2Z" opacity="0.32" fill="url(#fab16d27-7bae-411d-b790-eaf69b5204f1)"/><path d="M15,30.61S24.33,16,24,12.76c0,0,3.92,5.79-9.12,21.54l.1-2Z" opacity="0.64" fill="url(#a62a6f94-94a5-4e3e-a587-b59979349255)"/><path d="M14.83,28.83s-.59-5-2.55-7.5c0,0-.64-4.38,2.48-6.81,1.62-1.27,4.41-.64,8.5-5.62C23.85,8.19,14.83,28.83,14.83,28.83Z" opacity="0.68" fill="url(#f84e56d9-3934-49f9-a415-617f34148fc6)"/><path d="M25.58,24.2a15.73,15.73,0,0,1-3.87,4.71c-.76.7-1.51,1.39-2.27,2.07-.12.1-.43.45-.51.53a20.49,20.49,0,0,0-3.34,4.14c-.05.07-.76,1.26-.83,1.32a12.51,12.51,0,0,1,.57-3.39,49.15,49.15,0,0,1,3.12-5.77l1-1.37c.34-.38.67-.77,1-1.13.82-.86,1.46-1.86,2.27-2.72A18.65,18.65,0,0,0,24,21c.24-.42.53-.8.77-1.22a1.2,1.2,0,0,1-.1.67.5.5,0,0,0,0,.54c.41.46.34,3.36.49,3.44S25.53,24.21,25.58,24.2Z" opacity="0.42" fill="url(#f0ad9ec0-ec45-4bde-8d8a-4de9e5b7a928)"/></svg>