<svg id="a84af097-5da4-4de0-94e9-e7b9c8f9d6fd" data-name="a16f3714-44e5-4270-a620-e1078c59c8e5" xmlns="http://www.w3.org/2000/svg" xmlns:xlink="http://www.w3.org/1999/xlink" viewBox="0 0 130 92.27"><defs><linearGradient id="e831169a-0d5f-445e-a557-a7b826f73818" x1="28.1" y1="63" x2="27.84" y2="62.96" gradientTransform="matrix(1, 0, 0, -1, 0, 93.06)" gradientUnits="userSpaceOnUse"><stop offset="0.04" stop-color="#01aca6"/><stop offset="0.15" stop-color="#03a9a8" stop-opacity="0.93"/><stop offset="0.36" stop-color="#0aa2ae" stop-opacity="0.75"/><stop offset="0.63" stop-color="#1496b7" stop-opacity="0.46"/><stop offset="0.96" stop-color="#2286c4" stop-opacity="0.06"/><stop offset="1" stop-color="#2484c6" stop-opacity="0"/></linearGradient><linearGradient id="f5ac7645-3023-4cf2-8d2e-16d05a0acb56" x1="30.19" y1="62.57" x2="33.05" y2="62.05" gradientTransform="matrix(1, 0, 0, -1, 0, 93.06)" gradientUnits="userSpaceOnUse"><stop offset="0.04" stop-color="#231f20"/><stop offset="0.44" stop-color="#234157" stop-opacity="0.67"/><stop offset="1" stop-color="#2484c6" stop-opacity="0"/></linearGradient><linearGradient id="afbc928d-b184-4551-9820-3f3d9a3558bb" x1="35.42" y1="63.77" x2="25.76" y2="62.75" gradientTransform="matrix(1, 0, 0, -1, 0, 93.06)" gradientUnits="userSpaceOnUse"><stop offset="0.63" stop-color="#03b1ad"/><stop offset="0.72" stop-color="#53cac7" stop-opacity="0.68"/><stop offset="0.81" stop-color="#9de1df" stop-opacity="0.39"/><stop offset="0.89" stop-color="#d2f1f0" stop-opacity="0.18"/><stop offset="0.96" stop-color="#f3fbfb" stop-opacity="0.05"/><stop offset="1" stop-color="#fff" stop-opacity="0"/></linearGradient><linearGradient id="e0ad25b9-0084-4b8c-86cd-6cd8fdae240a" x1="38.33" y1="54.75" x2="34.23" y2="58" xlink:href="#afbc928d-b184-4551-9820-3f3d9a3558bb"/><linearGradient id="a722d06d-d267-4086-baef-59d4f07e46b9" x1="53.46" y1="35.72" x2="88.45" y2="28.03" gradientUnits="userSpaceOnUse"><stop offset="0.5" stop-color="#313ea8"/><stop offset="0.57" stop-color="#2953a9"/><stop offset="0.77" stop-color="#1487aa"/><stop offset="0.92" stop-color="#07a7ac"/><stop offset="1" stop-color="#02b3ac"/></linearGradient><linearGradient id="bb83f4cd-740e-49b9-b99c-c419e270f0c4" x1="88.4" y1="40.49" x2="62.17" y2="40.75" gradientUnits="userSpaceOnUse"><stop offset="0" stop-color="#01a9a8"/><stop offset="0.16" stop-color="#0286c3"/><stop offset="0.28" stop-color="#026fd4"/><stop offset="0.49" stop-color="#2724c2"/><stop offset="0.6" stop-color="#3901b9"/><stop offset="0.88" stop-color="#26025d"/></linearGradient><linearGradient id="b1b569df-c160-4848-a2fc-5b1d8770f68e" x1="41.67" y1="40.13" x2="59.92" y2="38.98" gradientUnits="userSpaceOnUse"><stop offset="0" stop-color="#65139f"/><stop offset="0.12" stop-color="#8412be"/><stop offset="0.23" stop-color="#9a11d5"/><stop offset="0.29" stop-color="#800ebe"/><stop offset="0.37" stop-color="#690ba9"/><stop offset="0.46" stop-color="#58099a"/><stop offset="0.55" stop-color="#4e0891"/><stop offset="0.67" stop-color="#4b088e"/><stop offset="0.89" stop-color="#33036a"/><stop offset="1" stop-color="#1a004b"/></linearGradient><linearGradient id="bc0a2748-b494-421d-8f91-2f57a7d5cde8" x1="88.01" y1="27.02" x2="58.81" y2="31.92" gradientUnits="userSpaceOnUse"><stop offset="0" stop-color="#01a9a8"/><stop offset="0.25" stop-color="#0271d3"/><stop offset="0.37" stop-color="#025ae4"/><stop offset="0.54" stop-color="#2324ca"/><stop offset="0.67" stop-color="#3901b9"/><stop offset="0.89" stop-color="#42067d"/><stop offset="1" stop-color="#1a004b"/></linearGradient><linearGradient id="ef6360c3-b0a3-4b47-a550-bd88a9a48b23" x1="69.77" y1="52.05" x2="71.2" y2="53.9" gradientUnits="userSpaceOnUse"><stop offset="0.04" stop-color="#231f20"/><stop offset="0.44" stop-color="#234157" stop-opacity="0.67"/><stop offset="1" stop-color="#2484c6" stop-opacity="0"/></linearGradient><linearGradient id="bd8745e9-757d-4ec4-9182-cb3cf76fbdd7" x1="57.53" y1="36.51" x2="50.59" y2="39.36" xlink:href="#ef6360c3-b0a3-4b47-a550-bd88a9a48b23"/><linearGradient id="f638e609-e1b6-46ff-bcf7-7eec646cf49d" x1="74.41" y1="54.87" x2="60.8" y2="52.03" gradientUnits="userSpaceOnUse"><stop offset="0" stop-color="#231f20"/><stop offset="1" stop-color="#231f20" stop-opacity="0"/></linearGradient><linearGradient id="bbeb7651-73c8-4f51-a4a9-879514dfd810" x1="69.84" y1="30.03" x2="82.76" y2="27.77" xlink:href="#ef6360c3-b0a3-4b47-a550-bd88a9a48b23"/><linearGradient id="bcc10b31-7415-4dca-90a0-5f765d2391f9" x1="78.85" y1="10.92" x2="78.48" y2="10.98" gradientUnits="userSpaceOnUse"><stop offset="0.04" stop-color="#01aca6"/><stop offset="0.15" stop-color="#03a9a8" stop-opacity="0.93"/><stop offset="0.36" stop-color="#0aa2ae" stop-opacity="0.75"/><stop offset="0.63" stop-color="#1496b7" stop-opacity="0.46"/><stop offset="0.96" stop-color="#2286c4" stop-opacity="0.06"/><stop offset="1" stop-color="#2484c6" stop-opacity="0"/></linearGradient><linearGradient id="ae1f7b44-b531-4c2f-8ee7-853a3e0ee861" x1="88.45" y1="29.54" x2="59.33" y2="34.43" xlink:href="#bcc10b31-7415-4dca-90a0-5f765d2391f9"/><linearGradient id="b5ff4353-cabd-49f1-9f70-9ba882479b5c" x1="81.81" y1="11.53" x2="85.87" y2="12.27" xlink:href="#ef6360c3-b0a3-4b47-a550-bd88a9a48b23"/><linearGradient id="be996c6b-80a9-48a6-9748-46147a81cd53" x1="77.68" y1="34.24" x2="81.74" y2="34.98" xlink:href="#ef6360c3-b0a3-4b47-a550-bd88a9a48b23"/><linearGradient id="e6b4c315-a89d-4a97-8864-b08b143c6656" x1="89.23" y1="9.83" x2="75.53" y2="11.29" gradientUnits="userSpaceOnUse"><stop offset="0.63" stop-color="#03b1ad"/><stop offset="0.72" stop-color="#53cac7" stop-opacity="0.68"/><stop offset="0.81" stop-color="#9de1df" stop-opacity="0.39"/><stop offset="0.89" stop-color="#d2f1f0" stop-opacity="0.18"/><stop offset="0.96" stop-color="#f3fbfb" stop-opacity="0.05"/><stop offset="1" stop-color="#fff" stop-opacity="0"/></linearGradient><linearGradient id="afb98d0c-5fb8-4033-8574-d184c4fca65b" x1="91.41" y1="30.4" x2="77.71" y2="31.86" xlink:href="#e6b4c315-a89d-4a97-8864-b08b143c6656"/><linearGradient id="bc2dc273-628c-4cfc-b8f2-b05cbc1e4e71" x1="93.36" y1="22.63" x2="87.54" y2="18.02" xlink:href="#e6b4c315-a89d-4a97-8864-b08b143c6656"/><linearGradient id="f048673a-4819-4b73-8ce5-8aaabef9c901" x1="79.21" y1="40.48" x2="73.4" y2="35.87" xlink:href="#e6b4c315-a89d-4a97-8864-b08b143c6656"/><linearGradient id="a2b60453-62ed-4d07-9de7-5c70c9ab0562" x1="72.69" y1="19.58" x2="78.19" y2="29.42" xlink:href="#ef6360c3-b0a3-4b47-a550-bd88a9a48b23"/><linearGradient id="b2e3cdd7-423d-45cf-936f-9ca8766d76d3" x1="-146.22" y1="663.33" x2="-140.71" y2="673.18" gradientTransform="matrix(0.75, 0.3, -0.37, 0.93, 432.5, -543.64)" xlink:href="#ef6360c3-b0a3-4b47-a550-bd88a9a48b23"/><linearGradient id="e4ff2a84-aea2-4952-8af3-3ce928816eb7" x1="71.58" y1="-74.01" x2="73.05" y2="-72.12" gradientTransform="matrix(1, -0.07, 0.07, 1, 4.46, 125.61)" gradientUnits="userSpaceOnUse"><stop offset="0.37" stop-color="#231f20"/><stop offset="0.63" stop-color="#234157" stop-opacity="0.67"/><stop offset="1" stop-color="#2484c6" stop-opacity="0"/></linearGradient><linearGradient id="a82d9d45-6762-4ed1-a384-44ac0f4a4b29" x1="192.18" y1="757.35" x2="197.68" y2="760.53" gradientTransform="translate(215.05 -724.67) rotate(24.84)" xlink:href="#ef6360c3-b0a3-4b47-a550-bd88a9a48b23"/><linearGradient id="a7bda637-0816-4fbc-81db-404c555dbf12" x1="724.35" y1="-1445.77" x2="729.49" y2="-1442.81" gradientTransform="matrix(0.49, 0.79, 0.75, -0.46, 801.1, -1205.96)" xlink:href="#ef6360c3-b0a3-4b47-a550-bd88a9a48b23"/><linearGradient id="af59e770-7de1-4442-82d5-dc38f65ea897" x1="88.01" y1="27.02" x2="58.81" y2="31.92" xlink:href="#bcc10b31-7415-4dca-90a0-5f765d2391f9"/><linearGradient id="efa7ae44-840b-49ce-afe7-3c03a37e3a0b" x1="66.65" y1="35.12" x2="70.21" y2="37.17" xlink:href="#ef6360c3-b0a3-4b47-a550-bd88a9a48b23"/><linearGradient id="b118f39a-7d84-4469-8570-9419e8ca4feb" x1="56.11" y1="29.49" x2="64.21" y2="28.61" xlink:href="#ef6360c3-b0a3-4b47-a550-bd88a9a48b23"/><linearGradient id="fe7fc6d4-5dd3-4ae5-9bd4-351cb3dd49a3" x1="261.82" y1="-653.28" x2="263.29" y2="-651.4" gradientTransform="translate(106.5 744.35) rotate(-25.1)" xlink:href="#e4ff2a84-aea2-4952-8af3-3ce928816eb7"/></defs><path d="M27.73,29.7c.13.25.27.5.43.76C28,30.19,27.87,29.93,27.73,29.7Z" opacity="0.32" fill="url(#e831169a-0d5f-445e-a557-a7b826f73818)" style="isolation:isolate"/><path d="M27.73,29.7c.13.25.27.5.43.76C28,30.19,27.87,29.93,27.73,29.7Z" opacity="0.32" fill="url(#f5ac7645-3023-4cf2-8d2e-16d05a0acb56)" style="isolation:isolate"/><path d="M27.74,29.7c.13.25.27.5.42.76C28,30.19,27.88,29.93,27.74,29.7Z" opacity="0.32" fill="url(#afbc928d-b184-4551-9820-3f3d9a3558bb)" style="isolation:isolate"/><path d="M27.73,29.7c.13.25.27.5.43.77C28,30.19,27.87,29.93,27.73,29.7Z" opacity="0.32" fill="url(#e0ad25b9-0084-4b8c-86cd-6cd8fdae240a)" style="isolation:isolate"/><path d="M16.29,87.25a7.61,7.61,0,0,1-3.68.78,7.86,7.86,0,0,1-3.16-.63A7.54,7.54,0,0,1,7,85.72a7.65,7.65,0,0,1-1.64-2.49,7.78,7.78,0,0,1-.6-3v-.06a7.86,7.86,0,0,1,.6-3A7.58,7.58,0,0,1,7,74.56a7.44,7.44,0,0,1,2.5-1.7,8,8,0,0,1,3.21-.62,8.12,8.12,0,0,1,3.57.68,8,8,0,0,1,2.49,1.86l-2.63,2.83a6.9,6.9,0,0,0-1.52-1.21,3.72,3.72,0,0,0-1.94-.46,3.28,3.28,0,0,0-1.48.33,3.71,3.71,0,0,0-1.16.89,3.93,3.93,0,0,0-.76,1.32A4.66,4.66,0,0,0,9,80.07v.06a4.86,4.86,0,0,0,.27,1.64A3.66,3.66,0,0,0,10,83.1a3.59,3.59,0,0,0,1.22.89,3.69,3.69,0,0,0,1.58.33,3.94,3.94,0,0,0,1.89-.44,8.13,8.13,0,0,0,1.6-1.17l2.51,2.54A9.67,9.67,0,0,1,16.29,87.25Z" fill="#65139f"/><path d="M36.8,83.2a7.91,7.91,0,0,1-1.72,2.51,8.27,8.27,0,0,1-2.61,1.69,8.37,8.37,0,0,1-3.28.63,8.71,8.71,0,0,1-3.26-.61,7.83,7.83,0,0,1-4.3-4.16A7.69,7.69,0,0,1,21,80.19v-.06a7.69,7.69,0,0,1,.62-3.07,7.78,7.78,0,0,1,1.73-2.5,8.08,8.08,0,0,1,2.6-1.7,8.42,8.42,0,0,1,3.29-.62,8.66,8.66,0,0,1,3.25.6,8.19,8.19,0,0,1,2.59,1.67A7.68,7.68,0,0,1,36.8,77a7.56,7.56,0,0,1,.62,3.07v.06A7.49,7.49,0,0,1,36.8,83.2Zm-3.62-3.07a4.72,4.72,0,0,0-.28-1.6,4,4,0,0,0-2.1-2.25,3.9,3.9,0,0,0-1.61-.34,4,4,0,0,0-1.66.33,3.67,3.67,0,0,0-1.23.89,4,4,0,0,0-.78,1.32,4.91,4.91,0,0,0-.26,1.59v.06a4.45,4.45,0,0,0,.28,1.6A4.05,4.05,0,0,0,27.62,84a3.71,3.71,0,0,0,1.63.34A3.92,3.92,0,0,0,30.9,84a3.54,3.54,0,0,0,1.23-.89,3.84,3.84,0,0,0,.78-1.31,4.72,4.72,0,0,0,.27-1.6Z" fill="#65139f"/><path d="M50.27,87.69V79.25a3.35,3.35,0,0,0-.68-2.3,2.4,2.4,0,0,0-1.92-.78,2.55,2.55,0,0,0-2,.78,3.25,3.25,0,0,0-.72,2.3v8.44h-4.3V72.52H45v2.17a7.82,7.82,0,0,1,.81-.93,5.72,5.72,0,0,1,1-.78,4.82,4.82,0,0,1,2.66-.74,4.86,4.86,0,0,1,3.81,1.5,6,6,0,0,1,1.34,4.13v9.82Z" fill="#65139f"/><path d="M69.13,85.27a4,4,0,0,1-1.23,1.51,5.58,5.58,0,0,1-1.85.89,8.38,8.38,0,0,1-2.28.3,10.47,10.47,0,0,1-3.3-.55,10.73,10.73,0,0,1-3.21-1.74l1.84-2.83a10.36,10.36,0,0,0,2.48,1.36,6.73,6.73,0,0,0,2.3.45,2.35,2.35,0,0,0,1.37-.31,1,1,0,0,0,.44-.82v-.06a.79.79,0,0,0-.25-.59,2.1,2.1,0,0,0-.69-.44c-.3-.12-.63-.24-1-.36l-1.19-.36a15.27,15.27,0,0,1-1.6-.56,5.79,5.79,0,0,1-1.45-.84A4.2,4.2,0,0,1,58.43,79,4,4,0,0,1,58,77.16V77.1a4.45,4.45,0,0,1,1.63-3.56,5,5,0,0,1,1.76-.94,7.52,7.52,0,0,1,2.16-.31,9.79,9.79,0,0,1,2.93.47,10.7,10.7,0,0,1,2.73,1.29l-1.64,3a13.56,13.56,0,0,0-2.21-1,5.64,5.64,0,0,0-1.89-.39,2,2,0,0,0-1.19.3.9.9,0,0,0-.4.75v.06a.74.74,0,0,0,.26.55,2.67,2.67,0,0,0,.68.45,8.34,8.34,0,0,0,1,.41c.37.13.76.27,1.18.4s1.06.37,1.61.61a6.24,6.24,0,0,1,1.47.86,4.36,4.36,0,0,1,1.08,1.25A3.53,3.53,0,0,1,69.57,83v0A5.14,5.14,0,0,1,69.13,85.27Z" fill="#65139f"/><path d="M82.28,87.69V85.52a11.72,11.72,0,0,1-.81.93,5.79,5.79,0,0,1-1,.78,4.7,4.7,0,0,1-1.18.54,5.19,5.19,0,0,1-1.48.2,4.83,4.83,0,0,1-3.8-1.5,6,6,0,0,1-1.35-4.13V72.52H77V81a3.41,3.41,0,0,0,.68,2.3,2.44,2.44,0,0,0,1.93.78,2.53,2.53,0,0,0,2-.78,3.22,3.22,0,0,0,.73-2.3V72.52h4.3V87.69Z" fill="#65139f"/><path d="M90.77,87.69V67h4.3V87.69Z" fill="#65139f"/><path d="M106.27,87.7a6.78,6.78,0,0,1-1.89.24,7.17,7.17,0,0,1-1.8-.21,3.19,3.19,0,0,1-1.39-.75,3.64,3.64,0,0,1-.9-1.4,6.23,6.23,0,0,1-.33-2.19V76.2H98.15V72.52H100V68.64h4.3v3.88h3.57V76.2h-3.57v6.48c0,1,.46,1.47,1.39,1.47a4.37,4.37,0,0,0,2.12-.54v3.45A6.34,6.34,0,0,1,106.27,87.7Z" fill="#65139f"/><path d="M125.27,81.07c0,.15,0,.33,0,.53H114.68A3.58,3.58,0,0,0,116,83.82a3.86,3.86,0,0,0,2.42.75,4.92,4.92,0,0,0,1.93-.36A6.63,6.63,0,0,0,122.06,83l2.46,2.18a7.63,7.63,0,0,1-2.6,2.08,8.08,8.08,0,0,1-3.59.75,8.61,8.61,0,0,1-3.16-.57,7.35,7.35,0,0,1-2.52-1.61A7.53,7.53,0,0,1,111,83.37a8.12,8.12,0,0,1-.6-3.18v-.06a8.42,8.42,0,0,1,.56-3,7.5,7.5,0,0,1,1.54-2.52,7.16,7.16,0,0,1,5.4-2.32,7.32,7.32,0,0,1,3.29.68,6.67,6.67,0,0,1,2.3,1.82,7.57,7.57,0,0,1,1.36,2.63,11,11,0,0,1,.44,3.1v.06C125.29,80.74,125.28,80.91,125.27,81.07Zm-5.19-4.49a2.83,2.83,0,0,0-2.18-.89,2.88,2.88,0,0,0-2.19.88,4.34,4.34,0,0,0-1.09,2.34h6.48A4.14,4.14,0,0,0,120.08,76.58Z" fill="#65139f"/><path d="M88.59,36.71c0-.3-.54-.32-.59-.06a16.66,16.66,0,0,1-.9,1.7c-3.47,6-7.92,8-7.92,8-1.81-.1.11-1.29.11-1.29a22.47,22.47,0,0,0,7.65-9.88C89.27,28.32,88,20.73,88,20.73a.38.38,0,0,0-.71,0c.21.95-.83,8.38-2.71,9.65a1.62,1.62,0,0,1-.82.31,37.27,37.27,0,0,0,1.35-4.43,20.77,20.77,0,0,0,.25-6.81,19.56,19.56,0,0,0-2.17-5.35L80.45,9.94s-.5-.87-.71-.59,1.52,3.88,1.52,3.88c.55,1.5.48,2.48-.35,2.28-.48-.11-.89-1.2-1.07-1.65a15.74,15.74,0,0,0-4.13-6.3c-1.26-1.14-2.38-2.74-2.66-2.93s-.16.25-.16.25C75.82,15.56,62.2,21.27,62.2,21.27c-6.8,2.94-5.9,10.21-5.8,10.94v.25a11.87,11.87,0,0,0-5.8-4.7,14.63,14.63,0,0,1-8.92-9.26l0,29.46c0,3.73,6.6,6.74,6.6,6.74,8.32,3.7,9.91,6.42,9.91,6.42l.15.29.07.09c7.19-6,15.42-6.5,18.71-8.42,6.15-3.59,8-7.45,8-7.45C87.76,40.71,88.63,37,88.59,36.71Z" fill="url(#a722d06d-d267-4086-baef-59d4f07e46b9)"/><path d="M58.36,61.15,59,57.36S61.38,51,69.32,45.91L80.59,23.69s2-4.81,1.6,4.55c0,0,.5,3.06,2.39,1.8s2.92-8.71,2.71-9.65a.38.38,0,0,1,.71,0S89.27,28,86.94,34.81a22.47,22.47,0,0,1-7.65,9.88s-1.92,1.2-.11,1.29c0,0,4.45-2,7.92-8a17.8,17.8,0,0,0,.9-1.7c0-.26.56-.25.59,0s-.83,4-3.54,8.92c0,0-1.83,3.86-8,7.45C73.78,54.65,65.55,55.1,58.36,61.15Z" fill="url(#bb83f4cd-740e-49b9-b99c-c419e270f0c4)"/><path d="M58.14,60.78s-1.59-2.73-9.91-6.43c0,0-6.57-3-6.6-6.73l0-29.47a14.63,14.63,0,0,0,8.92,9.26c7.18,2.6,8.53,11.5,8.6,11.77a41.24,41.24,0,0,1,.7,8.12c-.15,3.37-.41,5.11-.41,5.11s-1.19,8.13-1.2,8.65Z" fill="url(#b1b569df-c160-4848-a2fc-5b1d8770f68e)"/><path d="M60.22,45.91c-.13-9.09-3.19-13.19-3.81-14,0,0-1.37-7.91,5.79-11,0,0,13.62-5.71,10.69-16.39,0,0-.11-.43.16-.24s1.4,1.78,2.66,2.93a15.68,15.68,0,0,1,4.13,6.29c.18.46.59,1.54,1.07,1.65.83.2.9-.77.35-2.27,0,0-1.74-3.61-1.52-3.89s.71.59.71.59l2.74,4.17a19.44,19.44,0,0,1,2.17,5.34,20.77,20.77,0,0,1-.25,6.81,25.09,25.09,0,0,1-8,13.86c-5,4.56-16.9,11.38-18.08,17.44A63,63,0,0,0,60.22,45.91Z" fill="url(#bc0a2748-b494-421d-8f91-2f57a7d5cde8)"/><path d="M79.89,50.65a21.88,21.88,0,0,1-7.64,3.63c-1.36.43-2.71.85-4.07,1.26-.2.06-.8.32-1,.38a28.08,28.08,0,0,0-6.63,3.23c-.11.06-1.7,1.14-1.83,1.18,0-.51,1.95-3,2.71-3.94A69.29,69.29,0,0,1,68.81,51c.55-.29,2.06-1.08,2.11-1.12.65-.27,1.3-.56,2-.81,1.53-.59,2.92-1.47,4.45-2.08a24,24,0,0,0,2.39-1.28c.55-.37,1.15-.69,1.69-1.08a1.75,1.75,0,0,1-.51.79.7.7,0,0,0-.29.7c.24.81-1.55,4.43-1.41,4.6S79.82,50.63,79.89,50.65Z" opacity="0.42" fill="url(#ef6360c3-b0a3-4b47-a550-bd88a9a48b23)"/><path d="M58.14,60.78s1.77-2.19-6.55-5.89c0,0-6.57-3-6.6-6.74l-3.31-30a14.63,14.63,0,0,0,8.92,9.26c7.18,2.6,8.53,11.5,8.6,11.77a41.24,41.24,0,0,1,.7,8.12c-.15,3.37-.41,5.11-.41,5.11s-1.19,8.13-1.2,8.65Z" opacity="0.68" fill="url(#bd8745e9-757d-4ec4-9182-cb3cf76fbdd7)"/><path d="M58.77,60.33c9.4-6.21,19.32-5.06,24-12.44-5.38,5-7.64,3.84-21.13,8.35C61.35,56.34,58.92,59.25,58.77,60.33Z" opacity="0.68" fill="url(#f638e609-e1b6-46ff-bcf7-7eec646cf49d)"/><path d="M59.81,52.13c1-2.66,3.87-8.07,12.25-18.32,0,0,9.9-13.51,1.67-26.87,0,0,12.53,16.7,0,29.3a213.52,213.52,0,0,0-14.23,18c0,.07.09-.33.26-2C59.77,52.22,59.8,52.18,59.81,52.13Z" opacity="0.64" fill="url(#bbeb7651-73c8-4f51-a4a9-879514dfd810)"/><path d="M78.33,10.41c.18.36.38.72.6,1.09C78.73,11.1,78.53,10.74,78.33,10.41Z" opacity="0.32" fill="url(#bcc10b31-7415-4dca-90a0-5f765d2391f9)"/><path d="M85.36,19a19,19,0,0,0-2.17-5.27L80.45,9.58S80,8.72,79.74,9s1.52,3.83,1.52,3.83c.55,1.48.48,2.44-.35,2.25-.48-.11-.89-1.18-1.07-1.63-.08-.19-.2-.37-.28-.54,2.67,7-1.37,19.68-4.67,23.09-3.55,3.68-15.22,16.52-15.23,16.53-.33,2.31-.69,4-.69,4,1.19-6,13.08-12.7,18.09-17.19a24.65,24.65,0,0,0,8-13.67A20.17,20.17,0,0,0,85.36,19Z" opacity="0.32" fill="url(#ae1f7b44-b531-4c2f-8ee7-853a3e0ee861)"/><path d="M78.33,10.41c.18.36.38.72.6,1.09C78.73,11.1,78.53,10.74,78.33,10.41Z" opacity="0.32" fill="url(#b5ff4353-cabd-49f1-9f70-9ba882479b5c)"/><path d="M85.36,19a19,19,0,0,0-2.17-5.27L80.45,9.58S80,8.72,79.74,9s1.52,3.83,1.52,3.83c.55,1.48.48,2.44-.35,2.25-.48-.11-.89-1.18-1.07-1.63-.08-.19-.18-.37-.26-.54,2.66,7-1.39,19.68-4.69,23.09-3.55,3.68-15.22,16.52-15.23,16.53-.33,2.31-.69,4-.69,4,1.18-6,13.08-12.7,18.09-17.19a24.65,24.65,0,0,0,8-13.67A20.17,20.17,0,0,0,85.36,19Z" opacity="0.32" fill="url(#be996c6b-80a9-48a6-9748-46147a81cd53)"/><path d="M78.33,10.41c.19.36.39.72.61,1.09C78.73,11.1,78.53,10.74,78.33,10.41Z" opacity="0.32" fill="url(#e6b4c315-a89d-4a97-8864-b08b143c6656)"/><path d="M85.36,19a19,19,0,0,0-2.17-5.27L80.45,9.58S80,8.72,79.74,9s1.52,3.83,1.52,3.83c.55,1.48.48,2.44-.35,2.25-.48-.11-.88-1.18-1.07-1.63-.08-.19-.18-.37-.26-.54,2.66,7-1.39,19.68-4.69,23.09-3.55,3.68-15.22,16.52-15.22,16.53-.34,2.31-.69,4-.69,4,1.18-6,13.08-12.7,18.09-17.19a24.77,24.77,0,0,0,8.05-13.67A20.34,20.34,0,0,0,85.36,19Z" opacity="0.32" fill="url(#afb98d0c-5fb8-4033-8574-d184c4fca65b)"/><path d="M78.33,10.42q.27.53.6,1.08C78.73,11.11,78.53,10.74,78.33,10.42Z" opacity="0.32" fill="url(#bc2dc273-628c-4cfc-b8f2-b05cbc1e4e71)"/><path d="M85.36,19a19,19,0,0,0-2.17-5.27L80.45,9.58S80,8.73,79.74,9s1.52,3.83,1.52,3.83c.55,1.48.48,2.44-.35,2.25-.48-.11-.89-1.18-1.07-1.63-.08-.19-.18-.37-.26-.54,2.66,7-1.39,19.68-4.69,23.09-3.55,3.68-15.22,16.53-15.23,16.53-.33,2.31-.69,4-.69,4,1.19-6,13.08-12.7,18.09-17.19a24.65,24.65,0,0,0,8-13.67A20.17,20.17,0,0,0,85.36,19Z" opacity="0.32" fill="url(#f048673a-4819-4b73-8ce5-8aaabef9c901)"/><path d="M72.16,33.44h3.77c8.55-12.16-2.28-26.6-2.28-26.6C81.2,19.1,73.48,31.49,72.16,33.44Z" opacity="0.64" fill="url(#a2b60453-62ed-4d07-9de7-5c70c9ab0562)"/><path d="M69.63,40.43l2.85,1.14c11-8.7,8.1-25.38,8.1-25.38C81.71,29.85,71.36,39,69.63,40.43Z" opacity="0.64" fill="url(#b2e3cdd7-423d-45cf-936f-9ca8766d76d3)"/><path d="M80.78,44.5a22.41,22.41,0,0,1-7.53,4.27l-4,1.58c-.2.08-.79.38-.94.45a28.72,28.72,0,0,0-6.53,3.78c-.1.07-1.65,1.28-1.77,1.33-.07-.52,1.76-3.24,2.48-4.2a68.31,68.31,0,0,1,7.07-6.06l2.07-1.29c.64-.33,1.28-.67,1.93-1,1.52-.71,2.88-1.71,4.39-2.44a21.37,21.37,0,0,0,2.34-1.48c.54-.42,1.12-.78,1.65-1.22a1.8,1.8,0,0,1-.47.84.71.71,0,0,0-.24.74c.31.81-1.26,4.62-1.11,4.79S80.71,44.49,80.78,44.5Z" opacity="0.42" fill="url(#e4ff2a84-aea2-4952-8af3-3ce928816eb7)"/><path d="M59.66,52.53C68.82,45,79.93,41,83.89,30.33c0,0,1.33,14-24.84,26.54L59.57,54Z" opacity="0.64" fill="url(#a82d9d45-6762-4ed1-a384-44ac0f4a4b29)"/><path d="M62.79,49.75c-2.38-1.87,10.05-9.33,18.06-27.63L80,27.34S78.67,42.08,62.79,49.75Z" opacity="0.64" fill="url(#a7bda637-0816-4fbc-81db-404c555dbf12)"/><path d="M60.22,45.91c-.12-9.09-3.18-13.19-3.8-14,0,0-1.38-7.91,5.78-11,0,0,13.62-5.71,10.7-16.39,0,0-.12-.43.16-.24s1.39,1.78,2.65,2.93a15.47,15.47,0,0,1,4.13,6.29c.19.46.59,1.54,1.07,1.65.83.2.9-.77.35-2.27,0,0-1.74-3.61-1.52-3.89s.71.59.71.59l2.74,4.17a19.44,19.44,0,0,1,2.17,5.34,21,21,0,0,1-.24,6.81,25.22,25.22,0,0,1-8.05,13.86c-5,4.56-16.91,11.38-18.09,17.44A63,63,0,0,0,60.22,45.91Z" opacity="0.32" fill="url(#af59e770-7de1-4442-82d5-dc38f65ea897)"/><path d="M60.22,45.09S73.5,24.4,73,19.76c0,0,5.56,8.22-12.94,30.56l.14-2.9Z" opacity="0.64" fill="url(#efa7ae44-840b-49ce-afe7-3c03a37e3a0b)"/><path d="M60,42.56s-.85-7.06-3.62-10.63c0,0-.91-6.22,3.51-9.67,2.3-1.8,6.26-.9,12.06-8C72.81,13.27,60,42.56,60,42.56Z" opacity="0.68" fill="url(#b118f39a-7d84-4469-8570-9419e8ca4feb)"/><path d="M75.28,36a22.56,22.56,0,0,1-5.5,6.68q-1.61,1.47-3.22,2.93c-.16.14-.6.63-.72.76a29.06,29.06,0,0,0-4.74,5.86C61,52.33,60,54,59.93,54.11c-.25-.46.48-3.66.8-4.82a71.22,71.22,0,0,1,4.43-8.18c.39-.51,1.44-1.89,1.47-2,.49-.53,1-1.08,1.46-1.6,1.16-1.21,2.07-2.63,3.22-3.86A22.76,22.76,0,0,0,73,31.49c.35-.59.76-1.14,1.1-1.73a1.73,1.73,0,0,1-.14.95.71.71,0,0,0,0,.77c.58.65.48,4.77.69,4.87S75.2,36,75.28,36Z" opacity="0.42" fill="url(#fe7fc6d4-5dd3-4ae5-9bd4-351cb3dd49a3)"/></svg>