<svg id="f657aee1-98ca-46c7-9ce1-f0ca4b46cd51" data-name="a16f3714-44e5-4270-a620-e1078c59c8e5" xmlns="http://www.w3.org/2000/svg" xmlns:xlink="http://www.w3.org/1999/xlink" viewBox="0 0 130 92.27"><defs><linearGradient id="b7efce50-b69b-4068-9bc8-989934dc6284" x1="53.29" y1="35.81" x2="88.92" y2="27.98" gradientUnits="userSpaceOnUse"><stop offset="0.5" stop-color="#fdfeff"/><stop offset="1" stop-color="#fdfeff"/></linearGradient><linearGradient id="acdf73de-9342-49b2-8126-cf77d9a92ffb" x1="88.87" y1="40.67" x2="62.17" y2="40.93" gradientUnits="userSpaceOnUse"><stop offset="0.04" stop-color="#65139f"/><stop offset="0.16" stop-color="#601ba2" stop-opacity="0.93"/><stop offset="0.38" stop-color="#5431a9" stop-opacity="0.73"/><stop offset="0.67" stop-color="#3f55b6" stop-opacity="0.41"/><stop offset="1" stop-color="#2484c6" stop-opacity="0"/></linearGradient><linearGradient id="f7d775ec-9e0a-475f-951a-5a6899004f4d" x1="41.29" y1="40.3" x2="59.87" y2="39.13" gradientUnits="userSpaceOnUse"><stop offset="0" stop-color="#fdfeff"/><stop offset="0.23" stop-color="#fdfeff"/><stop offset="0.27" stop-color="#e3f4f5" stop-opacity="0.85"/><stop offset="0.31" stop-color="#caeaec" stop-opacity="0.71"/><stop offset="0.36" stop-color="#b4e1e3" stop-opacity="0.59"/><stop offset="0.42" stop-color="#a3dadd" stop-opacity="0.49"/><stop offset="0.47" stop-color="#95d5d8" stop-opacity="0.42"/><stop offset="0.53" stop-color="#8cd1d4" stop-opacity="0.36"/><stop offset="0.59" stop-color="#86cfd2" stop-opacity="0.33"/><stop offset="0.67" stop-color="#84ced1" stop-opacity="0.32"/><stop offset="0.89" stop-color="#fdfeff"/><stop offset="1" stop-color="#ab00d3"/></linearGradient><linearGradient id="b4d5cb71-2889-41cc-9956-424bd07e888c" x1="88.47" y1="26.95" x2="58.74" y2="31.94" gradientUnits="userSpaceOnUse"><stop offset="0" stop-color="#fdfeff"/><stop offset="0.37" stop-color="#fdfeff"/><stop offset="0.67" stop-color="#fdfeff"/><stop offset="0.89" stop-color="#fdfeff"/><stop offset="1" stop-color="#fdfeff"/></linearGradient><linearGradient id="f3483707-869f-42a0-a096-fa22f8f10d40" x1="57.44" y1="36.62" x2="50.37" y2="39.51" gradientUnits="userSpaceOnUse"><stop offset="0.04" stop-color="#65139f" stop-opacity="0.9"/><stop offset="0.17" stop-color="#601ca2" stop-opacity="0.83"/><stop offset="0.41" stop-color="#5235ab" stop-opacity="0.63"/><stop offset="0.72" stop-color="#3b5cb8" stop-opacity="0.32"/><stop offset="1" stop-color="#2484c6" stop-opacity="0"/></linearGradient><linearGradient id="a10a4df4-1309-40eb-b3db-f4ee6b0d5912" x1="69.97" y1="30.02" x2="83.12" y2="27.72" gradientUnits="userSpaceOnUse"><stop offset="0.04" stop-color="#231f20"/><stop offset="0.44" stop-color="#234157" stop-opacity="0.67"/><stop offset="1" stop-color="#2484c6" stop-opacity="0"/></linearGradient><linearGradient id="a6cd582b-f4f4-46d7-ba66-538ca44880e2" x1="79.15" y1="10.56" x2="78.76" y2="10.63" gradientUnits="userSpaceOnUse"><stop offset="0.04" stop-color="#01aca6"/><stop offset="0.15" stop-color="#03a9a8" stop-opacity="0.93"/><stop offset="0.36" stop-color="#0aa2ae" stop-opacity="0.75"/><stop offset="0.63" stop-color="#1496b7" stop-opacity="0.46"/><stop offset="0.96" stop-color="#2286c4" stop-opacity="0.06"/><stop offset="1" stop-color="#2484c6" stop-opacity="0"/></linearGradient><linearGradient id="a7dcb329-15ac-4e24-aef0-18a44003d35a" x1="88.92" y1="29.51" x2="59.28" y2="34.49" xlink:href="#a6cd582b-f4f4-46d7-ba66-538ca44880e2"/><linearGradient id="a64cf778-f35c-4735-82f0-4ee4723fcb75" x1="82.15" y1="11.19" x2="86.29" y2="11.94" xlink:href="#a10a4df4-1309-40eb-b3db-f4ee6b0d5912"/><linearGradient id="b8155ed1-2b3c-4c62-be7e-ce418241cce6" x1="77.95" y1="34.3" x2="82.09" y2="35.05" xlink:href="#a10a4df4-1309-40eb-b3db-f4ee6b0d5912"/><linearGradient id="af1b865f-5524-47d9-98d9-a2057ebba9e6" x1="89.7" y1="9.46" x2="75.76" y2="10.94" gradientUnits="userSpaceOnUse"><stop offset="0.63" stop-color="#fdfeff"/><stop offset="0.71" stop-color="#fefeff" stop-opacity="0.73"/><stop offset="0.78" stop-color="#feffff" stop-opacity="0.48"/><stop offset="0.86" stop-color="#feffff" stop-opacity="0.27"/><stop offset="0.92" stop-color="#fff" stop-opacity="0.12"/><stop offset="0.97" stop-color="#fff" stop-opacity="0.03"/><stop offset="1" stop-color="#fff" stop-opacity="0"/></linearGradient><linearGradient id="a9711345-a90a-4c15-b48b-2cd69a2c4164" x1="91.93" y1="30.4" x2="77.98" y2="31.88" xlink:href="#af1b865f-5524-47d9-98d9-a2057ebba9e6"/><linearGradient id="aa9dd262-48ae-4ed3-bc48-50c9899ebacf" x1="93.91" y1="23.08" x2="87.99" y2="18.39" xlink:href="#af1b865f-5524-47d9-98d9-a2057ebba9e6"/><linearGradient id="e91d68be-36c6-4399-adcc-041bb6742714" x1="79.51" y1="41.26" x2="73.59" y2="36.56" xlink:href="#af1b865f-5524-47d9-98d9-a2057ebba9e6"/><linearGradient id="ad871e3b-b491-4185-9260-44e1a04fd65a" x1="72.87" y1="19.37" x2="78.47" y2="29.4" xlink:href="#a10a4df4-1309-40eb-b3db-f4ee6b0d5912"/><linearGradient id="a7def9ba-3a72-477f-8883-6fd34d739601" x1="-124.79" y1="607.34" x2="-119.19" y2="617.37" gradientTransform="matrix(0.75, 0.3, -0.37, 0.93, 395.71, -498.22)" xlink:href="#a10a4df4-1309-40eb-b3db-f4ee6b0d5912"/><linearGradient id="a6df4c6d-57e9-4d57-8834-c013e2169f04" x1="178.5" y1="694.54" x2="184.1" y2="697.77" gradientTransform="translate(201.17 -661.65) rotate(24.84)" gradientUnits="userSpaceOnUse"><stop offset="0.04" stop-color="#65139f" stop-opacity="0.8"/><stop offset="0.18" stop-color="#5f1da3" stop-opacity="0.73"/><stop offset="0.44" stop-color="#4f39ac" stop-opacity="0.53"/><stop offset="0.79" stop-color="#3665bb" stop-opacity="0.22"/><stop offset="1" stop-color="#2484c6" stop-opacity="0"/></linearGradient><linearGradient id="a139cf46-5023-4d92-a992-1426dac1ef9a" x1="659.66" y1="-1300.91" x2="664.89" y2="-1297.9" gradientTransform="matrix(0.49, 0.79, 0.75, -0.46, 724.39, -1087.63)" xlink:href="#a10a4df4-1309-40eb-b3db-f4ee6b0d5912"/><linearGradient id="baa7b980-1c19-4304-b4af-1539058520fb" x1="88.47" y1="26.95" x2="58.75" y2="31.94" xlink:href="#acdf73de-9342-49b2-8126-cf77d9a92ffb"/><linearGradient id="fe7c0842-8cd0-4d7a-b63d-b82e9ec37eef" x1="66.72" y1="35.2" x2="70.34" y2="37.29" gradientTransform="matrix(1, 0, 0, 1, 0, 0)" xlink:href="#a6df4c6d-57e9-4d57-8834-c013e2169f04"/><linearGradient id="a666d995-93fd-441c-9993-ff4db904ce00" x1="56" y1="29.46" x2="64.24" y2="28.57" gradientTransform="matrix(1, 0, 0, 1, 0, 0)" xlink:href="#a6df4c6d-57e9-4d57-8834-c013e2169f04"/><linearGradient id="fb9e3aa3-49cb-4546-a214-a6372e7876d5" x1="247.64" y1="-589.45" x2="249.14" y2="-587.53" gradientTransform="translate(92.34 680.72) rotate(-25.1)" gradientUnits="userSpaceOnUse"><stop offset="0.37" stop-color="#65139f"/><stop offset="0.45" stop-color="#601ba2" stop-opacity="0.93"/><stop offset="0.59" stop-color="#5431a9" stop-opacity="0.73"/><stop offset="0.78" stop-color="#3f55b6" stop-opacity="0.41"/><stop offset="1" stop-color="#2484c6" stop-opacity="0"/></linearGradient><linearGradient id="b2e88673-f139-47ea-826d-a1526ef6c42a" x1="70.4" y1="51.83" x2="71.86" y2="53.71" xlink:href="#a10a4df4-1309-40eb-b3db-f4ee6b0d5912"/><linearGradient id="fa3c679f-cc97-4458-835b-d1ee52345a49" x1="75.13" y1="54.7" x2="61.27" y2="51.81" gradientUnits="userSpaceOnUse"><stop offset="0" stop-color="#65139f"/><stop offset="1" stop-color="#fff" stop-opacity="0"/></linearGradient><linearGradient id="a4db752f-2c0d-446c-aa30-077608ffeead" x1="71.86" y1="-63.54" x2="73.36" y2="-61.62" gradientTransform="matrix(1, -0.07, 0.07, 1, 4.07, 114.88)" gradientUnits="userSpaceOnUse"><stop offset="0.37" stop-color="#231f20"/><stop offset="0.63" stop-color="#234157" stop-opacity="0.67"/><stop offset="1" stop-color="#2484c6" stop-opacity="0"/></linearGradient></defs><path d="M89.6,36.68a1,1,0,0,0,0-.29.89.89,0,0,0-.87-.77.86.86,0,0,0-.91.64c-.06.17-.49,1-.85,1.58A24,24,0,0,1,84.81,41a23.27,23.27,0,0,0,3.09-5.54,30.26,30.26,0,0,0,1.46-9.89A33.94,33.94,0,0,0,89,20.1L89,20l-.07-.11a1,1,0,0,0-.89-.51,1.1,1.1,0,0,0-.85.55l-.11.21,0,.22a.06.06,0,0,1,0,0l0,.09,0,.22a.31.31,0,0,1,0,.1,25.55,25.55,0,0,1-1.46,7.08l.26-1c0-.18.1-.37.14-.54a15.67,15.67,0,0,0,.45-4.09c0-.18,0-.35,0-.52a24.43,24.43,0,0,0-.19-3.07A19.48,19.48,0,0,0,84,13.05L81.24,8.88a3.56,3.56,0,0,0-.56-.69A.81.81,0,0,0,80.06,8H80l0,0a.7.7,0,0,0-.41.26.75.75,0,0,0-.15.47s0,.1,0,.15c-.08.38.15,1.27,1.61,4.29a5.53,5.53,0,0,1,.27,1A5.31,5.31,0,0,1,80.7,13l0-.11c0-.12-.11-.23-.16-.35a1.74,1.74,0,0,1-.1-.19c-.22-.52-.46-1-.69-1.48h0c-.21-.4-.42-.78-.64-1.14h0A13.66,13.66,0,0,0,76.3,6.35a19.94,19.94,0,0,1-2-2.18,4.7,4.7,0,0,0-.78-.85.82.82,0,0,0-.27-.13.64.64,0,0,0-.65.17.77.77,0,0,0-.19.72,1,1,0,0,0,0,.49,10.9,10.9,0,0,1,.39,2.66c-.12,8.32-10.83,12.91-10.94,13a11,11,0,0,0-2.32,1.35l0,0-.12.09-.07.06,0,0-.37.32a.69.69,0,0,1-.13.11l-.06.07c-.07.07-.15.13-.21.2l-.3.32,0,0a11.33,11.33,0,0,0-2.69,7.48,12.08,12.08,0,0,0-5-3.48,14.39,14.39,0,0,1-8.71-9l-1.18-4.46,0,34.6v.36c0,4.13,6.79,7.26,7.08,7.4,7.87,3.5,9.69,6.12,9.8,6.29l.14.27.53.66.47-.39c4.8-4,10.16-5.61,14.08-6.75A23.26,23.26,0,0,0,77.59,54c6.19-3.61,8.18-7.48,8.35-7.82,2.72-5,3.74-8.9,3.67-9.43A.13.13,0,0,0,89.6,36.68Z" fill="#fff"/><path d="M89.06,36.82c0-.31-.55-.33-.61-.06a15.5,15.5,0,0,1-.91,1.73c-3.53,6.08-8.06,8.12-8.06,8.12-1.84-.1.11-1.32.11-1.32a22.83,22.83,0,0,0,7.79-10c2.37-7,1.08-14.69,1.08-14.69a.39.39,0,0,0-.72,0c.21,1-.85,8.53-2.77,9.83a1.62,1.62,0,0,1-.83.31,37.57,37.57,0,0,0,1.38-4.52,21.13,21.13,0,0,0,.25-6.92,19.93,19.93,0,0,0-2.21-5.45L80.77,9.56s-.5-.88-.72-.6,1.55,4,1.55,4c.56,1.53.48,2.52-.36,2.32-.49-.12-.9-1.22-1.09-1.68a15.73,15.73,0,0,0-4.21-6.41c-1.28-1.17-2.42-2.79-2.7-3s-.16.24-.16.24c3,10.88-10.89,16.69-10.89,16.69-6.92,3-6,10.4-5.9,11.14v.25a12,12,0,0,0-5.9-4.79,14.9,14.9,0,0,1-9.09-9.42l0,30c0,3.8,6.72,6.86,6.72,6.86,8.47,3.77,10.08,6.54,10.08,6.54l.15.29.08.09c7.31-6.15,15.69-6.62,19-8.57,6.26-3.66,8.12-7.59,8.12-7.59C88.21,40.88,89.1,37.12,89.06,36.82Z" fill="url(#b7efce50-b69b-4068-9bc8-989934dc6284)"/><path d="M58.29,61.7l.6-3.86s2.47-6.45,10.55-11.65L80.92,23.56s2-4.89,1.62,4.63c0,0,.51,3.12,2.43,1.83s3-8.86,2.77-9.82a.39.39,0,0,1,.72,0s1.29,7.72-1.08,14.68a22.89,22.89,0,0,1-7.79,10.06s-2,1.22-.11,1.31c0,0,4.53-2,8.06-8.11a16.44,16.44,0,0,0,.91-1.73c.06-.27.57-.25.61.05s-.85,4.07-3.61,9.08c0,0-1.86,3.93-8.12,7.58C74,55.08,65.6,55.54,58.29,61.7Z" opacity="0.32" fill="url(#acdf73de-9342-49b2-8126-cf77d9a92ffb)"/><path d="M58.06,61.32S56.45,58.54,48,54.78c0,0-6.69-3.06-6.72-6.86l0-30a14.9,14.9,0,0,0,9.09,9.42c7.31,2.65,8.68,11.71,8.75,12a42.51,42.51,0,0,1,.71,8.27c-.15,3.42-.42,5.2-.42,5.2s-1.2,8.28-1.22,8.8Z" fill="url(#f7d775ec-9e0a-475f-951a-5a6899004f4d)"/><path d="M60.18,46.19C60.05,36.93,56.93,32.75,56.3,32c0,0-1.4-8,5.89-11.21,0,0,13.87-5.81,10.89-16.68,0,0-.12-.44.16-.25s1.42,1.82,2.7,3a15.88,15.88,0,0,1,4.21,6.41c.19.47.6,1.57,1.09,1.68.84.2.92-.79.36-2.32,0,0-1.78-3.67-1.55-4s.72.6.72.6l2.79,4.24a20,20,0,0,1,2.21,5.44,21.19,21.19,0,0,1-.25,6.93,25.61,25.61,0,0,1-8.19,14.11c-5.1,4.64-17.22,11.58-18.42,17.75A63.8,63.8,0,0,0,60.18,46.19Z" fill="url(#b4d5cb71-2889-41cc-9956-424bd07e888c)"/><path d="M58.06,61.32s1.8-2.23-6.67-6c0,0-6.69-3.06-6.72-6.86L41.3,17.93a14.9,14.9,0,0,0,9.09,9.42c7.31,2.65,8.68,11.71,8.75,12a42.51,42.51,0,0,1,.71,8.27c-.15,3.42-.42,5.2-.42,5.2s-1.2,8.28-1.22,8.8Z" fill="url(#f3483707-869f-42a0-a096-fa22f8f10d40)"/><path d="M59.76,52.52c1-2.72,3.94-8.22,12.47-18.66,0,0,10.07-13.75,1.71-27.34,0,0,12.75,17,0,29.82A215.73,215.73,0,0,0,59.45,54.66c-.05.07.08-.34.27-2A.74.74,0,0,1,59.76,52.52Z" opacity="0.64" fill="url(#a10a4df4-1309-40eb-b3db-f4ee6b0d5912)"/><path d="M78.61,10.05c.19.36.39.72.62,1.1C79,10.75,78.82,10.38,78.61,10.05Z" opacity="0.32" fill="url(#a6cd582b-f4f4-46d7-ba66-538ca44880e2)"/><path d="M85.77,18.75a19.57,19.57,0,0,0-2.21-5.37L80.77,9.2s-.5-.87-.72-.59,1.55,3.9,1.55,3.9c.56,1.51.48,2.48-.36,2.29-.49-.12-.9-1.21-1.09-1.66-.08-.19-.2-.37-.28-.55,2.71,7.13-1.4,20-4.76,23.5-3.61,3.75-15.49,16.83-15.5,16.83-.34,2.35-.7,4.07-.7,4.07,1.2-6.08,13.31-12.92,18.41-17.5a25.12,25.12,0,0,0,8.2-13.91A20.59,20.59,0,0,0,85.77,18.75Z" opacity="0.32" fill="url(#a7dcb329-15ac-4e24-aef0-18a44003d35a)"/><path d="M78.61,10.05c.19.36.39.72.62,1.1C79,10.75,78.81,10.38,78.61,10.05Z" opacity="0.32" fill="url(#a64cf778-f35c-4735-82f0-4ee4723fcb75)"/><path d="M85.77,18.75a19.57,19.57,0,0,0-2.21-5.37L80.77,9.2s-.5-.87-.73-.59,1.55,3.9,1.55,3.9c.57,1.51.49,2.48-.35,2.29-.49-.12-.9-1.21-1.09-1.66-.08-.19-.18-.37-.26-.55,2.71,7.13-1.42,20-4.78,23.5-3.62,3.75-15.49,16.83-15.5,16.83-.34,2.35-.7,4.07-.7,4.07,1.2-6.08,13.31-12.92,18.41-17.5a25.12,25.12,0,0,0,8.2-13.91A20.59,20.59,0,0,0,85.77,18.75Z" opacity="0.32" fill="url(#b8155ed1-2b3c-4c62-be7e-ce418241cce6)"/><path d="M78.62,10.05c.18.36.39.72.61,1.1C79,10.75,78.82,10.38,78.62,10.05Z" opacity="0.32" fill="url(#af1b865f-5524-47d9-98d9-a2057ebba9e6)"/><path d="M85.77,18.75a19.57,19.57,0,0,0-2.21-5.37L80.78,9.2s-.51-.87-.73-.59,1.55,3.9,1.55,3.9c.56,1.51.48,2.48-.36,2.29-.48-.12-.9-1.21-1.09-1.66-.08-.19-.18-.37-.26-.55,2.71,7.13-1.42,20-4.77,23.5-3.62,3.75-15.5,16.83-15.51,16.83-.33,2.35-.7,4.07-.7,4.07,1.21-6.08,13.32-12.92,18.42-17.5a25.15,25.15,0,0,0,8.19-13.91A20.59,20.59,0,0,0,85.77,18.75Z" opacity="0.32" fill="url(#a9711345-a90a-4c15-b48b-2cd69a2c4164)"/><path d="M78.61,10.65c.19.36.39.73.62,1.1C79,11.35,78.81,11,78.61,10.65Z" opacity="0.32" fill="url(#aa9dd262-48ae-4ed3-bc48-50c9899ebacf)"/><path d="M85.77,19.35A19.57,19.57,0,0,0,83.56,14L80.77,9.8s-.5-.87-.73-.59,1.55,3.9,1.55,3.9c.57,1.51.49,2.48-.35,2.29-.49-.12-.9-1.21-1.09-1.66-.08-.19-.18-.37-.26-.56,2.71,7.14-1.42,20-4.78,23.51-3.62,3.75-15.49,16.83-15.5,16.84-.34,2.35-.7,4.06-.7,4.06,1.2-6.08,13.31-12.92,18.41-17.5a25.12,25.12,0,0,0,8.2-13.91A20.59,20.59,0,0,0,85.77,19.35Z" opacity="0.32" fill="url(#e91d68be-36c6-4399-adcc-041bb6742714)"/><path d="M72.33,33.49h3.84c8.71-12.38-2.32-27.08-2.32-27.08C81.53,18.89,73.67,31.5,72.33,33.49Z" opacity="0.64" fill="url(#ad871e3b-b491-4185-9260-44e1a04fd65a)"/><path d="M69.76,40.6l2.9,1.16c11.18-8.85,8.24-25.83,8.24-25.83C82.05,29.84,71.51,39.16,69.76,40.6Z" opacity="0.64" fill="url(#a7def9ba-3a72-477f-8883-6fd34d739601)"/><path d="M59.62,52.92C69,45.25,80.26,41.2,84.29,30.32c0,0,1.21,14.37-25.43,27.1l.53-3Z" fill="url(#a6df4c6d-57e9-4d57-8834-c013e2169f04)"/><path d="M62.79,50.09C60.37,48.19,73,40.59,81.18,22l-.9,5.31S79,42.28,62.79,50.09Z" opacity="0.64" fill="url(#a139cf46-5023-4d92-a992-1426dac1ef9a)"/><path d="M60.18,46.19c-.13-9.26-3.24-13.44-3.87-14.24,0,0-1.41-8,5.88-11.21,0,0,13.87-5.81,10.89-16.68,0,0-.12-.44.17-.25s1.41,1.82,2.7,3a16,16,0,0,1,4.2,6.41c.19.47.61,1.57,1.09,1.68.84.2.92-.79.36-2.32,0,0-1.77-3.67-1.55-4s.73.6.73.6l2.78,4.24a19.86,19.86,0,0,1,2.22,5.44,21.33,21.33,0,0,1-.26,6.93,25.61,25.61,0,0,1-8.19,14.11c-5.1,4.64-17.21,11.58-18.42,17.75A63.8,63.8,0,0,0,60.18,46.19Z" opacity="0.32" fill="url(#baa7b980-1c19-4304-b4af-1539058520fb)"/><path d="M60.18,45.34s13.51-21.06,13-25.78c0,0,5.65,8.37-13.18,31.11l.15-3Z" fill="url(#fe7c0842-8cd0-4d7a-b63d-b82e9ec37eef)"/><path d="M60,42.78S59.12,35.59,56.3,32c0,0-.93-6.33,3.57-9.84,2.35-1.83,6.38-.92,12.28-8.11C73,13,60,42.78,60,42.78Z" fill="url(#a666d995-93fd-441c-9993-ff4db904ce00)"/><path d="M75.51,36.09a22.81,22.81,0,0,1-5.6,6.8q-1.64,1.5-3.28,3c-.16.14-.61.64-.73.77a29.7,29.7,0,0,0-4.82,6c-.07.11-1.1,1.83-1.2,1.92-.25-.47.49-3.72.82-4.9a72.27,72.27,0,0,1,4.51-8.33l1.5-2c.49-.54,1-1.1,1.48-1.63,1.18-1.23,2.11-2.67,3.28-3.92a25.55,25.55,0,0,0,1.69-2.26c.35-.59.77-1.15,1.11-1.76a1.8,1.8,0,0,1-.13,1,.69.69,0,0,0,0,.78c.58.66.49,4.86.69,5S75.43,36.1,75.51,36.09Z" opacity="0.42" fill="url(#fb9e3aa3-49cb-4546-a214-a6372e7876d5)"/><path d="M80.7,50.4a22.1,22.1,0,0,1-7.78,3.71l-4.14,1.28c-.2.06-.81.32-1,.38a28.71,28.71,0,0,0-6.75,3.29c-.11.06-1.73,1.16-1.86,1.2,0-.52,2-3.09,2.76-4a68,68,0,0,1,7.46-5.51l2.15-1.14c.66-.28,1.32-.58,2-.83,1.56-.6,3-1.5,4.54-2.12a22.8,22.8,0,0,0,2.43-1.3c.56-.38,1.17-.7,1.72-1.1a1.89,1.89,0,0,1-.52.81.67.67,0,0,0-.29.71c.24.83-1.59,4.51-1.45,4.68S80.63,50.38,80.7,50.4Z" opacity="0.42" fill="url(#b2e88673-f139-47ea-826d-a1526ef6c42a)"/><path d="M59.2,60.26c9.57-6.32,19.67-5.15,24.43-12.66-5.48,5.09-7.77,3.9-21.51,8.5C61.82,56.2,59.36,59.16,59.2,60.26Z" fill="url(#fa3c679f-cc97-4458-835b-d1ee52345a49)"/><path d="M81.61,44.15A23,23,0,0,1,74,48.49c-1.38.54-2.75,1.09-4.13,1.61-.21.08-.8.39-1,.46a29.34,29.34,0,0,0-6.64,3.85c-.11.07-1.68,1.31-1.81,1.35-.07-.52,1.8-3.29,2.53-4.28a72.12,72.12,0,0,1,7.19-6.16L72.24,44c.65-.33,1.3-.68,2-1,1.55-.73,2.92-1.74,4.46-2.49A22.19,22.19,0,0,0,81.06,39c.55-.43,1.14-.8,1.67-1.24a1.75,1.75,0,0,1-.47.85.71.71,0,0,0-.24.75c.31.83-1.29,4.71-1.13,4.88S81.53,44.13,81.61,44.15Z" opacity="0.42" fill="url(#a4db752f-2c0d-446c-aa30-077608ffeead)"/><path d="M15.41,88.31a7.72,7.72,0,0,1-3.74.79,8.15,8.15,0,0,1-3.22-.63A7.86,7.86,0,0,1,5.9,86.75a7.94,7.94,0,0,1-2.27-5.63v-.05A8.08,8.08,0,0,1,5.9,75.39a7.73,7.73,0,0,1,2.55-1.73A8.29,8.29,0,0,1,11.72,73a8.39,8.39,0,0,1,3.63.69,8.1,8.1,0,0,1,2.54,1.9L15.21,78.5a7.17,7.17,0,0,0-1.54-1.24,4,4,0,0,0-2-.46,3.41,3.41,0,0,0-1.51.33A3.85,3.85,0,0,0,9,78a4.14,4.14,0,0,0-.78,1.34A4.85,4.85,0,0,0,8,81v.06a5.08,5.08,0,0,0,.27,1.67A4.06,4.06,0,0,0,9,84.09a3.72,3.72,0,0,0,1.23.91,3.84,3.84,0,0,0,1.62.33,3.88,3.88,0,0,0,1.91-.45,8.13,8.13,0,0,0,1.63-1.19L18,86.28A9.64,9.64,0,0,1,15.41,88.31Z" fill="#fff"/><path d="M36.29,84.19a7.89,7.89,0,0,1-1.75,2.55,8.38,8.38,0,0,1-2.65,1.73,9.18,9.18,0,0,1-6.66,0,8.11,8.11,0,0,1-2.63-1.7,8,8,0,0,1-1.75-2.53,7.78,7.78,0,0,1-.63-3.13v-.05a7.78,7.78,0,0,1,.63-3.13,8.08,8.08,0,0,1,1.76-2.55,8.27,8.27,0,0,1,2.65-1.73,9.18,9.18,0,0,1,6.66,0,8.11,8.11,0,0,1,2.63,1.7,7.83,7.83,0,0,1,1.74,2.53A7.62,7.62,0,0,1,36.93,81v.06A7.61,7.61,0,0,1,36.29,84.19Zm-3.68-3.12a4.62,4.62,0,0,0-.29-1.63,4.08,4.08,0,0,0-.84-1.36,4,4,0,0,0-1.29-.93,3.89,3.89,0,0,0-1.64-.35,4.08,4.08,0,0,0-1.69.33,3.7,3.7,0,0,0-1.25.91,3.84,3.84,0,0,0-.79,1.34A4.62,4.62,0,0,0,24.54,81v.06a4.61,4.61,0,0,0,.29,1.62A4.11,4.11,0,0,0,27,85a3.84,3.84,0,0,0,1.65.35A4.08,4.08,0,0,0,30.29,85a3.7,3.7,0,0,0,1.25-.91,3.84,3.84,0,0,0,.79-1.34,4.62,4.62,0,0,0,.28-1.63Z" fill="#fff"/><path d="M50,88.76v-8.6a3.43,3.43,0,0,0-.7-2.34,2.47,2.47,0,0,0-2-.79,2.63,2.63,0,0,0-2,.79,3.33,3.33,0,0,0-.73,2.34v8.6H40.24V73.32h4.38v2.2a9,9,0,0,1,.82-.94,6.05,6.05,0,0,1,1-.8,5,5,0,0,1,1.21-.55,5.27,5.27,0,0,1,1.49-.2A5,5,0,0,1,53,74.56a6.05,6.05,0,0,1,1.37,4.2v10Z" fill="#fff"/><path d="M69.21,86.29A4,4,0,0,1,68,87.83a5.48,5.48,0,0,1-1.88.91,8.67,8.67,0,0,1-2.32.3,10.57,10.57,0,0,1-3.36-.56,10.68,10.68,0,0,1-3.27-1.77L59,83.83a10.52,10.52,0,0,0,2.52,1.38,6.79,6.79,0,0,0,2.35.46,2.46,2.46,0,0,0,1.4-.31,1,1,0,0,0,.45-.84v-.06a.83.83,0,0,0-.26-.6,2.41,2.41,0,0,0-.71-.45q-.45-.18-1-.36l-1.21-.37a15.74,15.74,0,0,1-1.63-.56,5.6,5.6,0,0,1-1.48-.87,4.06,4.06,0,0,1-1.08-1.31A4,4,0,0,1,57.9,78V78a4.55,4.55,0,0,1,1.66-3.63,5.07,5.07,0,0,1,1.78-.95,7.47,7.47,0,0,1,2.21-.31,9.84,9.84,0,0,1,3,.47,11.62,11.62,0,0,1,2.78,1.31l-1.67,3a12.52,12.52,0,0,0-2.25-1.05,5.84,5.84,0,0,0-1.93-.39,2,2,0,0,0-1.21.3.91.91,0,0,0-.4.76v.06a.75.75,0,0,0,.25.56,3,3,0,0,0,.7.46,7.19,7.19,0,0,0,1,.42c.37.13.77.27,1.2.4s1.08.38,1.64.62a7.39,7.39,0,0,1,1.5.88,4.45,4.45,0,0,1,1.09,1.27A3.54,3.54,0,0,1,69.65,84v.06A5.22,5.22,0,0,1,69.21,86.29Z" fill="#fff"/><path d="M82.59,88.76V86.55a10.41,10.41,0,0,1-.82.94,5.57,5.57,0,0,1-1,.8,4.77,4.77,0,0,1-1.21.55,5.7,5.7,0,0,1-5.37-1.32,6.1,6.1,0,0,1-1.37-4.21v-10H77.2v8.59a3.48,3.48,0,0,0,.69,2.34,2.45,2.45,0,0,0,2,.79,2.59,2.59,0,0,0,2-.79,3.33,3.33,0,0,0,.74-2.34V73.32H87V88.76Z" fill="#fff"/><path d="M91.23,88.76v-21h4.38v21Z" fill="#fff"/><path d="M107,88.77a7,7,0,0,1-1.93.25,7.4,7.4,0,0,1-1.83-.22,3.34,3.34,0,0,1-1.41-.76,3.72,3.72,0,0,1-.92-1.43,6.4,6.4,0,0,1-.33-2.23V77.06H98.75V73.32h1.84V69.37H105v3.95h3.63v3.74H105v6.6q0,1.5,1.41,1.5a4.5,4.5,0,0,0,2.16-.55v3.51A6.59,6.59,0,0,1,107,88.77Z" fill="#fff"/><path d="M126.36,82c0,.15,0,.33,0,.54H115.57a3.66,3.66,0,0,0,1.31,2.26,3.91,3.91,0,0,0,2.46.77,4.86,4.86,0,0,0,2-.38A6.65,6.65,0,0,0,123.09,84l2.5,2.22a7.8,7.8,0,0,1-2.65,2.12,8.16,8.16,0,0,1-3.66.76,8.88,8.88,0,0,1-3.21-.57,7.52,7.52,0,0,1-2.56-1.65,7.7,7.7,0,0,1-1.69-2.52,8.42,8.42,0,0,1-.6-3.24v-.05a8.76,8.76,0,0,1,.56-3.12,8,8,0,0,1,1.57-2.56,7.24,7.24,0,0,1,2.41-1.73,7.42,7.42,0,0,1,3.09-.63,7.51,7.51,0,0,1,3.34.69,6.65,6.65,0,0,1,2.35,1.86,7.69,7.69,0,0,1,1.39,2.68,11.31,11.31,0,0,1,.44,3.15v.06C126.37,81.68,126.37,81.86,126.36,82Zm-5.29-4.57a2.9,2.9,0,0,0-2.22-.91,2.93,2.93,0,0,0-2.23.9,4.41,4.41,0,0,0-1.11,2.39h6.6A4.31,4.31,0,0,0,121.07,77.45Z" fill="#fff"/></svg>